M48
; DRILL file {KiCad (7.0.0)} date Tue Mar 14 21:06:28 2023
; FORMAT={-:-/ absolute / inch / decimal}
; #@! TF.CreationDate,2023-03-14T21:06:28+08:00
; #@! TF.GenerationSoftware,Kicad,Pcbnew,(7.0.0)
; #@! TF.FileFunction,NonPlated,1,2,NPTH
FMAT,2
INCH
; #@! TA.AperFunction,NonPlated,NPTH,ComponentDrill
T1C0.0256
; #@! TA.AperFunction,NonPlated,NPTH,ComponentDrill
T2C0.0315
; #@! TA.AperFunction,NonPlated,NPTH,ComponentDrill
T3C0.0689
; #@! TA.AperFunction,NonPlated,NPTH,ComponentDrill
T4C0.1570
%
G90
G05
T1
X4.2732Y-1.4697
T2
X4.2363Y-2.2914
X4.5118Y-2.2914
T3
X1.0547Y-1.2512
X1.0547Y-1.9993
X1.0547Y-2.7473
X1.0547Y-3.4953
X1.0547Y-4.2434
X1.4547Y-1.2512
X1.4547Y-1.9993
X1.4547Y-2.7473
X1.4547Y-3.4953
X1.4547Y-4.2434
X1.8027Y-1.2512
X1.8027Y-1.9993
X1.8027Y-2.7473
X1.8027Y-3.4953
X1.8027Y-4.2434
X2.2027Y-1.2512
X2.2027Y-1.9993
X2.2027Y-2.7473
X2.2027Y-3.4953
X2.2027Y-4.2434
X2.5507Y-1.2512
X2.5507Y-1.9993
X2.5507Y-2.7473
X2.5507Y-3.4953
X2.5507Y-4.2434
X2.9507Y-1.2512
X2.9507Y-1.9993
X2.9507Y-2.7473
X2.9507Y-3.4953
X2.9507Y-4.2434
X3.2988Y-1.2512
X3.2988Y-1.9993
X3.2988Y-2.7473
X3.2988Y-3.4953
X3.2988Y-4.2434
X3.6988Y-1.2512
X3.6988Y-1.9993
X3.6988Y-2.7473
X3.6988Y-3.4953
X3.6988Y-4.2434
X4.0468Y-1.2512
X4.0468Y-1.9993
X4.0468Y-2.7473
X4.0468Y-3.4953
X4.0468Y-4.2434
X4.4468Y-1.2512
X4.4468Y-1.9993
X4.4468Y-2.7473
X4.4468Y-3.4953
X4.4468Y-4.2434
T4
X1.2547Y-1.2512
X1.2547Y-1.9993
X1.2547Y-2.7473
X1.2547Y-3.4953
X1.2547Y-4.2434
X2.0027Y-1.2512
X2.0027Y-1.9993
X2.0027Y-2.7473
X2.0027Y-3.4953
X2.0027Y-4.2434
X2.7507Y-1.2512
X2.7507Y-1.9993
X2.7507Y-2.7473
X2.7507Y-3.4953
X2.7507Y-4.2434
X3.4988Y-1.2512
X3.4988Y-1.9993
X3.4988Y-2.7473
X3.4988Y-3.4953
X3.4988Y-4.2434
X4.2468Y-1.2512
X4.2468Y-1.9993
X4.2468Y-2.7473
X4.2468Y-3.4953
X4.2468Y-4.2434
T1
G00X4.2732Y-1.7472
M15
G01X4.2732Y-1.759
M16
G05
T0
M30
