M48
; DRILL file {KiCad (7.0.0)} date Tue Mar 14 21:06:28 2023
; FORMAT={-:-/ absolute / inch / decimal}
; #@! TF.CreationDate,2023-03-14T21:06:28+08:00
; #@! TF.GenerationSoftware,Kicad,Pcbnew,(7.0.0)
; #@! TF.FileFunction,Plated,1,2,PTH
FMAT,2
INCH
; #@! TA.AperFunction,Plated,PTH,ViaDrill
T1C0.0157
; #@! TA.AperFunction,Plated,PTH,ComponentDrill
T2C0.0197
; #@! TA.AperFunction,Plated,PTH,ComponentDrill
T3C0.0354
; #@! TA.AperFunction,Plated,PTH,ComponentDrill
T4C0.0579
%
G90
G05
T1
X1.2188Y-3.1875
X2.0Y-3.173
X2.535Y-3.7276
X2.75Y-3.1551
X2.7865Y-3.6914
X2.815Y-3.9459
X2.815Y-4.1429
X2.855Y-3.72
X2.855Y-3.7594
X2.9036Y-3.5464
X3.0453Y-3.2016
X3.0507Y-2.39
X3.0768Y-3.1706
X3.0808Y-4.1429
X3.1083Y-3.1396
X3.1398Y-3.1727
X3.1713Y-3.2037
X3.275Y-1.75
X3.2815Y-1.7112
X3.3125Y-3.1751
X3.4498Y-4.0436
X3.57Y-3.78
X3.635Y-1.695
X3.695Y-1.725
X3.7247Y-3.7947
X3.7314Y-3.9109
X3.75Y-1.8
X3.7523Y-3.8228
X3.7558Y-3.88
X3.77Y-2.43
X3.7812Y-3.85
X3.8027Y-3.7164
X3.8125Y-2.2731
X3.8125Y-2.3125
X3.84Y-3.73
X3.9062Y-1.73
X3.9062Y-2.0
X3.9183Y-3.2367
X3.9362Y-3.7919
X3.9375Y-1.5312
X3.945Y-2.605
X3.9622Y-3.8214
X3.9688Y-2.125
X3.9688Y-2.4062
X3.9849Y-2.6044
X3.99Y-3.85
X3.9934Y-2.94
X4.0625Y-3.1875
X4.1484Y-1.4688
X4.155Y-1.655
X4.1562Y-1.5312
X4.355Y-1.6025
X4.355Y-1.6597
X4.355Y-1.5631
X4.4688Y-1.625
T4
X1.1047Y-1.1512
X1.1047Y-1.8993
X1.1047Y-2.6473
X1.1047Y-3.3953
X1.1047Y-4.1434
X1.1562Y-1.0938
X1.1562Y-1.8418
X1.1562Y-2.5898
X1.1562Y-3.3378
X1.1562Y-4.0859
X1.3531Y-1.0741
X1.3531Y-1.8221
X1.3531Y-2.5701
X1.3531Y-3.3182
X1.3531Y-4.0662
X1.3547Y-1.0512
X1.3547Y-1.7993
X1.3547Y-2.5473
X1.3547Y-3.2953
X1.3547Y-4.0434
X1.8527Y-1.1512
X1.8527Y-1.8993
X1.8527Y-2.6473
X1.8527Y-3.3953
X1.8527Y-4.1434
X1.9043Y-1.0938
X1.9043Y-1.8418
X1.9043Y-2.5898
X1.9043Y-3.3378
X1.9043Y-4.0859
X2.1011Y-1.0741
X2.1011Y-1.8221
X2.1011Y-2.5701
X2.1011Y-3.3182
X2.1011Y-4.0662
X2.1027Y-1.0512
X2.1027Y-1.7993
X2.1027Y-2.5473
X2.1027Y-3.2953
X2.1027Y-4.0434
X2.6007Y-1.1512
X2.6007Y-1.8993
X2.6007Y-2.6473
X2.6007Y-3.3953
X2.6507Y-4.4434
X2.6523Y-1.0938
X2.6523Y-1.8418
X2.6523Y-2.5898
X2.6523Y-3.3378
X2.6523Y-4.4205
X2.8492Y-1.0741
X2.8492Y-1.8221
X2.8492Y-2.5701
X2.8492Y-3.3182
X2.8492Y-4.4008
X2.8507Y-1.0512
X2.8507Y-1.7993
X2.8507Y-2.5473
X2.8507Y-3.2953
X2.9007Y-4.3434
X3.3488Y-1.1512
X3.3488Y-1.8993
X3.3488Y-2.6473
X3.3488Y-3.3953
X3.3988Y-4.4434
X3.4003Y-1.0938
X3.4003Y-1.8418
X3.4003Y-2.5898
X3.4003Y-3.3378
X3.4003Y-4.4205
X3.5972Y-1.0741
X3.5972Y-1.8221
X3.5972Y-2.5701
X3.5972Y-3.3182
X3.5972Y-4.4008
X3.5988Y-1.0512
X3.5988Y-1.7993
X3.5988Y-2.5473
X3.5988Y-3.2953
X3.6488Y-4.3434
X4.0968Y-1.1512
X4.0968Y-1.8993
X4.0968Y-2.6473
X4.0968Y-3.3953
X4.0968Y-4.1434
X4.1484Y-1.0938
X4.1484Y-1.8418
X4.1484Y-2.5898
X4.1484Y-3.3378
X4.1484Y-4.0859
X4.3452Y-1.0741
X4.3452Y-1.8221
X4.3452Y-2.5701
X4.3452Y-3.3182
X4.3452Y-4.0662
X4.3468Y-1.0512
X4.3468Y-1.7993
X4.3468Y-2.5473
X4.3468Y-3.2953
X4.3468Y-4.0434
T2
G00X4.3342Y-1.4488
M15
G01X4.3106Y-1.4488
M16
G05
G00X4.3342Y-1.774
M15
G01X4.3106Y-1.774
M16
G05
G00X4.5685Y-1.4346
M15
G01X4.5448Y-1.4346
M16
G05
G00X4.5685Y-1.7882
M15
G01X4.5448Y-1.7882
M16
G05
T3
G00X4.1378Y-2.2008
M15
G01X4.1221Y-2.2008
M16
G05
G00X4.1811Y-2.3819
M15
G01X4.1654Y-2.3819
M16
G05
G00X4.3386Y-2.3819
M15
G01X4.3229Y-2.3819
M16
G05
G00X4.4567Y-2.3819
M15
G01X4.441Y-2.3819
M16
G05
T0
M30
