%TF.GenerationSoftware,KiCad,Pcbnew,(7.0.0)*%
%TF.CreationDate,2023-03-14T21:06:17+08:00*%
%TF.ProjectId,kai_split_left,6b61695f-7370-46c6-9974-5f6c6566742e,rev?*%
%TF.SameCoordinates,Original*%
%TF.FileFunction,Copper,L2,Bot*%
%TF.FilePolarity,Positive*%
%FSLAX46Y46*%
G04 Gerber Fmt 4.6, Leading zero omitted, Abs format (unit mm)*
G04 Created by KiCad (PCBNEW (7.0.0)) date 2023-03-14 21:06:17*
%MOMM*%
%LPD*%
G01*
G04 APERTURE LIST*
G04 Aperture macros list*
%AMRoundRect*
0 Rectangle with rounded corners*
0 $1 Rounding radius*
0 $2 $3 $4 $5 $6 $7 $8 $9 X,Y pos of 4 corners*
0 Add a 4 corners polygon primitive as box body*
4,1,4,$2,$3,$4,$5,$6,$7,$8,$9,$2,$3,0*
0 Add four circle primitives for the rounded corners*
1,1,$1+$1,$2,$3*
1,1,$1+$1,$4,$5*
1,1,$1+$1,$6,$7*
1,1,$1+$1,$8,$9*
0 Add four rect primitives between the rounded corners*
20,1,$1+$1,$2,$3,$4,$5,0*
20,1,$1+$1,$4,$5,$6,$7,0*
20,1,$1+$1,$6,$7,$8,$9,0*
20,1,$1+$1,$8,$9,$2,$3,0*%
%AMHorizOval*
0 Thick line with rounded ends*
0 $1 width*
0 $2 $3 position (X,Y) of the first rounded end (center of the circle)*
0 $4 $5 position (X,Y) of the second rounded end (center of the circle)*
0 Add line between two ends*
20,1,$1,$2,$3,$4,$5,0*
0 Add two circle primitives to create the rounded ends*
1,1,$1,$2,$3*
1,1,$1,$4,$5*%
G04 Aperture macros list end*
%TA.AperFunction,ComponentPad*%
%ADD10HorizOval,2.250000X0.655001X0.730000X-0.655001X-0.730000X0*%
%TD*%
%TA.AperFunction,ComponentPad*%
%ADD11C,2.250000*%
%TD*%
%TA.AperFunction,ComponentPad*%
%ADD12HorizOval,2.250000X0.020000X0.290000X-0.020000X-0.290000X0*%
%TD*%
%TA.AperFunction,ComponentPad*%
%ADD13O,2.000000X1.600000*%
%TD*%
%TA.AperFunction,ComponentPad*%
%ADD14HorizOval,2.250000X-0.655001X-0.730000X0.655001X0.730000X0*%
%TD*%
%TA.AperFunction,ComponentPad*%
%ADD15HorizOval,2.250000X-0.020000X-0.290000X0.020000X0.290000X0*%
%TD*%
%TA.AperFunction,ComponentPad*%
%ADD16HorizOval,2.250000X0.020004X0.290000X-0.020004X-0.290000X0*%
%TD*%
%TA.AperFunction,SMDPad,CuDef*%
%ADD17R,0.550000X1.500000*%
%TD*%
%TA.AperFunction,SMDPad,CuDef*%
%ADD18R,1.500000X0.550000*%
%TD*%
%TA.AperFunction,SMDPad,CuDef*%
%ADD19RoundRect,0.250000X0.450000X-0.262500X0.450000X0.262500X-0.450000X0.262500X-0.450000X-0.262500X0*%
%TD*%
%TA.AperFunction,SMDPad,CuDef*%
%ADD20RoundRect,0.250000X-0.450000X0.262500X-0.450000X-0.262500X0.450000X-0.262500X0.450000X0.262500X0*%
%TD*%
%TA.AperFunction,SMDPad,CuDef*%
%ADD21RoundRect,0.250000X0.475000X-0.250000X0.475000X0.250000X-0.475000X0.250000X-0.475000X-0.250000X0*%
%TD*%
%TA.AperFunction,SMDPad,CuDef*%
%ADD22R,1.100000X1.800000*%
%TD*%
%TA.AperFunction,SMDPad,CuDef*%
%ADD23RoundRect,0.250000X-0.475000X0.250000X-0.475000X-0.250000X0.475000X-0.250000X0.475000X0.250000X0*%
%TD*%
%TA.AperFunction,SMDPad,CuDef*%
%ADD24RoundRect,0.250000X0.250000X0.475000X-0.250000X0.475000X-0.250000X-0.475000X0.250000X-0.475000X0*%
%TD*%
%TA.AperFunction,SMDPad,CuDef*%
%ADD25RoundRect,0.250000X-0.262500X-0.450000X0.262500X-0.450000X0.262500X0.450000X-0.262500X0.450000X0*%
%TD*%
%TA.AperFunction,SMDPad,CuDef*%
%ADD26R,1.400000X1.200000*%
%TD*%
%TA.AperFunction,SMDPad,CuDef*%
%ADD27RoundRect,0.250000X0.262500X0.450000X-0.262500X0.450000X-0.262500X-0.450000X0.262500X-0.450000X0*%
%TD*%
%TA.AperFunction,ComponentPad*%
%ADD28O,1.400000X0.800000*%
%TD*%
%TA.AperFunction,SMDPad,CuDef*%
%ADD29R,0.700000X0.300000*%
%TD*%
%TA.AperFunction,SMDPad,CuDef*%
%ADD30RoundRect,0.250000X0.375000X0.625000X-0.375000X0.625000X-0.375000X-0.625000X0.375000X-0.625000X0*%
%TD*%
%TA.AperFunction,SMDPad,CuDef*%
%ADD31RoundRect,0.250000X-0.250000X-0.475000X0.250000X-0.475000X0.250000X0.475000X-0.250000X0.475000X0*%
%TD*%
%TA.AperFunction,ViaPad*%
%ADD32C,0.800000*%
%TD*%
%TA.AperFunction,Conductor*%
%ADD33C,0.254000*%
%TD*%
%TA.AperFunction,Conductor*%
%ADD34C,0.200000*%
%TD*%
G04 APERTURE END LIST*
D10*
%TO.P,MX19,1,COL*%
%TO.N,COL3*%
X85713750Y-85511249D03*
D11*
X86368750Y-84781250D03*
D12*
%TO.P,MX19,2,ROW*%
%TO.N,Net-(D19-A)*%
X91388749Y-83991249D03*
D11*
X91408750Y-83701250D03*
%TD*%
D10*
%TO.P,MX20,1,COL*%
%TO.N,COL4*%
X104713750Y-85511249D03*
D11*
X105368750Y-84781250D03*
D12*
%TO.P,MX20,2,ROW*%
%TO.N,Net-(D20-A)*%
X110388749Y-83991249D03*
D11*
X110408750Y-83701250D03*
%TD*%
D10*
%TO.P,MX25,1,COL*%
%TO.N,COL4*%
X104713750Y-104511249D03*
D11*
X105368750Y-103781250D03*
D12*
%TO.P,MX25,2,ROW*%
%TO.N,Net-(D25-A)*%
X110388749Y-102991249D03*
D11*
X110408750Y-102701250D03*
%TD*%
D10*
%TO.P,MX5,1,COL*%
%TO.N,COL4*%
X104713750Y-28511249D03*
D11*
X105368750Y-27781250D03*
D12*
%TO.P,MX5,2,ROW*%
%TO.N,Net-(D5-A)*%
X110388749Y-26991249D03*
D11*
X110408750Y-26701250D03*
%TD*%
D10*
%TO.P,MX13,1,COL*%
%TO.N,COL2*%
X66713750Y-66511249D03*
D11*
X67368750Y-65781250D03*
D12*
%TO.P,MX13,2,ROW*%
%TO.N,Net-(D13-A)*%
X72388749Y-64991249D03*
D11*
X72408750Y-64701250D03*
%TD*%
D10*
%TO.P,MX15,1,COL*%
%TO.N,COL4*%
X104713750Y-66511249D03*
D11*
X105368750Y-65781250D03*
D12*
%TO.P,MX15,2,ROW*%
%TO.N,Net-(D15-A)*%
X110388749Y-64991249D03*
D11*
X110408750Y-64701250D03*
%TD*%
D13*
%TO.P,J2,1*%
%TO.N,GND*%
X104900749Y-55901249D03*
%TO.P,J2,2*%
%TO.N,+5V*%
X106000749Y-60501249D03*
%TO.P,J2,3*%
%TO.N,Net-(J2-PadR1)*%
X110000749Y-60501249D03*
%TO.P,J2,4*%
%TO.N,Net-(J2-PadR2)*%
X113000749Y-60501249D03*
%TD*%
D10*
%TO.P,MX6,1,COL*%
%TO.N,COL0*%
X28713750Y-47511249D03*
D11*
X29368750Y-46781250D03*
D12*
%TO.P,MX6,2,ROW*%
%TO.N,Net-(D6-A)*%
X34388749Y-45991249D03*
D11*
X34408750Y-45701250D03*
%TD*%
D10*
%TO.P,MX17,1,COL*%
%TO.N,COL1*%
X47713750Y-85511249D03*
D11*
X48368750Y-84781250D03*
D12*
%TO.P,MX17,2,ROW*%
%TO.N,Net-(D17-A)*%
X53388749Y-83991249D03*
D11*
X53408750Y-83701250D03*
%TD*%
D10*
%TO.P,MX9,1,COL*%
%TO.N,COL3*%
X85713750Y-47511249D03*
D11*
X86368750Y-46781250D03*
D12*
%TO.P,MX9,2,ROW*%
%TO.N,Net-(D9-A)*%
X91388749Y-45991249D03*
D11*
X91408750Y-45701250D03*
%TD*%
D10*
%TO.P,MX2,1,COL*%
%TO.N,COL1*%
X47713750Y-28511249D03*
D11*
X48368750Y-27781250D03*
D12*
%TO.P,MX2,2,ROW*%
%TO.N,Net-(D2-A)*%
X53388749Y-26991249D03*
D11*
X53408750Y-26701250D03*
%TD*%
D14*
%TO.P,MX24,1,COL*%
%TO.N,COL3*%
X92023748Y-111051249D03*
D11*
X91368750Y-111781250D03*
D15*
%TO.P,MX24,2,ROW*%
%TO.N,Net-(D24-A)*%
X86348749Y-112571249D03*
D11*
X86328750Y-112861250D03*
%TD*%
D10*
%TO.P,MX12,1,COL*%
%TO.N,COL1*%
X47713750Y-66511249D03*
D11*
X48368750Y-65781250D03*
D12*
%TO.P,MX12,2,ROW*%
%TO.N,Net-(D12-A)*%
X53388749Y-64991249D03*
D11*
X53408750Y-64701250D03*
%TD*%
D10*
%TO.P,MX3,1,COL*%
%TO.N,COL2*%
X66713750Y-28511249D03*
D11*
X67368750Y-27781250D03*
D12*
%TO.P,MX3,2,ROW*%
%TO.N,Net-(D3-A)*%
X72388749Y-26991249D03*
D11*
X72408750Y-26701250D03*
%TD*%
D10*
%TO.P,MX7,1,COL*%
%TO.N,COL1*%
X47713750Y-47511249D03*
D11*
X48368750Y-46781250D03*
D12*
%TO.P,MX7,2,ROW*%
%TO.N,Net-(D7-A)*%
X53388749Y-45991249D03*
D11*
X53408750Y-45701250D03*
%TD*%
D10*
%TO.P,MX11,1,COL*%
%TO.N,COL0*%
X28713750Y-66511249D03*
D11*
X29368750Y-65781250D03*
D12*
%TO.P,MX11,2,ROW*%
%TO.N,Net-(D11-A)*%
X34388749Y-64991249D03*
D11*
X34408750Y-64701250D03*
%TD*%
D14*
%TO.P,MX23,1,COL*%
%TO.N,COL2*%
X73023748Y-111051249D03*
D11*
X72368750Y-111781250D03*
D15*
%TO.P,MX23,2,ROW*%
%TO.N,Net-(D23-A)*%
X67348749Y-112571249D03*
D11*
X67328750Y-112861250D03*
%TD*%
D10*
%TO.P,MX21,1,COL*%
%TO.N,COL0*%
X28713750Y-104511249D03*
D11*
X29368750Y-103781250D03*
D12*
%TO.P,MX21,2,ROW*%
%TO.N,Net-(D21-A)*%
X34388749Y-102991249D03*
D11*
X34408750Y-102701250D03*
%TD*%
D10*
%TO.P,MX1,1,COL*%
%TO.N,COL0*%
X28713750Y-28511249D03*
D11*
X29368750Y-27781250D03*
D12*
%TO.P,MX1,2,ROW*%
%TO.N,Net-(D1-A)*%
X34388749Y-26991249D03*
D11*
X34408750Y-26701250D03*
%TD*%
D10*
%TO.P,MX14,1,COL*%
%TO.N,COL3*%
X85713750Y-66511249D03*
D11*
X86368750Y-65781250D03*
D12*
%TO.P,MX14,2,ROW*%
%TO.N,Net-(D14-A)*%
X91388749Y-64991249D03*
D11*
X91408750Y-64701250D03*
%TD*%
D10*
%TO.P,MX10,1,COL*%
%TO.N,COL4*%
X104713750Y-47511249D03*
D11*
X105368750Y-46781250D03*
D16*
%TO.P,MX10,2,ROW*%
%TO.N,Net-(D10-A)*%
X110388753Y-45991249D03*
D11*
X110408750Y-45701250D03*
%TD*%
D10*
%TO.P,MX4,1,COL*%
%TO.N,COL3*%
X85713750Y-28511249D03*
D11*
X86368750Y-27781250D03*
D12*
%TO.P,MX4,2,ROW*%
%TO.N,Net-(D4-A)*%
X91388749Y-26991249D03*
D11*
X91408750Y-26701250D03*
%TD*%
D10*
%TO.P,MX8,1,COL*%
%TO.N,COL2*%
X66713750Y-47511249D03*
D11*
X67368750Y-46781250D03*
D12*
%TO.P,MX8,2,ROW*%
%TO.N,Net-(D8-A)*%
X72388749Y-45991249D03*
D11*
X72408750Y-45701250D03*
%TD*%
D10*
%TO.P,MX18,1,COL*%
%TO.N,COL2*%
X66713750Y-85511249D03*
D11*
X67368750Y-84781250D03*
D12*
%TO.P,MX18,2,ROW*%
%TO.N,Net-(D18-A)*%
X72388749Y-83991249D03*
D11*
X72408750Y-83701250D03*
%TD*%
D10*
%TO.P,MX16,1,COL*%
%TO.N,COL0*%
X28713750Y-85511249D03*
D11*
X29368750Y-84781250D03*
D12*
%TO.P,MX16,2,ROW*%
%TO.N,Net-(D16-A)*%
X34388749Y-83991249D03*
D11*
X34408750Y-83701250D03*
%TD*%
D10*
%TO.P,MX22,1,COL*%
%TO.N,COL1*%
X47713750Y-104511249D03*
D11*
X48368750Y-103781250D03*
D12*
%TO.P,MX22,2,ROW*%
%TO.N,Net-(D22-A)*%
X53388749Y-102991249D03*
D11*
X53408750Y-102701250D03*
%TD*%
D17*
%TO.P,U2,1,PE6*%
%TO.N,unconnected-(U2-PE6-Pad1)*%
X83751749Y-103525249D03*
%TO.P,U2,2,UVCC*%
%TO.N,+5V*%
X82951749Y-103525249D03*
%TO.P,U2,3,D-*%
%TO.N,D-*%
X82151749Y-103525249D03*
%TO.P,U2,4,D+*%
%TO.N,D+*%
X81351749Y-103525249D03*
%TO.P,U2,5,UGND*%
%TO.N,GND*%
X80551749Y-103525249D03*
%TO.P,U2,6,UCAP*%
%TO.N,Net-(U2-UCAP)*%
X79751749Y-103525249D03*
%TO.P,U2,7,VBUS*%
%TO.N,+5V*%
X78951749Y-103525249D03*
%TO.P,U2,8,PB0*%
%TO.N,unconnected-(U2-PB0-Pad8)*%
X78151749Y-103525249D03*
%TO.P,U2,9,PB1*%
%TO.N,unconnected-(U2-PB1-Pad9)*%
X77351749Y-103525249D03*
%TO.P,U2,10,PB2*%
%TO.N,unconnected-(U2-PB2-Pad10)*%
X76551749Y-103525249D03*
%TO.P,U2,11,PB3*%
%TO.N,unconnected-(U2-PB3-Pad11)*%
X75751749Y-103525249D03*
D18*
%TO.P,U2,12,PB7*%
%TO.N,unconnected-(U2-PB7-Pad12)*%
X74051749Y-101825249D03*
%TO.P,U2,13,~{RESET}*%
%TO.N,Net-(U2-~{RESET})*%
X74051749Y-101025249D03*
%TO.P,U2,14,VCC*%
%TO.N,+5V*%
X74051749Y-100225249D03*
%TO.P,U2,15,GND*%
%TO.N,GND*%
X74051749Y-99425249D03*
%TO.P,U2,16,XTAL2*%
%TO.N,Net-(U2-XTAL2)*%
X74051749Y-98625249D03*
%TO.P,U2,17,XTAL1*%
%TO.N,Net-(U2-XTAL1)*%
X74051749Y-97825249D03*
%TO.P,U2,18,PD0*%
%TO.N,unconnected-(U2-PD0-Pad18)*%
X74051749Y-97025249D03*
%TO.P,U2,19,PD1*%
%TO.N,unconnected-(U2-PD1-Pad19)*%
X74051749Y-96225249D03*
%TO.P,U2,20,PD2*%
%TO.N,RX*%
X74051749Y-95425249D03*
%TO.P,U2,21,PD3*%
%TO.N,TX*%
X74051749Y-94625249D03*
%TO.P,U2,22,PD5*%
%TO.N,unconnected-(U2-PD5-Pad22)*%
X74051749Y-93825249D03*
D17*
%TO.P,U2,23,GND*%
%TO.N,GND*%
X75751749Y-92125249D03*
%TO.P,U2,24,AVCC*%
%TO.N,+5V*%
X76551749Y-92125249D03*
%TO.P,U2,25,PD4*%
%TO.N,COL0*%
X77351749Y-92125249D03*
%TO.P,U2,26,PD6*%
%TO.N,COL1*%
X78151749Y-92125249D03*
%TO.P,U2,27,PD7*%
%TO.N,COL2*%
X78951749Y-92125249D03*
%TO.P,U2,28,PB4*%
%TO.N,COL3*%
X79751749Y-92125249D03*
%TO.P,U2,29,PB5*%
%TO.N,COL4*%
X80551749Y-92125249D03*
%TO.P,U2,30,PB6*%
%TO.N,unconnected-(U2-PB6-Pad30)*%
X81351749Y-92125249D03*
%TO.P,U2,31,PC6*%
%TO.N,unconnected-(U2-PC6-Pad31)*%
X82151749Y-92125249D03*
%TO.P,U2,32,PC7*%
%TO.N,unconnected-(U2-PC7-Pad32)*%
X82951749Y-92125249D03*
%TO.P,U2,33,~{HWB}/PE2*%
%TO.N,Net-(U2-~{HWB}{slash}PE2)*%
X83751749Y-92125249D03*
D18*
%TO.P,U2,34,VCC*%
%TO.N,+5V*%
X85451749Y-93825249D03*
%TO.P,U2,35,GND*%
%TO.N,GND*%
X85451749Y-94625249D03*
%TO.P,U2,36,PF7*%
%TO.N,unconnected-(U2-PF7-Pad36)*%
X85451749Y-95425249D03*
%TO.P,U2,37,PF6*%
%TO.N,ROW0*%
X85451749Y-96225249D03*
%TO.P,U2,38,PF5*%
%TO.N,ROW1*%
X85451749Y-97025249D03*
%TO.P,U2,39,PF4*%
%TO.N,ROW2*%
X85451749Y-97825249D03*
%TO.P,U2,40,PF1*%
%TO.N,ROW3*%
X85451749Y-98625249D03*
%TO.P,U2,41,PF0*%
%TO.N,ROW4*%
X85451749Y-99425249D03*
%TO.P,U2,42,AREF*%
%TO.N,unconnected-(U2-AREF-Pad42)*%
X85451749Y-100225249D03*
%TO.P,U2,43,GND*%
%TO.N,GND*%
X85451749Y-101025249D03*
%TO.P,U2,44,AVCC*%
%TO.N,+5V*%
X85451749Y-101825249D03*
%TD*%
D19*
%TO.P,R5,1*%
%TO.N,Net-(J1-CC1)*%
X101600000Y-38893750D03*
%TO.P,R5,2*%
%TO.N,GND*%
X101600000Y-37068750D03*
%TD*%
D20*
%TO.P,R8,1*%
%TO.N,Net-(J1-D+-PadA6)*%
X101600000Y-42068750D03*
%TO.P,R8,2*%
%TO.N,D+*%
X101600000Y-43893750D03*
%TD*%
D21*
%TO.P,C2,1*%
%TO.N,+5V*%
X94234000Y-102706250D03*
%TO.P,C2,2*%
%TO.N,GND*%
X94234000Y-100806250D03*
%TD*%
%TO.P,C4,1*%
%TO.N,+5V*%
X96774000Y-102706250D03*
%TO.P,C4,2*%
%TO.N,GND*%
X96774000Y-100806250D03*
%TD*%
D19*
%TO.P,R6,1*%
%TO.N,Net-(J1-CC2)*%
X103759000Y-38917250D03*
%TO.P,R6,2*%
%TO.N,GND*%
X103759000Y-37092250D03*
%TD*%
D22*
%TO.P,SW1,1,1*%
%TO.N,GND*%
X54914749Y-93582249D03*
%TO.P,SW1,2,2*%
%TO.N,Net-(U2-~{RESET})*%
X58614749Y-99782249D03*
%TO.P,SW1,3*%
%TO.N,N/C*%
X58614749Y-93582249D03*
%TO.P,SW1,4*%
X54914749Y-99782249D03*
%TD*%
D23*
%TO.P,C5,1*%
%TO.N,GND*%
X89154000Y-100806250D03*
%TO.P,C5,2*%
%TO.N,+5V*%
X89154000Y-102706250D03*
%TD*%
D24*
%TO.P,C6,1*%
%TO.N,Net-(U2-XTAL2)*%
X68321750Y-102651250D03*
%TO.P,C6,2*%
%TO.N,GND*%
X66421750Y-102651250D03*
%TD*%
D25*
%TO.P,R4,1*%
%TO.N,+5V*%
X61000000Y-101219000D03*
%TO.P,R4,2*%
%TO.N,Net-(U2-~{RESET})*%
X62825000Y-101219000D03*
%TD*%
D26*
%TO.P,Y1,1,1*%
%TO.N,Net-(U2-XTAL2)*%
X68448749Y-99271249D03*
%TO.P,Y1,2,2*%
%TO.N,GND*%
X66248749Y-99271249D03*
%TO.P,Y1,3,3*%
%TO.N,Net-(U2-XTAL1)*%
X66248749Y-97571249D03*
%TO.P,Y1,4,4*%
%TO.N,GND*%
X68448749Y-97571249D03*
%TD*%
D27*
%TO.P,R10,1*%
%TO.N,Net-(J2-PadR1)*%
X102512500Y-58737500D03*
%TO.P,R10,2*%
%TO.N,TX*%
X100687500Y-58737500D03*
%TD*%
D21*
%TO.P,C7,1*%
%TO.N,GND*%
X66040000Y-94930000D03*
%TO.P,C7,2*%
%TO.N,Net-(U2-XTAL1)*%
X66040000Y-93030000D03*
%TD*%
D28*
%TO.P,J1,S1,SHIELD*%
%TO.N,N/C*%
X115738749Y-45419249D03*
%TO.N,Net-(D10-A)*%
X109788749Y-45059249D03*
%TO.N,N/C*%
X109788749Y-36799249D03*
X115738749Y-36439249D03*
D29*
%TO.P,J1,B12,GND*%
%TO.N,GND*%
X109578749Y-37929249D03*
%TO.P,J1,B11*%
%TO.N,N/C*%
X109578749Y-38429249D03*
%TO.P,J1,B10*%
X109578749Y-38929249D03*
%TO.P,J1,B9,VBUS*%
%TO.N,VCC*%
X109578749Y-39429249D03*
%TO.P,J1,B8,SBU2*%
%TO.N,unconnected-(J1-SBU2-PadB8)*%
X109578749Y-39929249D03*
%TO.P,J1,B7,D-*%
%TO.N,Net-(J1-D--PadA7)*%
X109578749Y-40429249D03*
%TO.P,J1,B6,D+*%
%TO.N,Net-(J1-D+-PadA6)*%
X109578749Y-40929249D03*
%TO.P,J1,B5,CC2*%
%TO.N,Net-(J1-CC2)*%
X109578749Y-41429249D03*
%TO.P,J1,B4,VBUS*%
%TO.N,VCC*%
X109578749Y-41929249D03*
%TO.P,J1,B3*%
%TO.N,N/C*%
X109578749Y-42429249D03*
%TO.P,J1,B2*%
X109578749Y-42929249D03*
%TO.P,J1,B1,GND*%
%TO.N,GND*%
X109578749Y-43429249D03*
%TO.P,J1,A12,GND*%
X107878749Y-43679249D03*
%TO.P,J1,A11*%
%TO.N,N/C*%
X107878749Y-43179249D03*
%TO.P,J1,A10*%
X107878749Y-42679249D03*
%TO.P,J1,A9,VBUS*%
%TO.N,VCC*%
X107878749Y-42179249D03*
%TO.P,J1,A8,SBU1*%
%TO.N,unconnected-(J1-SBU1-PadA8)*%
X107878749Y-41679249D03*
%TO.P,J1,A7,D-*%
%TO.N,Net-(J1-D--PadA7)*%
X107878749Y-41179249D03*
%TO.P,J1,A6,D+*%
%TO.N,Net-(J1-D+-PadA6)*%
X107878749Y-40679249D03*
%TO.P,J1,A5,CC1*%
%TO.N,Net-(J1-CC1)*%
X107878749Y-40179249D03*
%TO.P,J1,A4,VBUS*%
%TO.N,VCC*%
X107878749Y-39679249D03*
%TO.P,J1,A3*%
%TO.N,N/C*%
X107878749Y-39179249D03*
%TO.P,J1,A2*%
X107878749Y-38679249D03*
%TO.P,J1,A1,GND*%
%TO.N,GND*%
X107878749Y-38179249D03*
%TD*%
D20*
%TO.P,R7,1*%
%TO.N,Net-(J1-D--PadA7)*%
X103759000Y-42068750D03*
%TO.P,R7,2*%
%TO.N,D-*%
X103759000Y-43893750D03*
%TD*%
D27*
%TO.P,R9,1*%
%TO.N,Net-(J2-PadR2)*%
X102512500Y-56578500D03*
%TO.P,R9,2*%
%TO.N,RX*%
X100687500Y-56578500D03*
%TD*%
D30*
%TO.P,F1,1*%
%TO.N,VCC*%
X96653000Y-38862000D03*
%TO.P,F1,2*%
%TO.N,+5V*%
X93853000Y-38862000D03*
%TD*%
D23*
%TO.P,C3,1*%
%TO.N,GND*%
X91821000Y-100806250D03*
%TO.P,C3,2*%
%TO.N,+5V*%
X91821000Y-102706250D03*
%TD*%
D31*
%TO.P,C1,1*%
%TO.N,Net-(U2-UCAP)*%
X79218750Y-107156250D03*
%TO.P,C1,2*%
%TO.N,GND*%
X81118750Y-107156250D03*
%TD*%
D20*
%TO.P,R1,1*%
%TO.N,Net-(U2-~{HWB}{slash}PE2)*%
X89022750Y-92848750D03*
%TO.P,R1,2*%
%TO.N,GND*%
X89022750Y-94673750D03*
%TD*%
D32*
%TO.N,+5V*%
X78252000Y-105229000D03*
X90678000Y-96012000D03*
X87625000Y-102706250D03*
X77488500Y-60706000D03*
%TO.N,GND*%
X92329000Y-43053000D03*
%TO.N,ROW0*%
X95250000Y-45720000D03*
%TO.N,TX*%
X96587789Y-94396500D03*
%TO.N,RX*%
X97536000Y-94742000D03*
X72517000Y-95487503D03*
%TO.N,TX*%
X72517000Y-94488000D03*
%TO.N,+5V*%
X71501000Y-105229000D03*
%TO.N,Net-(U2-XTAL1)*%
X64389000Y-94681000D03*
X70777750Y-93762177D03*
%TO.N,+5V*%
X73751500Y-90078500D03*
%TO.N,GND*%
X83349317Y-43464096D03*
%TO.N,+5V*%
X93853000Y-43815000D03*
%TO.N,VCC*%
X110617000Y-42155750D03*
X110617006Y-39703011D03*
%TO.N,Net-(J1-D--PadA7)*%
X105537000Y-42037000D03*
X110617000Y-40702513D03*
%TO.N,+5V*%
X71501000Y-100225250D03*
X83185000Y-44450000D03*
%TO.N,ROW0*%
X95758000Y-61722000D03*
X100203000Y-66167000D03*
X99978500Y-96313555D03*
X94608354Y-96386245D03*
%TO.N,ROW1*%
X100639245Y-97063500D03*
X101215540Y-66152113D03*
X95309312Y-97098750D03*
%TO.N,ROW2*%
X101346000Y-97790000D03*
X101432000Y-74676000D03*
X96043750Y-97790000D03*
%TO.N,ROW3*%
X95396424Y-98551750D03*
%TO.N,ROW4*%
X94777874Y-99336862D03*
%TO.N,VCC*%
X100012500Y-38893750D03*
X105568750Y-38893750D03*
%TO.N,COL0*%
X77351750Y-81320500D03*
X30956250Y-80962500D03*
%TO.N,COL1*%
X78151750Y-80533000D03*
X50800000Y-80594000D03*
%TO.N,COL2*%
X69850000Y-80140000D03*
X78951750Y-79745500D03*
%TO.N,COL3*%
X84137500Y-80646750D03*
X79751750Y-80585750D03*
X99524500Y-82211311D03*
%TO.N,COL4*%
X80551750Y-81373250D03*
X103187500Y-80962500D03*
%TO.N,D+*%
X99218750Y-50800000D03*
X99218750Y-43942000D03*
%TO.N,Net-(J1-CC2)*%
X105370000Y-37306250D03*
X113506250Y-41275000D03*
%TO.N,RX*%
X100806250Y-53975000D03*
X96837500Y-57737997D03*
%TO.N,TX*%
X96837500Y-58737500D03*
X100806250Y-61118750D03*
%TD*%
D33*
%TO.N,+5V*%
X82951750Y-104529250D02*
X83024750Y-104602250D01*
X83024750Y-104602250D02*
X84246750Y-104602250D01*
X82951750Y-103525250D02*
X82951750Y-104529250D01*
X90678000Y-94178500D02*
X90678000Y-96012000D01*
X90324750Y-93825250D02*
X90678000Y-94178500D01*
X85451750Y-93825250D02*
X90324750Y-93825250D01*
D34*
%TO.N,D+*%
X81351750Y-104475250D02*
X81351750Y-103525250D01*
X82305500Y-105429000D02*
X81351750Y-104475250D01*
X96749186Y-105429000D02*
X82305500Y-105429000D01*
X98825000Y-103353185D02*
X96749186Y-105429000D01*
X99218750Y-50800000D02*
X98825000Y-51193750D01*
X98825000Y-51193750D02*
X98825000Y-103353185D01*
D33*
%TO.N,+5V*%
X78951750Y-104529250D02*
X78951750Y-103525250D01*
%TO.N,GND*%
X103759000Y-36322000D02*
X103759000Y-37092250D01*
X105664000Y-35814000D02*
X104267000Y-35814000D01*
X104267000Y-35814000D02*
X103759000Y-36322000D01*
X106553000Y-36703000D02*
X105664000Y-35814000D01*
X106553000Y-37973000D02*
X106553000Y-36703000D01*
X107878750Y-38179250D02*
X106759250Y-38179250D01*
X106759250Y-38179250D02*
X106553000Y-37973000D01*
%TO.N,Net-(J1-CC2)*%
X105370000Y-37306250D02*
X103759000Y-38917250D01*
%TO.N,GND*%
X66548000Y-91567000D02*
X67437000Y-92456000D01*
X60960000Y-91567000D02*
X66548000Y-91567000D01*
X56422000Y-92075000D02*
X56930000Y-91567000D01*
X56930000Y-91567000D02*
X60960000Y-91567000D01*
X54914750Y-93582250D02*
X56422000Y-92075000D01*
X70104000Y-92583000D02*
X69596000Y-92583000D01*
X71882000Y-90805000D02*
X70104000Y-92583000D01*
X73342500Y-90805000D02*
X71882000Y-90805000D01*
X75565000Y-90805000D02*
X73342500Y-90805000D01*
X73342500Y-90805000D02*
X73025000Y-90487500D01*
%TO.N,+5V*%
X73843000Y-90170000D02*
X76551750Y-90170000D01*
X76551750Y-90170000D02*
X76551750Y-84103250D01*
X73751500Y-90078500D02*
X73843000Y-90170000D01*
X76551750Y-92125250D02*
X76551750Y-90170000D01*
X87625000Y-102706250D02*
X86744000Y-101825250D01*
X77488500Y-60706000D02*
X77216000Y-60706000D01*
X77216000Y-60706000D02*
X77216000Y-45212000D01*
X77216000Y-80428116D02*
X77216000Y-60706000D01*
%TO.N,Net-(J1-D--PadA7)*%
X103790750Y-42037000D02*
X103759000Y-42068750D01*
X105537000Y-42037000D02*
X103790750Y-42037000D01*
%TO.N,GND*%
X92329000Y-37592000D02*
X92329000Y-43053000D01*
X92837000Y-37084000D02*
X92329000Y-37592000D01*
X101584750Y-37084000D02*
X92837000Y-37084000D01*
X101600000Y-37068750D02*
X101584750Y-37084000D01*
%TO.N,ROW0*%
X95250000Y-61214000D02*
X95758000Y-61722000D01*
X95250000Y-45720000D02*
X95250000Y-61214000D01*
%TO.N,+5V*%
X74051750Y-100225250D02*
X71501000Y-100225250D01*
%TO.N,GND*%
X104900750Y-50396291D02*
X104900750Y-55901250D01*
X106820389Y-48476652D02*
X104900750Y-50396291D01*
X106786107Y-46102180D02*
X106820389Y-46735275D01*
X106820389Y-46735275D02*
X106820389Y-48476652D01*
X106786107Y-44771893D02*
X106786107Y-46102180D01*
X107878750Y-43679250D02*
X106786107Y-44771893D01*
%TO.N,RX*%
X96866131Y-57737997D02*
X96837500Y-57737997D01*
X97998000Y-58869866D02*
X96866131Y-57737997D01*
X97536000Y-94742000D02*
X97998000Y-94280000D01*
X97998000Y-94280000D02*
X97998000Y-58869866D01*
%TO.N,TX*%
X97544000Y-59444000D02*
X96837500Y-58737500D01*
X96587789Y-94396500D02*
X97544000Y-93440289D01*
X97544000Y-93440289D02*
X97544000Y-59444000D01*
%TO.N,RX*%
X72579253Y-95425250D02*
X72517000Y-95487503D01*
X74051750Y-95425250D02*
X72579253Y-95425250D01*
%TO.N,TX*%
X72654250Y-94625250D02*
X72517000Y-94488000D01*
X74051750Y-94625250D02*
X72654250Y-94625250D01*
%TO.N,+5V*%
X71501000Y-105229000D02*
X78252000Y-105229000D01*
X63311948Y-105229000D02*
X71501000Y-105229000D01*
%TO.N,Net-(U2-XTAL1)*%
X64389000Y-96901000D02*
X64389000Y-94681000D01*
X66248750Y-97571250D02*
X65059250Y-97571250D01*
X65059250Y-97571250D02*
X64389000Y-96901000D01*
X70777750Y-95555250D02*
X70777750Y-93762177D01*
X73047750Y-97825250D02*
X70777750Y-95555250D01*
X74051750Y-97825250D02*
X73047750Y-97825250D01*
%TO.N,Net-(U2-~{RESET})*%
X73047750Y-101025250D02*
X74051750Y-101025250D01*
X70358000Y-104775000D02*
X70866000Y-104267000D01*
X70866000Y-103207000D02*
X73047750Y-101025250D01*
X63500000Y-104775000D02*
X70358000Y-104775000D01*
X62738000Y-104013000D02*
X63500000Y-104775000D01*
X62738000Y-101600000D02*
X62738000Y-104013000D01*
X70866000Y-104267000D02*
X70866000Y-103207000D01*
%TO.N,+5V*%
X78252000Y-105229000D02*
X78951750Y-104529250D01*
X60960000Y-102877052D02*
X63311948Y-105229000D01*
X60960000Y-101473000D02*
X60960000Y-102877052D01*
X77978000Y-44450000D02*
X83185000Y-44450000D01*
X77216000Y-45212000D02*
X77978000Y-44450000D01*
X76624750Y-81019366D02*
X77216000Y-80428116D01*
X76551750Y-84103250D02*
X76624750Y-84030250D01*
X76624750Y-84030250D02*
X76624750Y-81019366D01*
%TO.N,GND*%
X75751750Y-90991750D02*
X75565000Y-90805000D01*
X75751750Y-92125250D02*
X75751750Y-90991750D01*
%TO.N,Net-(U2-~{RESET})*%
X61388250Y-99782250D02*
X62825000Y-101219000D01*
X58614750Y-99782250D02*
X61388250Y-99782250D01*
D34*
%TO.N,D-*%
X96583500Y-105029000D02*
X98425000Y-103187500D01*
X98425000Y-103187500D02*
X98425000Y-49227750D01*
X82705500Y-105029000D02*
X96583500Y-105029000D01*
X82151750Y-104475250D02*
X82705500Y-105029000D01*
X98425000Y-49227750D02*
X103759000Y-43893750D01*
X82151750Y-103525250D02*
X82151750Y-104475250D01*
D33*
%TO.N,+5V*%
X84246750Y-104602250D02*
X85451750Y-103397250D01*
X85451750Y-103397250D02*
X85451750Y-101825250D01*
%TO.N,Net-(U2-XTAL1)*%
X64389000Y-94681000D02*
X66040000Y-93030000D01*
%TO.N,GND*%
X73025000Y-86838750D02*
X73025000Y-90487500D01*
X76170750Y-80831313D02*
X76170750Y-83693000D01*
X76762000Y-80240064D02*
X76170750Y-80831313D01*
X76170750Y-83693000D02*
X73025000Y-86838750D01*
X82827904Y-43464096D02*
X82296000Y-43996000D01*
X76762000Y-45023948D02*
X76762000Y-80240064D01*
X83349317Y-43464096D02*
X82827904Y-43464096D01*
X82296000Y-43996000D02*
X77789947Y-43996000D01*
X77789947Y-43996000D02*
X76762000Y-45023948D01*
D34*
%TO.N,D+*%
X99218750Y-43942000D02*
X101551750Y-43942000D01*
X101551750Y-43942000D02*
X101600000Y-43893750D01*
D33*
%TO.N,+5V*%
X93853000Y-38862000D02*
X93853000Y-43596500D01*
%TO.N,VCC*%
X96684750Y-38893750D02*
X96653000Y-38862000D01*
X100012500Y-38893750D02*
X96684750Y-38893750D01*
X110390500Y-41929250D02*
X109578750Y-41929250D01*
X110617000Y-42155750D02*
X110390500Y-41929250D01*
%TO.N,Net-(J1-D--PadA7)*%
X110343737Y-40429250D02*
X109578750Y-40429250D01*
X110617000Y-40702513D02*
X110343737Y-40429250D01*
%TO.N,VCC*%
X110343245Y-39429250D02*
X109578750Y-39429250D01*
X110617006Y-39703011D02*
X110343245Y-39429250D01*
%TO.N,Net-(J1-D--PadA7)*%
X106553000Y-41179250D02*
X107878750Y-41179250D01*
X104648500Y-41179250D02*
X106553000Y-41179250D01*
%TO.N,Net-(J1-D+-PadA6)*%
X108532750Y-40679250D02*
X107878750Y-40679250D01*
X108782750Y-40929250D02*
X108532750Y-40679250D01*
X109578750Y-40929250D02*
X108782750Y-40929250D01*
%TO.N,GND*%
X109604103Y-37903897D02*
X109578750Y-37929250D01*
%TO.N,Net-(U2-UCAP)*%
X79751750Y-105192000D02*
X79751750Y-103525250D01*
X79218750Y-107156250D02*
X79218750Y-105725000D01*
X79218750Y-105725000D02*
X79751750Y-105192000D01*
%TO.N,GND*%
X88974250Y-94625250D02*
X89022750Y-94673750D01*
X89154000Y-100806250D02*
X87312500Y-100806250D01*
X87093500Y-101025250D02*
X85451750Y-101025250D01*
X87312500Y-100806250D02*
X87093500Y-101025250D01*
X96774000Y-100806250D02*
X94234000Y-100806250D01*
X66421750Y-102651250D02*
X66248750Y-102478250D01*
X85451750Y-94625250D02*
X88974250Y-94625250D01*
X107878750Y-38179250D02*
X107836750Y-38137250D01*
X101623500Y-37092250D02*
X101600000Y-37068750D01*
X66648750Y-99271250D02*
X66248750Y-99271250D01*
X68448750Y-97571250D02*
X68348750Y-97571250D01*
X80551750Y-105158000D02*
X80551750Y-103525250D01*
X103759000Y-37092250D02*
X101623500Y-37092250D01*
X81118750Y-105725000D02*
X80551750Y-105158000D01*
X81118750Y-107156250D02*
X81118750Y-105725000D01*
X91821000Y-100806250D02*
X89154000Y-100806250D01*
X94234000Y-100806250D02*
X91821000Y-100806250D01*
%TO.N,+5V*%
X94234000Y-102706250D02*
X91821000Y-102706250D01*
X96774000Y-102706250D02*
X94234000Y-102706250D01*
X91821000Y-102706250D02*
X89154000Y-102706250D01*
X87625000Y-102706250D02*
X89154000Y-102706250D01*
X85451750Y-101825250D02*
X86744000Y-101825250D01*
%TO.N,Net-(U2-XTAL2)*%
X72031000Y-98625250D02*
X71385000Y-99271250D01*
X68448750Y-102524250D02*
X68448750Y-99271250D01*
X74051750Y-98625250D02*
X72031000Y-98625250D01*
X71385000Y-99271250D02*
X68448750Y-99271250D01*
X68321750Y-102651250D02*
X68448750Y-102524250D01*
%TO.N,ROW0*%
X86890401Y-96878599D02*
X86929052Y-96917250D01*
X100251500Y-66215500D02*
X100203000Y-66167000D01*
X99978500Y-96313555D02*
X99706000Y-96041055D01*
X90043000Y-96917250D02*
X94077349Y-96917250D01*
X85451750Y-96225250D02*
X86237052Y-96225250D01*
X99825634Y-82938311D02*
X100251500Y-82512445D01*
X86237052Y-96225250D02*
X86890401Y-96878599D01*
X99706000Y-83047000D02*
X99814689Y-82938311D01*
X94077349Y-96917250D02*
X94608354Y-96386245D01*
X100251500Y-82512445D02*
X100251500Y-66215500D01*
X86929052Y-96917250D02*
X90043000Y-96917250D01*
X99814689Y-82938311D02*
X99825634Y-82938311D01*
X99706000Y-96041055D02*
X99706000Y-83047000D01*
%TO.N,ROW1*%
X86395000Y-97025250D02*
X86741000Y-97371250D01*
X100160000Y-95319500D02*
X100160000Y-83245998D01*
X100705500Y-96997245D02*
X100705500Y-95865000D01*
X100705500Y-66692634D02*
X100930000Y-66468134D01*
X100705500Y-82700498D02*
X100705500Y-66692634D01*
X94615000Y-97371250D02*
X95036812Y-97371250D01*
X100639245Y-97063500D02*
X100705500Y-96997245D01*
X100930000Y-66437653D02*
X101215540Y-66152113D01*
X100930000Y-66468134D02*
X100930000Y-66437653D01*
X86741000Y-97371250D02*
X94615000Y-97371250D01*
X100705500Y-95865000D02*
X100160000Y-95319500D01*
X100160000Y-83245998D02*
X100705500Y-82700498D01*
X85451750Y-97025250D02*
X86395000Y-97025250D01*
X95036812Y-97371250D02*
X95309312Y-97098750D01*
%TO.N,ROW2*%
X101159500Y-74948500D02*
X101432000Y-74676000D01*
X100614000Y-83566000D02*
X100614000Y-83434050D01*
X101366245Y-97769755D02*
X101366245Y-95883693D01*
X100614000Y-95131448D02*
X100614000Y-91283000D01*
X96008500Y-97825250D02*
X85451750Y-97825250D01*
X101366245Y-95883693D02*
X100614000Y-95131448D01*
X96043750Y-97790000D02*
X96008500Y-97825250D01*
X101159500Y-82888550D02*
X101159500Y-82169000D01*
X100614000Y-91283000D02*
X100614000Y-83977000D01*
X100614000Y-83434050D02*
X100914025Y-83134025D01*
X101346000Y-97790000D02*
X101366245Y-97769755D01*
X100914025Y-83134025D02*
X101159500Y-82888550D01*
X100614000Y-83977000D02*
X100614000Y-83566000D01*
X101159500Y-82169000D02*
X101159500Y-74948500D01*
%TO.N,ROW3*%
X86614000Y-98279250D02*
X95123924Y-98279250D01*
X85451750Y-98625250D02*
X86268000Y-98625250D01*
X95123924Y-98279250D02*
X95396424Y-98551750D01*
X86268000Y-98625250D02*
X86614000Y-98279250D01*
%TO.N,ROW4*%
X85451750Y-99425250D02*
X86303000Y-99425250D01*
X91059000Y-98733250D02*
X94174262Y-98733250D01*
X86995000Y-98733250D02*
X90877750Y-98733250D01*
X86303000Y-99425250D02*
X86995000Y-98733250D01*
X94174262Y-98733250D02*
X94777874Y-99336862D01*
X90877750Y-98733250D02*
X91059000Y-98733250D01*
%TO.N,VCC*%
X106354250Y-39679250D02*
X105568750Y-38893750D01*
X107878750Y-42179250D02*
X108674750Y-42179250D01*
X108674750Y-39679250D02*
X108924750Y-39429250D01*
X107878750Y-39679250D02*
X108674750Y-39679250D01*
X108674750Y-42179250D02*
X108924750Y-41929250D01*
X108924750Y-39429250D02*
X109578750Y-39429250D01*
X107878750Y-39679250D02*
X106354250Y-39679250D01*
X108924750Y-41929250D02*
X109578750Y-41929250D01*
%TO.N,COL0*%
X29368750Y-46781250D02*
X29368750Y-65781250D01*
X29368750Y-27781250D02*
X29368750Y-46781250D01*
X77351750Y-91246250D02*
X77351750Y-92125250D01*
X29368750Y-80962500D02*
X29368750Y-84781250D01*
X78043750Y-82012500D02*
X78043750Y-90554250D01*
X77351750Y-81320500D02*
X78043750Y-82012500D01*
X78043750Y-90554250D02*
X77351750Y-91246250D01*
X29368750Y-84781250D02*
X29368750Y-103781250D01*
X29368750Y-65781250D02*
X29368750Y-80962500D01*
X30956250Y-80962500D02*
X29368750Y-80962500D01*
%TO.N,COL1*%
X48368750Y-80168750D02*
X48368750Y-80962500D01*
X48368750Y-84781250D02*
X48368750Y-103781250D01*
X78497750Y-91048250D02*
X78151750Y-91394250D01*
X48368750Y-65781250D02*
X48368750Y-80168750D01*
X50800000Y-80594000D02*
X48368750Y-80594000D01*
X48368750Y-80594000D02*
X48368750Y-80962500D01*
X48368750Y-27781250D02*
X48368750Y-46781250D01*
X48368750Y-46781250D02*
X48368750Y-65781250D01*
X48368750Y-80962500D02*
X48368750Y-84781250D01*
X78151750Y-91394250D02*
X78151750Y-92125250D01*
X78497750Y-80879000D02*
X78497750Y-91048250D01*
X78151750Y-80533000D02*
X78497750Y-80879000D01*
%TO.N,COL2*%
X52751596Y-104771189D02*
X51593750Y-103613343D01*
X56633750Y-86241250D02*
X66058750Y-86241250D01*
X67368750Y-27781250D02*
X67368750Y-46781250D01*
X60259345Y-110321250D02*
X54709284Y-104771189D01*
X54696750Y-88900000D02*
X54696750Y-88178250D01*
X69850000Y-80140000D02*
X67397500Y-80140000D01*
X67368750Y-65781250D02*
X67368750Y-80168750D01*
X54696750Y-88178250D02*
X56633750Y-86241250D01*
X67368750Y-80168750D02*
X67368750Y-84781250D01*
X78951750Y-79745500D02*
X78951750Y-92125250D01*
X51593750Y-92003000D02*
X54696750Y-88900000D01*
X67368750Y-46781250D02*
X67368750Y-65781250D01*
X67397500Y-80140000D02*
X67368750Y-80168750D01*
X73678750Y-110321250D02*
X60259345Y-110321250D01*
X51593750Y-103613343D02*
X51593750Y-92003000D01*
X54709284Y-104771189D02*
X52751596Y-104771189D01*
%TO.N,COL3*%
X86368750Y-80168750D02*
X86368750Y-65781250D01*
X79405750Y-91048250D02*
X79751750Y-91394250D01*
X99524500Y-82211311D02*
X99252000Y-82483811D01*
X79405750Y-80931750D02*
X79405750Y-91048250D01*
X99252000Y-82483811D02*
X99252000Y-104248595D01*
X86368750Y-80646750D02*
X86368750Y-80962500D01*
X79751750Y-80585750D02*
X79405750Y-80931750D01*
X86368750Y-65781250D02*
X86368750Y-46781250D01*
X86368750Y-84781250D02*
X86368750Y-80962500D01*
X99252000Y-104248595D02*
X93179345Y-110321250D01*
X93179345Y-110321250D02*
X92678750Y-110321250D01*
X84137500Y-80646750D02*
X86368750Y-80646750D01*
X86368750Y-80962500D02*
X86368750Y-80168750D01*
X86368750Y-46781250D02*
X86368750Y-27781250D01*
X79751750Y-91394250D02*
X79751750Y-92125250D01*
%TO.N,COL4*%
X79859750Y-90554250D02*
X80551750Y-91246250D01*
X105368750Y-84781250D02*
X105368750Y-103781250D01*
X104058750Y-67241250D02*
X99252000Y-62434500D01*
X103558155Y-48241250D02*
X104058750Y-48241250D01*
X105368750Y-65781250D02*
X105368750Y-80962500D01*
X80551750Y-81373250D02*
X79859750Y-82065250D01*
X80551750Y-91246250D02*
X80551750Y-92125250D01*
X99252000Y-52547405D02*
X103558155Y-48241250D01*
X99252000Y-62434500D02*
X99252000Y-52547405D01*
X105368750Y-80962500D02*
X105368750Y-84781250D01*
X103187500Y-80962500D02*
X105368750Y-80962500D01*
X79859750Y-82065250D02*
X79859750Y-90554250D01*
%TO.N,Net-(U2-~{HWB}{slash}PE2)*%
X84137500Y-90487500D02*
X86518750Y-90487500D01*
X83751750Y-90873250D02*
X84137500Y-90487500D01*
X83751750Y-92125250D02*
X83751750Y-90873250D01*
X88880000Y-92848750D02*
X89022750Y-92848750D01*
X86518750Y-90487500D02*
X88880000Y-92848750D01*
%TO.N,Net-(J1-CC1)*%
X107878750Y-40179250D02*
X102091750Y-40179250D01*
X102091750Y-40179250D02*
X101600000Y-39687500D01*
X101600000Y-39687500D02*
X101600000Y-38893750D01*
%TO.N,Net-(J1-CC2)*%
X113352000Y-41429250D02*
X113506250Y-41275000D01*
X109578750Y-41429250D02*
X113352000Y-41429250D01*
%TO.N,Net-(J1-D--PadA7)*%
X103759000Y-42068750D02*
X104648500Y-41179250D01*
%TO.N,Net-(J1-D+-PadA6)*%
X101600000Y-42068750D02*
X102989500Y-40679250D01*
X102989500Y-40679250D02*
X107878750Y-40679250D01*
%TO.N,Net-(J2-PadR2)*%
X102512500Y-56578500D02*
X103084000Y-57150000D01*
X103084000Y-57150000D02*
X109649500Y-57150000D01*
X109649500Y-57150000D02*
X113000750Y-60501250D01*
%TO.N,RX*%
X100806250Y-56459750D02*
X100687500Y-56578500D01*
X100806250Y-53975000D02*
X100806250Y-56459750D01*
%TO.N,Net-(J2-PadR1)*%
X107038156Y-58737500D02*
X108801906Y-60501250D01*
X102512500Y-58737500D02*
X107038156Y-58737500D01*
X108801906Y-60501250D02*
X110000750Y-60501250D01*
%TO.N,TX*%
X100806250Y-61118750D02*
X100806250Y-58856250D01*
X100806250Y-58856250D02*
X100687500Y-58737500D01*
%TD*%
%TA.AperFunction,Conductor*%
%TO.N,GND*%
G36*
X76014250Y-92599613D02*
G01*
X76059637Y-92645000D01*
X76076250Y-92707000D01*
X76076250Y-92894998D01*
X76087883Y-92953481D01*
X76132198Y-93019802D01*
X76198519Y-93064117D01*
X76257002Y-93075750D01*
X76840402Y-93075750D01*
X76846498Y-93075750D01*
X76904981Y-93064117D01*
X76910163Y-93060654D01*
X76951750Y-93052381D01*
X76993336Y-93060654D01*
X76998519Y-93064117D01*
X77057002Y-93075750D01*
X77640402Y-93075750D01*
X77646498Y-93075750D01*
X77704981Y-93064117D01*
X77710163Y-93060654D01*
X77751750Y-93052381D01*
X77793336Y-93060654D01*
X77798519Y-93064117D01*
X77857002Y-93075750D01*
X78440402Y-93075750D01*
X78446498Y-93075750D01*
X78504981Y-93064117D01*
X78510163Y-93060654D01*
X78551750Y-93052381D01*
X78593336Y-93060654D01*
X78598519Y-93064117D01*
X78657002Y-93075750D01*
X79240402Y-93075750D01*
X79246498Y-93075750D01*
X79304981Y-93064117D01*
X79310163Y-93060654D01*
X79351750Y-93052381D01*
X79393336Y-93060654D01*
X79398519Y-93064117D01*
X79457002Y-93075750D01*
X80040402Y-93075750D01*
X80046498Y-93075750D01*
X80104981Y-93064117D01*
X80110163Y-93060654D01*
X80151750Y-93052381D01*
X80193336Y-93060654D01*
X80198519Y-93064117D01*
X80257002Y-93075750D01*
X80840402Y-93075750D01*
X80846498Y-93075750D01*
X80904981Y-93064117D01*
X80910163Y-93060654D01*
X80951750Y-93052381D01*
X80993336Y-93060654D01*
X80998519Y-93064117D01*
X81057002Y-93075750D01*
X81640402Y-93075750D01*
X81646498Y-93075750D01*
X81704981Y-93064117D01*
X81710163Y-93060654D01*
X81751750Y-93052381D01*
X81793336Y-93060654D01*
X81798519Y-93064117D01*
X81857002Y-93075750D01*
X82440402Y-93075750D01*
X82446498Y-93075750D01*
X82504981Y-93064117D01*
X82510163Y-93060654D01*
X82551750Y-93052381D01*
X82593336Y-93060654D01*
X82598519Y-93064117D01*
X82657002Y-93075750D01*
X83240402Y-93075750D01*
X83246498Y-93075750D01*
X83304981Y-93064117D01*
X83310163Y-93060654D01*
X83351750Y-93052381D01*
X83393336Y-93060654D01*
X83398519Y-93064117D01*
X83457002Y-93075750D01*
X84040402Y-93075750D01*
X84046498Y-93075750D01*
X84104981Y-93064117D01*
X84171302Y-93019802D01*
X84215617Y-92953481D01*
X84227250Y-92894998D01*
X84227250Y-92707000D01*
X84243863Y-92645000D01*
X84289250Y-92599613D01*
X84351250Y-92583000D01*
X84839000Y-92583000D01*
X84901000Y-92599613D01*
X84946387Y-92645000D01*
X84963000Y-92707000D01*
X84963000Y-93225750D01*
X84946387Y-93287750D01*
X84901000Y-93333137D01*
X84839000Y-93349750D01*
X84682002Y-93349750D01*
X84676027Y-93350938D01*
X84676021Y-93350939D01*
X84635497Y-93359000D01*
X84635495Y-93359000D01*
X84623519Y-93361383D01*
X84613368Y-93368165D01*
X84613365Y-93368167D01*
X84567351Y-93398913D01*
X84567348Y-93398915D01*
X84557198Y-93405698D01*
X84550415Y-93415848D01*
X84550413Y-93415851D01*
X84519667Y-93461865D01*
X84519665Y-93461868D01*
X84512883Y-93472019D01*
X84510500Y-93483995D01*
X84510500Y-93483997D01*
X84502439Y-93524521D01*
X84502438Y-93524527D01*
X84501250Y-93530502D01*
X84501250Y-94119998D01*
X84502438Y-94125973D01*
X84502439Y-94125978D01*
X84510500Y-94166502D01*
X84512883Y-94178481D01*
X84519666Y-94188633D01*
X84519667Y-94188634D01*
X84544133Y-94225250D01*
X84557198Y-94244802D01*
X84623519Y-94289117D01*
X84682002Y-94300750D01*
X84688098Y-94300750D01*
X84839000Y-94300750D01*
X84901000Y-94317363D01*
X84946387Y-94362750D01*
X84963000Y-94424750D01*
X84963000Y-94825750D01*
X84946387Y-94887750D01*
X84901000Y-94933137D01*
X84839000Y-94949750D01*
X84682002Y-94949750D01*
X84676027Y-94950938D01*
X84676021Y-94950939D01*
X84635497Y-94959000D01*
X84635495Y-94959000D01*
X84623519Y-94961383D01*
X84613368Y-94968165D01*
X84613365Y-94968167D01*
X84567351Y-94998913D01*
X84567348Y-94998915D01*
X84557198Y-95005698D01*
X84550415Y-95015848D01*
X84550413Y-95015851D01*
X84519667Y-95061865D01*
X84519665Y-95061868D01*
X84512883Y-95072019D01*
X84510500Y-95083995D01*
X84510500Y-95083997D01*
X84502439Y-95124521D01*
X84502438Y-95124527D01*
X84501250Y-95130502D01*
X84501250Y-95719998D01*
X84502438Y-95725973D01*
X84502439Y-95725978D01*
X84510500Y-95766503D01*
X84512883Y-95778481D01*
X84516345Y-95783663D01*
X84524617Y-95825250D01*
X84516345Y-95866836D01*
X84512883Y-95872019D01*
X84510501Y-95883993D01*
X84510500Y-95883996D01*
X84502439Y-95924521D01*
X84502438Y-95924527D01*
X84501250Y-95930502D01*
X84501250Y-96519998D01*
X84502438Y-96525973D01*
X84502439Y-96525978D01*
X84510500Y-96566503D01*
X84512883Y-96578481D01*
X84516345Y-96583662D01*
X84524617Y-96625247D01*
X84516346Y-96666835D01*
X84512883Y-96672019D01*
X84510501Y-96683993D01*
X84510500Y-96683996D01*
X84502439Y-96724521D01*
X84502438Y-96724527D01*
X84501250Y-96730502D01*
X84501250Y-97319998D01*
X84502438Y-97325973D01*
X84502439Y-97325978D01*
X84510499Y-97366497D01*
X84512883Y-97378481D01*
X84516345Y-97383663D01*
X84524617Y-97425250D01*
X84516345Y-97466836D01*
X84512883Y-97472019D01*
X84510501Y-97483993D01*
X84510500Y-97483996D01*
X84502439Y-97524521D01*
X84502438Y-97524527D01*
X84501250Y-97530502D01*
X84501250Y-98119998D01*
X84502438Y-98125973D01*
X84502439Y-98125978D01*
X84510499Y-98166497D01*
X84512883Y-98178481D01*
X84516345Y-98183663D01*
X84524617Y-98225250D01*
X84516345Y-98266836D01*
X84512883Y-98272019D01*
X84510501Y-98283993D01*
X84510500Y-98283996D01*
X84502439Y-98324521D01*
X84502438Y-98324527D01*
X84501250Y-98330502D01*
X84501250Y-98919998D01*
X84502438Y-98925973D01*
X84502439Y-98925978D01*
X84510500Y-98966502D01*
X84512883Y-98978481D01*
X84516345Y-98983663D01*
X84524617Y-99025250D01*
X84516345Y-99066836D01*
X84512883Y-99072019D01*
X84510501Y-99083993D01*
X84510500Y-99083996D01*
X84502439Y-99124521D01*
X84502438Y-99124527D01*
X84501250Y-99130502D01*
X84501250Y-99719998D01*
X84502438Y-99725973D01*
X84502439Y-99725978D01*
X84509008Y-99759000D01*
X84512883Y-99778481D01*
X84516345Y-99783662D01*
X84524617Y-99825247D01*
X84516346Y-99866835D01*
X84512883Y-99872019D01*
X84510501Y-99883993D01*
X84510500Y-99883996D01*
X84502439Y-99924521D01*
X84502438Y-99924527D01*
X84501250Y-99930502D01*
X84501250Y-100519998D01*
X84502438Y-100525973D01*
X84502439Y-100525978D01*
X84510500Y-100566502D01*
X84512883Y-100578481D01*
X84519666Y-100588633D01*
X84519667Y-100588634D01*
X84544133Y-100625250D01*
X84557198Y-100644802D01*
X84623519Y-100689117D01*
X84682002Y-100700750D01*
X84688098Y-100700750D01*
X84839000Y-100700750D01*
X84901000Y-100717363D01*
X84946387Y-100762750D01*
X84963000Y-100824750D01*
X84963000Y-101225750D01*
X84946387Y-101287750D01*
X84901000Y-101333137D01*
X84839000Y-101349750D01*
X84682002Y-101349750D01*
X84676027Y-101350938D01*
X84676021Y-101350939D01*
X84635497Y-101359000D01*
X84635495Y-101359000D01*
X84623519Y-101361383D01*
X84613368Y-101368165D01*
X84613365Y-101368167D01*
X84567351Y-101398913D01*
X84567348Y-101398915D01*
X84557198Y-101405698D01*
X84550415Y-101415848D01*
X84550413Y-101415851D01*
X84519667Y-101461865D01*
X84519665Y-101461868D01*
X84512883Y-101472019D01*
X84510500Y-101483995D01*
X84510500Y-101483997D01*
X84502439Y-101524521D01*
X84502438Y-101524527D01*
X84501250Y-101530502D01*
X84501250Y-102119998D01*
X84502438Y-102125973D01*
X84502439Y-102125978D01*
X84510499Y-102166500D01*
X84510500Y-102166502D01*
X84512883Y-102178481D01*
X84519668Y-102188635D01*
X84519798Y-102188949D01*
X84529236Y-102236401D01*
X84519797Y-102283853D01*
X84492917Y-102324081D01*
X84250581Y-102566417D01*
X84210353Y-102593297D01*
X84162901Y-102602736D01*
X84115449Y-102593298D01*
X84115135Y-102593168D01*
X84104981Y-102586383D01*
X84093003Y-102584000D01*
X84093000Y-102583999D01*
X84052478Y-102575939D01*
X84052473Y-102575938D01*
X84046498Y-102574750D01*
X83457002Y-102574750D01*
X83451027Y-102575938D01*
X83451021Y-102575939D01*
X83410496Y-102584000D01*
X83410493Y-102584001D01*
X83398519Y-102586383D01*
X83393335Y-102589846D01*
X83351747Y-102598117D01*
X83310162Y-102589845D01*
X83304981Y-102586383D01*
X83293004Y-102584000D01*
X83293003Y-102584000D01*
X83252478Y-102575939D01*
X83252473Y-102575938D01*
X83246498Y-102574750D01*
X82657002Y-102574750D01*
X82651027Y-102575938D01*
X82651021Y-102575939D01*
X82610496Y-102584000D01*
X82610493Y-102584001D01*
X82598519Y-102586383D01*
X82593335Y-102589846D01*
X82551747Y-102598117D01*
X82510162Y-102589845D01*
X82504981Y-102586383D01*
X82493004Y-102584000D01*
X82493003Y-102584000D01*
X82452478Y-102575939D01*
X82452473Y-102575938D01*
X82446498Y-102574750D01*
X81857002Y-102574750D01*
X81851027Y-102575938D01*
X81851021Y-102575939D01*
X81810496Y-102584000D01*
X81810493Y-102584001D01*
X81798519Y-102586383D01*
X81793335Y-102589846D01*
X81751747Y-102598117D01*
X81710162Y-102589845D01*
X81704981Y-102586383D01*
X81693004Y-102584000D01*
X81693003Y-102584000D01*
X81652478Y-102575939D01*
X81652473Y-102575938D01*
X81646498Y-102574750D01*
X81057002Y-102574750D01*
X81051027Y-102575938D01*
X81051021Y-102575939D01*
X81010497Y-102584000D01*
X81010495Y-102584000D01*
X80998519Y-102586383D01*
X80988368Y-102593165D01*
X80988365Y-102593167D01*
X80942351Y-102623913D01*
X80942348Y-102623915D01*
X80932198Y-102630698D01*
X80925415Y-102640848D01*
X80925413Y-102640851D01*
X80894667Y-102686865D01*
X80894665Y-102686868D01*
X80887883Y-102697019D01*
X80885500Y-102708995D01*
X80885500Y-102708997D01*
X80877439Y-102749521D01*
X80877438Y-102749527D01*
X80876250Y-102755502D01*
X80876250Y-102761598D01*
X80876250Y-102873000D01*
X80859637Y-102935000D01*
X80814250Y-102980387D01*
X80752250Y-102997000D01*
X80351250Y-102997000D01*
X80289250Y-102980387D01*
X80243863Y-102935000D01*
X80227250Y-102873000D01*
X80227250Y-102761598D01*
X80227250Y-102755502D01*
X80215617Y-102697019D01*
X80171302Y-102630698D01*
X80115328Y-102593297D01*
X80115134Y-102593167D01*
X80115133Y-102593166D01*
X80104981Y-102586383D01*
X80093003Y-102584000D01*
X80093002Y-102584000D01*
X80052478Y-102575939D01*
X80052473Y-102575938D01*
X80046498Y-102574750D01*
X79457002Y-102574750D01*
X79451027Y-102575938D01*
X79451021Y-102575939D01*
X79410496Y-102584000D01*
X79410493Y-102584001D01*
X79398519Y-102586383D01*
X79393335Y-102589846D01*
X79351747Y-102598117D01*
X79310162Y-102589845D01*
X79304981Y-102586383D01*
X79293004Y-102584000D01*
X79293003Y-102584000D01*
X79252478Y-102575939D01*
X79252473Y-102575938D01*
X79246498Y-102574750D01*
X78657002Y-102574750D01*
X78651027Y-102575938D01*
X78651021Y-102575939D01*
X78610496Y-102584000D01*
X78610493Y-102584001D01*
X78598519Y-102586383D01*
X78593335Y-102589846D01*
X78551747Y-102598117D01*
X78510162Y-102589845D01*
X78504981Y-102586383D01*
X78493004Y-102584000D01*
X78493003Y-102584000D01*
X78452478Y-102575939D01*
X78452473Y-102575938D01*
X78446498Y-102574750D01*
X77857002Y-102574750D01*
X77851027Y-102575938D01*
X77851021Y-102575939D01*
X77810496Y-102584000D01*
X77810493Y-102584001D01*
X77798519Y-102586383D01*
X77793335Y-102589846D01*
X77751747Y-102598117D01*
X77710162Y-102589845D01*
X77704981Y-102586383D01*
X77693004Y-102584000D01*
X77693003Y-102584000D01*
X77652478Y-102575939D01*
X77652473Y-102575938D01*
X77646498Y-102574750D01*
X77057002Y-102574750D01*
X77051027Y-102575938D01*
X77051021Y-102575939D01*
X77010496Y-102584000D01*
X77010493Y-102584001D01*
X76998519Y-102586383D01*
X76993335Y-102589846D01*
X76951747Y-102598117D01*
X76910162Y-102589845D01*
X76904981Y-102586383D01*
X76893004Y-102584000D01*
X76893003Y-102584000D01*
X76852478Y-102575939D01*
X76852473Y-102575938D01*
X76846498Y-102574750D01*
X76257002Y-102574750D01*
X76251027Y-102575938D01*
X76251021Y-102575939D01*
X76210496Y-102584000D01*
X76210493Y-102584001D01*
X76198519Y-102586383D01*
X76193335Y-102589846D01*
X76151747Y-102598117D01*
X76110162Y-102589845D01*
X76104981Y-102586383D01*
X76093004Y-102584000D01*
X76093003Y-102584000D01*
X76052478Y-102575939D01*
X76052473Y-102575938D01*
X76046498Y-102574750D01*
X75457002Y-102574750D01*
X75451027Y-102575938D01*
X75451021Y-102575939D01*
X75410497Y-102584000D01*
X75410495Y-102584000D01*
X75398519Y-102586383D01*
X75388368Y-102593165D01*
X75388365Y-102593167D01*
X75342351Y-102623913D01*
X75342348Y-102623915D01*
X75332198Y-102630698D01*
X75325415Y-102640848D01*
X75325413Y-102640851D01*
X75294667Y-102686865D01*
X75294665Y-102686868D01*
X75287883Y-102697019D01*
X75285500Y-102708995D01*
X75285500Y-102708997D01*
X75277439Y-102749521D01*
X75277438Y-102749527D01*
X75276250Y-102755502D01*
X75276250Y-102761598D01*
X75276250Y-102873000D01*
X75259637Y-102935000D01*
X75214250Y-102980387D01*
X75152250Y-102997000D01*
X74673000Y-102997000D01*
X74611000Y-102980387D01*
X74565613Y-102935000D01*
X74549000Y-102873000D01*
X74549000Y-102424750D01*
X74565613Y-102362750D01*
X74611000Y-102317363D01*
X74673000Y-102300750D01*
X74815402Y-102300750D01*
X74821498Y-102300750D01*
X74879981Y-102289117D01*
X74946302Y-102244802D01*
X74990617Y-102178481D01*
X75002250Y-102119998D01*
X75002250Y-101530502D01*
X74990617Y-101472019D01*
X74987153Y-101466836D01*
X74978881Y-101425247D01*
X74987153Y-101383664D01*
X74990617Y-101378481D01*
X75002250Y-101319998D01*
X75002250Y-100730502D01*
X74990617Y-100672019D01*
X74987154Y-100666836D01*
X74978881Y-100625250D01*
X74987154Y-100583663D01*
X74990617Y-100578481D01*
X75002250Y-100519998D01*
X75002250Y-99930502D01*
X74990617Y-99872019D01*
X74946302Y-99805698D01*
X74879981Y-99761383D01*
X74868003Y-99759000D01*
X74868002Y-99759000D01*
X74827478Y-99750939D01*
X74827473Y-99750938D01*
X74821498Y-99749750D01*
X74673000Y-99749750D01*
X74611000Y-99733137D01*
X74565613Y-99687750D01*
X74549000Y-99625750D01*
X74549000Y-99224750D01*
X74565613Y-99162750D01*
X74611000Y-99117363D01*
X74673000Y-99100750D01*
X74815402Y-99100750D01*
X74821498Y-99100750D01*
X74879981Y-99089117D01*
X74946302Y-99044802D01*
X74990617Y-98978481D01*
X75002250Y-98919998D01*
X75002250Y-98330502D01*
X74990617Y-98272019D01*
X74987153Y-98266836D01*
X74978881Y-98225247D01*
X74987153Y-98183664D01*
X74990617Y-98178481D01*
X75002250Y-98119998D01*
X75002250Y-97530502D01*
X74990617Y-97472019D01*
X74987153Y-97466836D01*
X74978881Y-97425247D01*
X74987153Y-97383664D01*
X74990617Y-97378481D01*
X75002250Y-97319998D01*
X75002250Y-96730502D01*
X74990617Y-96672019D01*
X74987154Y-96666836D01*
X74978881Y-96625250D01*
X74987154Y-96583663D01*
X74990617Y-96578481D01*
X75002250Y-96519998D01*
X75002250Y-95930502D01*
X74990617Y-95872019D01*
X74987154Y-95866836D01*
X74978881Y-95825250D01*
X74987154Y-95783663D01*
X74990617Y-95778481D01*
X75002250Y-95719998D01*
X75002250Y-95130502D01*
X74990617Y-95072019D01*
X74987154Y-95066836D01*
X74978881Y-95025250D01*
X74987154Y-94983663D01*
X74990617Y-94978481D01*
X75002250Y-94919998D01*
X75002250Y-94330502D01*
X74990617Y-94272019D01*
X74987154Y-94266836D01*
X74978881Y-94225250D01*
X74987154Y-94183663D01*
X74990617Y-94178481D01*
X75002250Y-94119998D01*
X75002250Y-93530502D01*
X74990617Y-93472019D01*
X74946302Y-93405698D01*
X74879981Y-93361383D01*
X74868003Y-93359000D01*
X74868002Y-93359000D01*
X74827478Y-93350939D01*
X74827473Y-93350938D01*
X74821498Y-93349750D01*
X74673000Y-93349750D01*
X74611000Y-93333137D01*
X74565613Y-93287750D01*
X74549000Y-93225750D01*
X74549000Y-92707000D01*
X74565613Y-92645000D01*
X74611000Y-92599613D01*
X74673000Y-92583000D01*
X75952250Y-92583000D01*
X76014250Y-92599613D01*
G37*
%TD.AperFunction*%
%TD*%
%TA.AperFunction,Conductor*%
%TO.N,GND*%
G36*
X69788000Y-92218613D02*
G01*
X69833387Y-92264000D01*
X69850000Y-92326000D01*
X69850000Y-98819750D01*
X69833387Y-98881750D01*
X69788000Y-98927137D01*
X69726000Y-98943750D01*
X69473250Y-98943750D01*
X69411250Y-98927137D01*
X69365863Y-98881750D01*
X69349250Y-98819750D01*
X69349250Y-98657598D01*
X69349250Y-98651502D01*
X69337617Y-98593019D01*
X69293302Y-98526698D01*
X69226981Y-98482383D01*
X69215003Y-98480000D01*
X69215002Y-98480000D01*
X69174478Y-98471939D01*
X69174473Y-98471938D01*
X69168498Y-98470750D01*
X67729002Y-98470750D01*
X67723027Y-98471938D01*
X67723021Y-98471939D01*
X67682497Y-98480000D01*
X67682495Y-98480000D01*
X67670519Y-98482383D01*
X67660368Y-98489165D01*
X67660365Y-98489167D01*
X67614351Y-98519913D01*
X67614348Y-98519915D01*
X67604198Y-98526698D01*
X67597415Y-98536848D01*
X67597413Y-98536851D01*
X67566667Y-98582865D01*
X67566665Y-98582868D01*
X67559883Y-98593019D01*
X67557500Y-98604995D01*
X67557500Y-98604997D01*
X67549439Y-98645521D01*
X67549438Y-98645527D01*
X67548250Y-98651502D01*
X67548250Y-99890998D01*
X67559883Y-99949481D01*
X67604198Y-100015802D01*
X67670519Y-100060117D01*
X67729002Y-100071750D01*
X67997250Y-100071750D01*
X68059250Y-100088363D01*
X68104637Y-100133750D01*
X68121250Y-100195750D01*
X68121250Y-101603104D01*
X68106517Y-101661728D01*
X68065819Y-101706421D01*
X68008827Y-101726561D01*
X68006071Y-101726820D01*
X67994562Y-101727899D01*
X67994557Y-101727900D01*
X67987051Y-101728604D01*
X67979939Y-101731092D01*
X67979932Y-101731094D01*
X67867636Y-101770388D01*
X67867630Y-101770390D01*
X67858868Y-101773457D01*
X67851396Y-101778970D01*
X67851391Y-101778974D01*
X67757077Y-101848581D01*
X67757074Y-101848583D01*
X67749600Y-101854100D01*
X67744083Y-101861574D01*
X67744081Y-101861577D01*
X67674474Y-101955891D01*
X67674470Y-101955896D01*
X67668957Y-101963368D01*
X67665890Y-101972130D01*
X67665888Y-101972136D01*
X67626594Y-102084432D01*
X67626592Y-102084439D01*
X67624104Y-102091551D01*
X67623400Y-102099057D01*
X67623399Y-102099062D01*
X67621520Y-102119100D01*
X67621250Y-102121984D01*
X67621250Y-103180516D01*
X67621519Y-103183391D01*
X67621520Y-103183399D01*
X67623399Y-103203437D01*
X67623399Y-103203441D01*
X67624104Y-103210949D01*
X67626592Y-103218061D01*
X67626594Y-103218067D01*
X67665888Y-103330363D01*
X67665889Y-103330366D01*
X67668957Y-103339132D01*
X67674472Y-103346605D01*
X67674474Y-103346608D01*
X67744081Y-103440922D01*
X67749600Y-103448400D01*
X67858868Y-103529043D01*
X67987051Y-103573896D01*
X68017484Y-103576750D01*
X68623123Y-103576750D01*
X68626016Y-103576750D01*
X68656449Y-103573896D01*
X68784632Y-103529043D01*
X68893900Y-103448400D01*
X68974543Y-103339132D01*
X69019396Y-103210949D01*
X69022250Y-103180516D01*
X69022250Y-102121984D01*
X69019396Y-102091551D01*
X68974543Y-101963368D01*
X68893900Y-101854100D01*
X68826614Y-101804441D01*
X68789555Y-101760554D01*
X68776250Y-101704673D01*
X68776250Y-100195750D01*
X68792863Y-100133750D01*
X68838250Y-100088363D01*
X68900250Y-100071750D01*
X69162402Y-100071750D01*
X69168498Y-100071750D01*
X69226981Y-100060117D01*
X69293302Y-100015802D01*
X69337617Y-99949481D01*
X69349250Y-99890998D01*
X69349250Y-99722750D01*
X69365863Y-99660750D01*
X69411250Y-99615363D01*
X69473250Y-99598750D01*
X69726000Y-99598750D01*
X69788000Y-99615363D01*
X69833387Y-99660750D01*
X69850000Y-99722750D01*
X69850000Y-104143000D01*
X69833387Y-104205000D01*
X69788000Y-104250387D01*
X69726000Y-104267000D01*
X65021000Y-104267000D01*
X64959000Y-104250387D01*
X64913613Y-104205000D01*
X64897000Y-104143000D01*
X64897000Y-98024309D01*
X64915461Y-97959212D01*
X64965348Y-97913499D01*
X65027084Y-97901684D01*
X65030266Y-97902537D01*
X65068152Y-97899222D01*
X65078961Y-97898750D01*
X65224250Y-97898750D01*
X65286250Y-97915363D01*
X65331637Y-97960750D01*
X65348250Y-98022750D01*
X65348250Y-98190998D01*
X65359883Y-98249481D01*
X65404198Y-98315802D01*
X65470519Y-98360117D01*
X65529002Y-98371750D01*
X66962402Y-98371750D01*
X66968498Y-98371750D01*
X67026981Y-98360117D01*
X67093302Y-98315802D01*
X67137617Y-98249481D01*
X67149250Y-98190998D01*
X67149250Y-96951502D01*
X67137617Y-96893019D01*
X67093302Y-96826698D01*
X67026981Y-96782383D01*
X67015003Y-96780000D01*
X67015002Y-96780000D01*
X66974478Y-96771939D01*
X66974473Y-96771938D01*
X66968498Y-96770750D01*
X65529002Y-96770750D01*
X65523027Y-96771938D01*
X65523021Y-96771939D01*
X65482497Y-96780000D01*
X65482495Y-96780000D01*
X65470519Y-96782383D01*
X65460368Y-96789165D01*
X65460365Y-96789167D01*
X65414351Y-96819913D01*
X65414348Y-96819915D01*
X65404198Y-96826698D01*
X65397415Y-96836848D01*
X65397413Y-96836851D01*
X65366667Y-96882865D01*
X65366665Y-96882868D01*
X65359883Y-96893019D01*
X65357500Y-96904995D01*
X65357500Y-96904997D01*
X65349439Y-96945521D01*
X65349438Y-96945527D01*
X65348250Y-96951502D01*
X65348250Y-96957598D01*
X65348250Y-97097733D01*
X65334735Y-97154028D01*
X65297135Y-97198051D01*
X65243648Y-97220206D01*
X65185932Y-97215664D01*
X65136569Y-97185414D01*
X65048888Y-97097733D01*
X64933318Y-96982163D01*
X64906439Y-96941937D01*
X64897000Y-96894484D01*
X64897000Y-95043587D01*
X64912724Y-94984899D01*
X64913536Y-94983841D01*
X64974044Y-94837762D01*
X64994682Y-94681000D01*
X64986082Y-94615679D01*
X64991602Y-94559636D01*
X65021340Y-94511813D01*
X65766336Y-93766819D01*
X65806564Y-93739939D01*
X65854017Y-93730500D01*
X66566373Y-93730500D01*
X66569266Y-93730500D01*
X66599699Y-93727646D01*
X66727882Y-93682793D01*
X66837150Y-93602150D01*
X66917793Y-93492882D01*
X66962646Y-93364699D01*
X66965500Y-93334266D01*
X66965500Y-92725734D01*
X66962646Y-92695301D01*
X66917793Y-92567118D01*
X66837150Y-92457850D01*
X66793680Y-92425768D01*
X66754804Y-92378124D01*
X66743597Y-92317659D01*
X66762819Y-92259245D01*
X66807741Y-92217249D01*
X66867316Y-92202000D01*
X69726000Y-92202000D01*
X69788000Y-92218613D01*
G37*
%TD.AperFunction*%
%TD*%
%TA.AperFunction,Conductor*%
%TO.N,GND*%
G36*
X114810016Y-36585439D02*
G01*
X114850244Y-36612319D01*
X114877124Y-36652548D01*
X114911102Y-36734581D01*
X114911106Y-36734588D01*
X114914214Y-36742091D01*
X115010468Y-36867532D01*
X115135909Y-36963786D01*
X115281988Y-37024294D01*
X115399389Y-37039750D01*
X116074058Y-37039750D01*
X116078111Y-37039750D01*
X116195512Y-37024294D01*
X116341591Y-36963786D01*
X116467032Y-36867532D01*
X116563286Y-36742091D01*
X116600375Y-36652548D01*
X116627256Y-36612319D01*
X116667484Y-36585439D01*
X116714937Y-36576000D01*
X117097000Y-36576000D01*
X117159000Y-36592613D01*
X117204387Y-36638000D01*
X117221000Y-36700000D01*
X117221000Y-45215000D01*
X117204387Y-45277000D01*
X117159000Y-45322387D01*
X117097000Y-45339000D01*
X116738341Y-45339000D01*
X116690888Y-45329561D01*
X116650660Y-45302681D01*
X116623780Y-45262453D01*
X116589030Y-45178561D01*
X116563286Y-45116409D01*
X116467032Y-44990968D01*
X116341591Y-44894714D01*
X116326483Y-44888456D01*
X116203021Y-44837316D01*
X116203018Y-44837315D01*
X116195512Y-44834206D01*
X116187458Y-44833145D01*
X116187452Y-44833144D01*
X116082131Y-44819279D01*
X116082127Y-44819278D01*
X116078111Y-44818750D01*
X115399389Y-44818750D01*
X115395373Y-44819278D01*
X115395368Y-44819279D01*
X115290047Y-44833144D01*
X115290039Y-44833146D01*
X115281988Y-44834206D01*
X115274483Y-44837314D01*
X115274478Y-44837316D01*
X115143416Y-44891604D01*
X115143412Y-44891605D01*
X115135909Y-44894714D01*
X115129464Y-44899658D01*
X115129461Y-44899661D01*
X115016914Y-44986021D01*
X115016910Y-44986024D01*
X115010468Y-44990968D01*
X115005524Y-44997410D01*
X115005521Y-44997414D01*
X114919161Y-45109961D01*
X114919158Y-45109964D01*
X114914214Y-45116409D01*
X114911105Y-45123912D01*
X114911104Y-45123916D01*
X114853720Y-45262453D01*
X114826840Y-45302681D01*
X114786612Y-45329561D01*
X114739159Y-45339000D01*
X111779092Y-45339000D01*
X111726685Y-45327381D01*
X111684100Y-45294703D01*
X111663908Y-45255911D01*
X111662323Y-45256489D01*
X111660472Y-45251404D01*
X111659070Y-45246171D01*
X111631196Y-45186396D01*
X111627867Y-45178561D01*
X111606054Y-45121896D01*
X111604109Y-45116843D01*
X111583794Y-45083106D01*
X111577638Y-45071541D01*
X111563343Y-45040884D01*
X111563342Y-45040882D01*
X111561051Y-45035969D01*
X111523224Y-44981948D01*
X111518573Y-44974791D01*
X111487264Y-44922793D01*
X111487258Y-44922785D01*
X111484468Y-44918151D01*
X111458604Y-44888454D01*
X111450537Y-44878139D01*
X111431125Y-44850416D01*
X111428020Y-44845981D01*
X111381388Y-44799349D01*
X111375562Y-44793108D01*
X111335692Y-44747330D01*
X111335691Y-44747329D01*
X111332141Y-44743253D01*
X111301517Y-44718501D01*
X111291789Y-44709750D01*
X111267848Y-44685809D01*
X111264019Y-44681980D01*
X111209984Y-44644144D01*
X111203172Y-44639015D01*
X111155976Y-44600871D01*
X111155973Y-44600869D01*
X111151759Y-44597463D01*
X111117324Y-44578417D01*
X111106218Y-44571485D01*
X111078467Y-44552054D01*
X111078463Y-44552051D01*
X111074032Y-44548949D01*
X111014232Y-44521063D01*
X111006626Y-44517192D01*
X110953539Y-44487831D01*
X110953529Y-44487826D01*
X110948800Y-44485211D01*
X110943688Y-44483456D01*
X110943679Y-44483452D01*
X110911581Y-44472433D01*
X110899443Y-44467536D01*
X110868727Y-44453213D01*
X110868718Y-44453209D01*
X110863829Y-44450930D01*
X110858605Y-44449530D01*
X110858599Y-44449528D01*
X110800077Y-44433846D01*
X110791919Y-44431356D01*
X110729433Y-44409907D01*
X110724092Y-44409066D01*
X110724079Y-44409063D01*
X110690570Y-44403788D01*
X110677761Y-44401072D01*
X110645026Y-44392301D01*
X110645022Y-44392300D01*
X110639800Y-44390901D01*
X110634416Y-44390429D01*
X110634411Y-44390429D01*
X110574042Y-44385147D01*
X110565571Y-44384111D01*
X110505669Y-44374682D01*
X110505661Y-44374681D01*
X110500322Y-44373841D01*
X110494917Y-44373940D01*
X110494911Y-44373940D01*
X110461001Y-44374564D01*
X110447915Y-44374113D01*
X110414147Y-44371159D01*
X110414145Y-44371159D01*
X110408750Y-44370687D01*
X110403354Y-44371159D01*
X110403353Y-44371159D01*
X110342964Y-44376441D01*
X110334443Y-44376892D01*
X110273840Y-44378008D01*
X110273835Y-44378008D01*
X110268428Y-44378108D01*
X110229845Y-44385645D01*
X110216890Y-44387472D01*
X110183087Y-44390429D01*
X110183079Y-44390430D01*
X110177700Y-44390901D01*
X110172479Y-44392299D01*
X110172473Y-44392301D01*
X110113875Y-44408002D01*
X110105559Y-44409926D01*
X110046114Y-44421539D01*
X110046105Y-44421541D01*
X110040800Y-44422578D01*
X110035750Y-44424521D01*
X110035746Y-44424523D01*
X110004136Y-44436691D01*
X109991688Y-44440742D01*
X109958906Y-44449526D01*
X109958893Y-44449530D01*
X109953671Y-44450930D01*
X109952224Y-44451604D01*
X109911700Y-44458750D01*
X109449389Y-44458750D01*
X109445373Y-44459278D01*
X109445368Y-44459279D01*
X109340047Y-44473144D01*
X109340039Y-44473146D01*
X109331988Y-44474206D01*
X109324483Y-44477314D01*
X109324478Y-44477316D01*
X109285703Y-44493378D01*
X109226096Y-44502220D01*
X109169359Y-44481919D01*
X109128892Y-44437270D01*
X109114250Y-44378817D01*
X109114250Y-44345583D01*
X109114250Y-44341530D01*
X109099437Y-44229014D01*
X109041448Y-44089017D01*
X109036503Y-44082572D01*
X109036501Y-44082569D01*
X108954144Y-43975241D01*
X108949201Y-43968799D01*
X108942758Y-43963855D01*
X108835430Y-43881498D01*
X108835424Y-43881495D01*
X108828983Y-43876552D01*
X108821474Y-43873441D01*
X108821473Y-43873441D01*
X108696495Y-43821673D01*
X108696492Y-43821672D01*
X108688986Y-43818563D01*
X108680932Y-43817502D01*
X108680926Y-43817501D01*
X108546809Y-43799845D01*
X108538750Y-43798784D01*
X108530691Y-43799845D01*
X108396573Y-43817501D01*
X108396565Y-43817502D01*
X108388514Y-43818563D01*
X108381009Y-43821671D01*
X108381004Y-43821673D01*
X108256026Y-43873441D01*
X108256022Y-43873443D01*
X108248517Y-43876552D01*
X108242075Y-43881495D01*
X108242070Y-43881498D01*
X108149487Y-43952541D01*
X108086154Y-43977568D01*
X108019156Y-43965377D01*
X107968699Y-43919646D01*
X107950000Y-43854165D01*
X107950000Y-43653750D01*
X107966613Y-43591750D01*
X108012000Y-43546363D01*
X108074000Y-43529750D01*
X108242402Y-43529750D01*
X108248498Y-43529750D01*
X108306981Y-43518117D01*
X108373302Y-43473802D01*
X108417617Y-43407481D01*
X108429250Y-43348998D01*
X108429250Y-43009502D01*
X108418098Y-42953437D01*
X108418098Y-42905063D01*
X108429250Y-42848998D01*
X108429250Y-42630750D01*
X108445863Y-42568750D01*
X108491250Y-42523363D01*
X108553250Y-42506750D01*
X108655039Y-42506750D01*
X108665847Y-42507222D01*
X108703734Y-42510537D01*
X108740498Y-42500685D01*
X108751012Y-42498354D01*
X108788489Y-42491747D01*
X108797895Y-42486315D01*
X108801408Y-42485037D01*
X108804801Y-42483454D01*
X108815293Y-42480644D01*
X108833124Y-42468157D01*
X108896138Y-42445997D01*
X108961506Y-42459741D01*
X109010259Y-42505403D01*
X109028250Y-42569731D01*
X109028250Y-42598998D01*
X109029438Y-42604973D01*
X109029439Y-42604978D01*
X109039401Y-42655058D01*
X109039401Y-42703437D01*
X109028250Y-42759502D01*
X109028250Y-43098998D01*
X109039883Y-43157481D01*
X109084198Y-43223802D01*
X109150519Y-43268117D01*
X109209002Y-43279750D01*
X109942402Y-43279750D01*
X109948498Y-43279750D01*
X110006981Y-43268117D01*
X110073302Y-43223802D01*
X110117617Y-43157481D01*
X110129250Y-43098998D01*
X110129250Y-42787078D01*
X110145863Y-42725078D01*
X110191251Y-42679691D01*
X110253251Y-42663078D01*
X110312381Y-42678922D01*
X110314159Y-42680286D01*
X110460238Y-42740794D01*
X110617000Y-42761432D01*
X110773762Y-42740794D01*
X110919841Y-42680286D01*
X111045282Y-42584032D01*
X111141536Y-42458591D01*
X111202044Y-42312512D01*
X111222682Y-42155750D01*
X111202044Y-41998988D01*
X111172724Y-41928203D01*
X111163882Y-41868596D01*
X111184183Y-41811859D01*
X111228832Y-41771392D01*
X111287285Y-41756750D01*
X113105557Y-41756750D01*
X113145415Y-41763331D01*
X113181042Y-41782373D01*
X113203409Y-41799536D01*
X113349488Y-41860044D01*
X113506250Y-41880682D01*
X113663012Y-41860044D01*
X113809091Y-41799536D01*
X113934532Y-41703282D01*
X114030786Y-41577841D01*
X114091294Y-41431762D01*
X114111932Y-41275000D01*
X114091294Y-41118238D01*
X114030786Y-40972159D01*
X113934532Y-40846718D01*
X113809091Y-40750464D01*
X113776579Y-40736997D01*
X113670521Y-40693066D01*
X113670518Y-40693065D01*
X113663012Y-40689956D01*
X113654958Y-40688895D01*
X113654952Y-40688894D01*
X113514309Y-40670379D01*
X113506250Y-40669318D01*
X113498191Y-40670379D01*
X113357547Y-40688894D01*
X113357539Y-40688896D01*
X113349488Y-40689956D01*
X113341983Y-40693064D01*
X113341978Y-40693066D01*
X113210916Y-40747354D01*
X113210912Y-40747355D01*
X113203409Y-40750464D01*
X113196964Y-40755408D01*
X113196961Y-40755411D01*
X113084414Y-40841771D01*
X113084410Y-40841774D01*
X113077968Y-40846718D01*
X113073024Y-40853160D01*
X113073021Y-40853164D01*
X112986663Y-40965708D01*
X112986659Y-40965713D01*
X112981714Y-40972159D01*
X112978605Y-40979666D01*
X112978603Y-40979669D01*
X112959743Y-41025203D01*
X112932863Y-41065431D01*
X112892635Y-41092311D01*
X112845182Y-41101750D01*
X111287187Y-41101750D01*
X111228734Y-41087108D01*
X111184085Y-41046641D01*
X111163784Y-40989904D01*
X111172626Y-40930298D01*
X111198932Y-40866787D01*
X111202044Y-40859275D01*
X111222682Y-40702513D01*
X111202044Y-40545751D01*
X111141536Y-40399672D01*
X111048367Y-40278251D01*
X111025682Y-40229603D01*
X111025682Y-40175926D01*
X111048364Y-40127284D01*
X111141542Y-40005852D01*
X111202050Y-39859773D01*
X111222688Y-39703011D01*
X111202050Y-39546249D01*
X111141542Y-39400170D01*
X111045288Y-39274729D01*
X111012944Y-39249911D01*
X110926294Y-39183422D01*
X110919847Y-39178475D01*
X110857802Y-39152775D01*
X110781277Y-39121077D01*
X110781274Y-39121076D01*
X110773768Y-39117967D01*
X110765714Y-39116906D01*
X110765708Y-39116905D01*
X110625065Y-39098390D01*
X110617006Y-39097329D01*
X110608947Y-39098390D01*
X110481242Y-39115202D01*
X110443525Y-39114379D01*
X110419529Y-39110148D01*
X110408968Y-39107807D01*
X110382706Y-39100770D01*
X110382704Y-39100769D01*
X110372229Y-39097963D01*
X110361425Y-39098908D01*
X110361423Y-39098908D01*
X110334342Y-39101278D01*
X110323534Y-39101750D01*
X110253250Y-39101750D01*
X110191250Y-39085137D01*
X110145863Y-39039750D01*
X110129250Y-38977750D01*
X110129250Y-38765598D01*
X110129250Y-38759502D01*
X110118098Y-38703437D01*
X110118098Y-38655063D01*
X110129250Y-38598998D01*
X110129250Y-38259502D01*
X110117617Y-38201019D01*
X110073302Y-38134698D01*
X110006981Y-38090383D01*
X109995003Y-38088000D01*
X109995002Y-38088000D01*
X109954478Y-38079939D01*
X109954473Y-38079938D01*
X109948498Y-38078750D01*
X109209002Y-38078750D01*
X109203027Y-38079938D01*
X109203021Y-38079939D01*
X109162497Y-38088000D01*
X109162495Y-38088000D01*
X109150519Y-38090383D01*
X109140368Y-38097165D01*
X109140365Y-38097167D01*
X109094351Y-38127913D01*
X109094348Y-38127915D01*
X109084198Y-38134698D01*
X109077415Y-38144848D01*
X109077413Y-38144851D01*
X109046667Y-38190865D01*
X109046665Y-38190868D01*
X109039883Y-38201019D01*
X109037500Y-38212995D01*
X109037500Y-38212997D01*
X109029439Y-38253521D01*
X109029438Y-38253527D01*
X109028250Y-38259502D01*
X109028250Y-38598998D01*
X109029438Y-38604973D01*
X109029439Y-38604978D01*
X109039401Y-38655058D01*
X109039401Y-38703437D01*
X109028250Y-38759502D01*
X109028250Y-38765598D01*
X109028250Y-38974639D01*
X109013395Y-39033489D01*
X108972389Y-39078240D01*
X108915057Y-39098167D01*
X108906570Y-39098909D01*
X108895765Y-39097964D01*
X108885288Y-39100770D01*
X108885288Y-39100771D01*
X108859032Y-39107806D01*
X108848477Y-39110146D01*
X108821692Y-39114869D01*
X108821689Y-39114869D01*
X108811011Y-39116753D01*
X108801620Y-39122174D01*
X108798082Y-39123462D01*
X108794676Y-39125050D01*
X108784207Y-39127856D01*
X108775324Y-39134075D01*
X108775321Y-39134077D01*
X108753052Y-39149669D01*
X108743935Y-39155477D01*
X108720390Y-39169071D01*
X108720383Y-39169076D01*
X108710990Y-39174500D01*
X108704016Y-39182810D01*
X108704016Y-39182811D01*
X108686546Y-39203630D01*
X108679243Y-39211600D01*
X108640934Y-39249911D01*
X108591571Y-39280162D01*
X108533854Y-39284706D01*
X108480366Y-39262551D01*
X108442765Y-39218527D01*
X108429250Y-39162232D01*
X108429250Y-39015598D01*
X108429250Y-39009502D01*
X108418098Y-38953437D01*
X108418099Y-38905058D01*
X108418746Y-38901801D01*
X108429250Y-38848998D01*
X108429250Y-38509502D01*
X108417617Y-38451019D01*
X108373302Y-38384698D01*
X108306981Y-38340383D01*
X108295003Y-38338000D01*
X108295002Y-38338000D01*
X108254478Y-38329939D01*
X108254473Y-38329938D01*
X108248498Y-38328750D01*
X108074000Y-38328750D01*
X108012000Y-38312137D01*
X107966613Y-38266750D01*
X107950000Y-38204750D01*
X107950000Y-37854335D01*
X107968699Y-37788854D01*
X108019156Y-37743123D01*
X108086154Y-37730932D01*
X108149486Y-37755958D01*
X108248517Y-37831948D01*
X108388514Y-37889937D01*
X108501030Y-37904750D01*
X108572417Y-37904750D01*
X108576470Y-37904750D01*
X108688986Y-37889937D01*
X108828983Y-37831948D01*
X108949201Y-37739701D01*
X109041448Y-37619483D01*
X109099437Y-37479486D01*
X109102254Y-37458088D01*
X109122088Y-37405387D01*
X109163190Y-37366888D01*
X109217081Y-37350540D01*
X109272643Y-37359712D01*
X109331988Y-37384294D01*
X109449389Y-37399750D01*
X110124058Y-37399750D01*
X110128111Y-37399750D01*
X110245512Y-37384294D01*
X110391591Y-37323786D01*
X110517032Y-37227532D01*
X110613286Y-37102091D01*
X110673794Y-36956012D01*
X110694432Y-36799250D01*
X110683496Y-36716184D01*
X110694053Y-36647596D01*
X110739810Y-36595420D01*
X110806435Y-36576000D01*
X114762563Y-36576000D01*
X114810016Y-36585439D01*
G37*
%TD.AperFunction*%
%TD*%
%TA.AperFunction,NonConductor*%
G36*
X36641000Y-111395613D02*
G01*
X36686387Y-111441000D01*
X36703000Y-111503000D01*
X36703000Y-115447234D01*
X36686593Y-115508876D01*
X36641715Y-115554205D01*
X36580241Y-115571227D01*
X24128238Y-115695747D01*
X24065717Y-115679552D01*
X24019820Y-115634112D01*
X24003000Y-115571754D01*
X24003000Y-111503000D01*
X24019613Y-111441000D01*
X24065000Y-111395613D01*
X24127000Y-111379000D01*
X36579000Y-111379000D01*
X36641000Y-111395613D01*
G37*
%TD.AperFunction*%
M02*
