%TF.GenerationSoftware,KiCad,Pcbnew,(7.0.0)*%
%TF.CreationDate,2023-03-14T21:06:17+08:00*%
%TF.ProjectId,kai_split_left,6b61695f-7370-46c6-9974-5f6c6566742e,rev?*%
%TF.SameCoordinates,Original*%
%TF.FileFunction,Copper,L1,Top*%
%TF.FilePolarity,Positive*%
%FSLAX46Y46*%
G04 Gerber Fmt 4.6, Leading zero omitted, Abs format (unit mm)*
G04 Created by KiCad (PCBNEW (7.0.0)) date 2023-03-14 21:06:17*
%MOMM*%
%LPD*%
G01*
G04 APERTURE LIST*
G04 Aperture macros list*
%AMRoundRect*
0 Rectangle with rounded corners*
0 $1 Rounding radius*
0 $2 $3 $4 $5 $6 $7 $8 $9 X,Y pos of 4 corners*
0 Add a 4 corners polygon primitive as box body*
4,1,4,$2,$3,$4,$5,$6,$7,$8,$9,$2,$3,0*
0 Add four circle primitives for the rounded corners*
1,1,$1+$1,$2,$3*
1,1,$1+$1,$4,$5*
1,1,$1+$1,$6,$7*
1,1,$1+$1,$8,$9*
0 Add four rect primitives between the rounded corners*
20,1,$1+$1,$2,$3,$4,$5,0*
20,1,$1+$1,$4,$5,$6,$7,0*
20,1,$1+$1,$6,$7,$8,$9,0*
20,1,$1+$1,$8,$9,$2,$3,0*%
%AMHorizOval*
0 Thick line with rounded ends*
0 $1 width*
0 $2 $3 position (X,Y) of the first rounded end (center of the circle)*
0 $4 $5 position (X,Y) of the second rounded end (center of the circle)*
0 Add line between two ends*
20,1,$1,$2,$3,$4,$5,0*
0 Add two circle primitives to create the rounded ends*
1,1,$1,$2,$3*
1,1,$1,$4,$5*%
G04 Aperture macros list end*
%TA.AperFunction,ComponentPad*%
%ADD10HorizOval,2.250000X0.655001X0.730000X-0.655001X-0.730000X0*%
%TD*%
%TA.AperFunction,ComponentPad*%
%ADD11C,2.250000*%
%TD*%
%TA.AperFunction,ComponentPad*%
%ADD12HorizOval,2.250000X0.020000X0.290000X-0.020000X-0.290000X0*%
%TD*%
%TA.AperFunction,SMDPad,CuDef*%
%ADD13RoundRect,0.225000X0.375000X-0.225000X0.375000X0.225000X-0.375000X0.225000X-0.375000X-0.225000X0*%
%TD*%
%TA.AperFunction,ComponentPad*%
%ADD14O,2.000000X1.600000*%
%TD*%
%TA.AperFunction,SMDPad,CuDef*%
%ADD15RoundRect,0.225000X-0.375000X0.225000X-0.375000X-0.225000X0.375000X-0.225000X0.375000X0.225000X0*%
%TD*%
%TA.AperFunction,ComponentPad*%
%ADD16HorizOval,2.250000X-0.655001X-0.730000X0.655001X0.730000X0*%
%TD*%
%TA.AperFunction,ComponentPad*%
%ADD17HorizOval,2.250000X-0.020000X-0.290000X0.020000X0.290000X0*%
%TD*%
%TA.AperFunction,ComponentPad*%
%ADD18HorizOval,2.250000X0.020004X0.290000X-0.020004X-0.290000X0*%
%TD*%
%TA.AperFunction,ComponentPad*%
%ADD19O,1.400000X0.800000*%
%TD*%
%TA.AperFunction,ViaPad*%
%ADD20C,0.800000*%
%TD*%
%TA.AperFunction,Conductor*%
%ADD21C,0.254000*%
%TD*%
%TA.AperFunction,Conductor*%
%ADD22C,0.200000*%
%TD*%
G04 APERTURE END LIST*
D10*
%TO.P,MX19,1,COL*%
%TO.N,COL3*%
X85713750Y-85511249D03*
D11*
X86368750Y-84781250D03*
D12*
%TO.P,MX19,2,ROW*%
%TO.N,Net-(D19-A)*%
X91388749Y-83991249D03*
D11*
X91408750Y-83701250D03*
%TD*%
D13*
%TO.P,D2,1,K*%
%TO.N,ROW0*%
X58606250Y-33181250D03*
%TO.P,D2,2,A*%
%TO.N,Net-(D2-A)*%
X58606250Y-29881250D03*
%TD*%
D10*
%TO.P,MX20,1,COL*%
%TO.N,COL4*%
X104713750Y-85511249D03*
D11*
X105368750Y-84781250D03*
D12*
%TO.P,MX20,2,ROW*%
%TO.N,Net-(D20-A)*%
X110388749Y-83991249D03*
D11*
X110408750Y-83701250D03*
%TD*%
D13*
%TO.P,D12,1,K*%
%TO.N,ROW2*%
X58606250Y-71281250D03*
%TO.P,D12,2,A*%
%TO.N,Net-(D12-A)*%
X58606250Y-67981250D03*
%TD*%
D10*
%TO.P,MX25,1,COL*%
%TO.N,COL4*%
X104713750Y-104511249D03*
D11*
X105368750Y-103781250D03*
D12*
%TO.P,MX25,2,ROW*%
%TO.N,Net-(D25-A)*%
X110388749Y-102991249D03*
D11*
X110408750Y-102701250D03*
%TD*%
D10*
%TO.P,MX5,1,COL*%
%TO.N,COL4*%
X104713750Y-28511249D03*
D11*
X105368750Y-27781250D03*
D12*
%TO.P,MX5,2,ROW*%
%TO.N,Net-(D5-A)*%
X110388749Y-26991249D03*
D11*
X110408750Y-26701250D03*
%TD*%
D13*
%TO.P,D21,1,K*%
%TO.N,ROW4*%
X39556250Y-109381250D03*
%TO.P,D21,2,A*%
%TO.N,Net-(D21-A)*%
X39556250Y-106081250D03*
%TD*%
D10*
%TO.P,MX13,1,COL*%
%TO.N,COL2*%
X66713750Y-66511249D03*
D11*
X67368750Y-65781250D03*
D12*
%TO.P,MX13,2,ROW*%
%TO.N,Net-(D13-A)*%
X72388749Y-64991249D03*
D11*
X72408750Y-64701250D03*
%TD*%
D13*
%TO.P,D25,1,K*%
%TO.N,ROW4*%
X100012500Y-109537500D03*
%TO.P,D25,2,A*%
%TO.N,Net-(D25-A)*%
X100012500Y-106237500D03*
%TD*%
%TO.P,D5,1,K*%
%TO.N,ROW0*%
X115756250Y-33181250D03*
%TO.P,D5,2,A*%
%TO.N,Net-(D5-A)*%
X115756250Y-29881250D03*
%TD*%
%TO.P,D9,1,K*%
%TO.N,ROW1*%
X96706250Y-52231250D03*
%TO.P,D9,2,A*%
%TO.N,Net-(D9-A)*%
X96706250Y-48931250D03*
%TD*%
D10*
%TO.P,MX15,1,COL*%
%TO.N,COL4*%
X104713750Y-66511249D03*
D11*
X105368750Y-65781250D03*
D12*
%TO.P,MX15,2,ROW*%
%TO.N,Net-(D15-A)*%
X110388749Y-64991249D03*
D11*
X110408750Y-64701250D03*
%TD*%
D14*
%TO.P,J2,1*%
%TO.N,GND*%
X104900749Y-55901249D03*
%TO.P,J2,2*%
%TO.N,+5V*%
X106000749Y-60501249D03*
%TO.P,J2,3*%
%TO.N,Net-(J2-PadR1)*%
X110000749Y-60501249D03*
%TO.P,J2,4*%
%TO.N,Net-(J2-PadR2)*%
X113000749Y-60501249D03*
%TD*%
D10*
%TO.P,MX6,1,COL*%
%TO.N,COL0*%
X28713750Y-47511249D03*
D11*
X29368750Y-46781250D03*
D12*
%TO.P,MX6,2,ROW*%
%TO.N,Net-(D6-A)*%
X34388749Y-45991249D03*
D11*
X34408750Y-45701250D03*
%TD*%
D13*
%TO.P,D7,1,K*%
%TO.N,ROW1*%
X58606250Y-52231250D03*
%TO.P,D7,2,A*%
%TO.N,Net-(D7-A)*%
X58606250Y-48931250D03*
%TD*%
D10*
%TO.P,MX17,1,COL*%
%TO.N,COL1*%
X47713750Y-85511249D03*
D11*
X48368750Y-84781250D03*
D12*
%TO.P,MX17,2,ROW*%
%TO.N,Net-(D17-A)*%
X53388749Y-83991249D03*
D11*
X53408750Y-83701250D03*
%TD*%
D15*
%TO.P,D23,1,K*%
%TO.N,ROW4*%
X61912500Y-106081250D03*
%TO.P,D23,2,A*%
%TO.N,Net-(D23-A)*%
X61912500Y-109381250D03*
%TD*%
D13*
%TO.P,D6,1,K*%
%TO.N,ROW1*%
X39556250Y-52231250D03*
%TO.P,D6,2,A*%
%TO.N,Net-(D6-A)*%
X39556250Y-48931250D03*
%TD*%
D10*
%TO.P,MX9,1,COL*%
%TO.N,COL3*%
X85713750Y-47511249D03*
D11*
X86368750Y-46781250D03*
D12*
%TO.P,MX9,2,ROW*%
%TO.N,Net-(D9-A)*%
X91388749Y-45991249D03*
D11*
X91408750Y-45701250D03*
%TD*%
D10*
%TO.P,MX2,1,COL*%
%TO.N,COL1*%
X47713750Y-28511249D03*
D11*
X48368750Y-27781250D03*
D12*
%TO.P,MX2,2,ROW*%
%TO.N,Net-(D2-A)*%
X53388749Y-26991249D03*
D11*
X53408750Y-26701250D03*
%TD*%
D13*
%TO.P,D13,1,K*%
%TO.N,ROW2*%
X77656250Y-71218750D03*
%TO.P,D13,2,A*%
%TO.N,Net-(D13-A)*%
X77656250Y-67918750D03*
%TD*%
%TO.P,D3,1,K*%
%TO.N,ROW0*%
X77656250Y-33118750D03*
%TO.P,D3,2,A*%
%TO.N,Net-(D3-A)*%
X77656250Y-29818750D03*
%TD*%
%TO.P,D4,1,K*%
%TO.N,ROW0*%
X96706250Y-33181250D03*
%TO.P,D4,2,A*%
%TO.N,Net-(D4-A)*%
X96706250Y-29881250D03*
%TD*%
D16*
%TO.P,MX24,1,COL*%
%TO.N,COL3*%
X92023748Y-111051249D03*
D11*
X91368750Y-111781250D03*
D17*
%TO.P,MX24,2,ROW*%
%TO.N,Net-(D24-A)*%
X86348749Y-112571249D03*
D11*
X86328750Y-112861250D03*
%TD*%
D10*
%TO.P,MX12,1,COL*%
%TO.N,COL1*%
X47713750Y-66511249D03*
D11*
X48368750Y-65781250D03*
D12*
%TO.P,MX12,2,ROW*%
%TO.N,Net-(D12-A)*%
X53388749Y-64991249D03*
D11*
X53408750Y-64701250D03*
%TD*%
D13*
%TO.P,D17,1,K*%
%TO.N,ROW3*%
X58606250Y-90331250D03*
%TO.P,D17,2,A*%
%TO.N,Net-(D17-A)*%
X58606250Y-87031250D03*
%TD*%
D10*
%TO.P,MX3,1,COL*%
%TO.N,COL2*%
X66713750Y-28511249D03*
D11*
X67368750Y-27781250D03*
D12*
%TO.P,MX3,2,ROW*%
%TO.N,Net-(D3-A)*%
X72388749Y-26991249D03*
D11*
X72408750Y-26701250D03*
%TD*%
D10*
%TO.P,MX7,1,COL*%
%TO.N,COL1*%
X47713750Y-47511249D03*
D11*
X48368750Y-46781250D03*
D12*
%TO.P,MX7,2,ROW*%
%TO.N,Net-(D7-A)*%
X53388749Y-45991249D03*
D11*
X53408750Y-45701250D03*
%TD*%
D10*
%TO.P,MX11,1,COL*%
%TO.N,COL0*%
X28713750Y-66511249D03*
D11*
X29368750Y-65781250D03*
D12*
%TO.P,MX11,2,ROW*%
%TO.N,Net-(D11-A)*%
X34388749Y-64991249D03*
D11*
X34408750Y-64701250D03*
%TD*%
D13*
%TO.P,D15,1,K*%
%TO.N,ROW2*%
X115756250Y-71281250D03*
%TO.P,D15,2,A*%
%TO.N,Net-(D15-A)*%
X115756250Y-67981250D03*
%TD*%
%TO.P,D19,1,K*%
%TO.N,ROW3*%
X96706250Y-90331250D03*
%TO.P,D19,2,A*%
%TO.N,Net-(D19-A)*%
X96706250Y-87031250D03*
%TD*%
D16*
%TO.P,MX23,1,COL*%
%TO.N,COL2*%
X73023748Y-111051249D03*
D11*
X72368750Y-111781250D03*
D17*
%TO.P,MX23,2,ROW*%
%TO.N,Net-(D23-A)*%
X67348749Y-112571249D03*
D11*
X67328750Y-112861250D03*
%TD*%
D10*
%TO.P,MX21,1,COL*%
%TO.N,COL0*%
X28713750Y-104511249D03*
D11*
X29368750Y-103781250D03*
D12*
%TO.P,MX21,2,ROW*%
%TO.N,Net-(D21-A)*%
X34388749Y-102991249D03*
D11*
X34408750Y-102701250D03*
%TD*%
D13*
%TO.P,D1,1,K*%
%TO.N,ROW0*%
X39556250Y-33181250D03*
%TO.P,D1,2,A*%
%TO.N,Net-(D1-A)*%
X39556250Y-29881250D03*
%TD*%
%TO.P,D11,1,K*%
%TO.N,ROW2*%
X39556250Y-71281250D03*
%TO.P,D11,2,A*%
%TO.N,Net-(D11-A)*%
X39556250Y-67981250D03*
%TD*%
%TO.P,D14,1,K*%
%TO.N,ROW2*%
X96706250Y-71281250D03*
%TO.P,D14,2,A*%
%TO.N,Net-(D14-A)*%
X96706250Y-67981250D03*
%TD*%
D10*
%TO.P,MX1,1,COL*%
%TO.N,COL0*%
X28713750Y-28511249D03*
D11*
X29368750Y-27781250D03*
D12*
%TO.P,MX1,2,ROW*%
%TO.N,Net-(D1-A)*%
X34388749Y-26991249D03*
D11*
X34408750Y-26701250D03*
%TD*%
D10*
%TO.P,MX14,1,COL*%
%TO.N,COL3*%
X85713750Y-66511249D03*
D11*
X86368750Y-65781250D03*
D12*
%TO.P,MX14,2,ROW*%
%TO.N,Net-(D14-A)*%
X91388749Y-64991249D03*
D11*
X91408750Y-64701250D03*
%TD*%
D13*
%TO.P,D16,1,K*%
%TO.N,ROW3*%
X39556250Y-90331250D03*
%TO.P,D16,2,A*%
%TO.N,Net-(D16-A)*%
X39556250Y-87031250D03*
%TD*%
%TO.P,D22,1,K*%
%TO.N,ROW4*%
X58606250Y-109381250D03*
%TO.P,D22,2,A*%
%TO.N,Net-(D22-A)*%
X58606250Y-106081250D03*
%TD*%
D10*
%TO.P,MX10,1,COL*%
%TO.N,COL4*%
X104713750Y-47511249D03*
D11*
X105368750Y-46781250D03*
D18*
%TO.P,MX10,2,ROW*%
%TO.N,Net-(D10-A)*%
X110388753Y-45991249D03*
D11*
X110408750Y-45701250D03*
%TD*%
D10*
%TO.P,MX4,1,COL*%
%TO.N,COL3*%
X85713750Y-28511249D03*
D11*
X86368750Y-27781250D03*
D12*
%TO.P,MX4,2,ROW*%
%TO.N,Net-(D4-A)*%
X91388749Y-26991249D03*
D11*
X91408750Y-26701250D03*
%TD*%
D13*
%TO.P,D10,1,K*%
%TO.N,ROW1*%
X115756250Y-52231250D03*
%TO.P,D10,2,A*%
%TO.N,Net-(D10-A)*%
X115756250Y-48931250D03*
%TD*%
D10*
%TO.P,MX8,1,COL*%
%TO.N,COL2*%
X66713750Y-47511249D03*
D11*
X67368750Y-46781250D03*
D12*
%TO.P,MX8,2,ROW*%
%TO.N,Net-(D8-A)*%
X72388749Y-45991249D03*
D11*
X72408750Y-45701250D03*
%TD*%
D10*
%TO.P,MX18,1,COL*%
%TO.N,COL2*%
X66713750Y-85511249D03*
D11*
X67368750Y-84781250D03*
D12*
%TO.P,MX18,2,ROW*%
%TO.N,Net-(D18-A)*%
X72388749Y-83991249D03*
D11*
X72408750Y-83701250D03*
%TD*%
D10*
%TO.P,MX16,1,COL*%
%TO.N,COL0*%
X28713750Y-85511249D03*
D11*
X29368750Y-84781250D03*
D12*
%TO.P,MX16,2,ROW*%
%TO.N,Net-(D16-A)*%
X34388749Y-83991249D03*
D11*
X34408750Y-83701250D03*
%TD*%
D15*
%TO.P,D24,1,K*%
%TO.N,ROW4*%
X80962500Y-106300000D03*
%TO.P,D24,2,A*%
%TO.N,Net-(D24-A)*%
X80962500Y-109600000D03*
%TD*%
D13*
%TO.P,D8,1,K*%
%TO.N,ROW1*%
X77656250Y-52231250D03*
%TO.P,D8,2,A*%
%TO.N,Net-(D8-A)*%
X77656250Y-48931250D03*
%TD*%
D10*
%TO.P,MX22,1,COL*%
%TO.N,COL1*%
X47713750Y-104511249D03*
D11*
X48368750Y-103781250D03*
D12*
%TO.P,MX22,2,ROW*%
%TO.N,Net-(D22-A)*%
X53388749Y-102991249D03*
D11*
X53408750Y-102701250D03*
%TD*%
D13*
%TO.P,D20,1,K*%
%TO.N,ROW3*%
X115756250Y-90331250D03*
%TO.P,D20,2,A*%
%TO.N,Net-(D20-A)*%
X115756250Y-87031250D03*
%TD*%
%TO.P,D18,1,K*%
%TO.N,ROW3*%
X77656250Y-90331250D03*
%TO.P,D18,2,A*%
%TO.N,Net-(D18-A)*%
X77656250Y-87031250D03*
%TD*%
D19*
%TO.P,J1,S1,SHIELD*%
%TO.N,N/C*%
X115738749Y-45419249D03*
%TO.N,Net-(D10-A)*%
X109788749Y-45059249D03*
%TO.N,N/C*%
X109788749Y-36799249D03*
X115738749Y-36439249D03*
%TD*%
D20*
%TO.N,+5V*%
X78252000Y-105229000D03*
X90678000Y-96012000D03*
X87625000Y-102706250D03*
X77488500Y-60706000D03*
%TO.N,GND*%
X92329000Y-43053000D03*
%TO.N,ROW0*%
X95250000Y-45720000D03*
%TO.N,TX*%
X96587789Y-94396500D03*
%TO.N,RX*%
X97536000Y-94742000D03*
X72517000Y-95487503D03*
%TO.N,TX*%
X72517000Y-94488000D03*
%TO.N,+5V*%
X71501000Y-105229000D03*
%TO.N,Net-(U2-XTAL1)*%
X64389000Y-94681000D03*
X70777750Y-93762177D03*
%TO.N,+5V*%
X73751500Y-90078500D03*
%TO.N,GND*%
X83349317Y-43464096D03*
%TO.N,+5V*%
X93853000Y-43815000D03*
%TO.N,VCC*%
X110617000Y-42155750D03*
X110617006Y-39703011D03*
%TO.N,Net-(J1-D--PadA7)*%
X105537000Y-42037000D03*
X110617000Y-40702513D03*
%TO.N,+5V*%
X71501000Y-100225250D03*
X83185000Y-44450000D03*
%TO.N,ROW0*%
X95758000Y-61722000D03*
X100203000Y-66167000D03*
X99978500Y-96313555D03*
X94608354Y-96386245D03*
%TO.N,ROW1*%
X100639245Y-97063500D03*
X101215540Y-66152113D03*
X95309312Y-97098750D03*
%TO.N,ROW2*%
X101346000Y-97790000D03*
X101432000Y-74676000D03*
X96043750Y-97790000D03*
%TO.N,ROW3*%
X95396424Y-98551750D03*
%TO.N,ROW4*%
X94777874Y-99336862D03*
%TO.N,VCC*%
X100012500Y-38893750D03*
X105568750Y-38893750D03*
%TO.N,COL0*%
X77351750Y-81320500D03*
X30956250Y-80962500D03*
%TO.N,COL1*%
X78151750Y-80533000D03*
X50800000Y-80594000D03*
%TO.N,COL2*%
X69850000Y-80140000D03*
X78951750Y-79745500D03*
%TO.N,COL3*%
X84137500Y-80646750D03*
X79751750Y-80585750D03*
X99524500Y-82211311D03*
%TO.N,COL4*%
X80551750Y-81373250D03*
X103187500Y-80962500D03*
%TO.N,D+*%
X99218750Y-50800000D03*
X99218750Y-43942000D03*
%TO.N,Net-(J1-CC2)*%
X105370000Y-37306250D03*
X113506250Y-41275000D03*
%TO.N,RX*%
X100806250Y-53975000D03*
X96837500Y-57737997D03*
%TO.N,TX*%
X96837500Y-58737500D03*
X100806250Y-61118750D03*
%TD*%
D21*
%TO.N,ROW2*%
X57735350Y-72152150D02*
X58606250Y-71281250D01*
X40427150Y-72152150D02*
X57735350Y-72152150D01*
X39556250Y-71281250D02*
X40427150Y-72152150D01*
%TO.N,+5V*%
X78252000Y-105229000D02*
X85102250Y-105229000D01*
X85102250Y-105229000D02*
X87625000Y-102706250D01*
X90678000Y-96012000D02*
X87625000Y-99065000D01*
X87625000Y-99065000D02*
X87625000Y-102706250D01*
%TO.N,Net-(J1-CC2)*%
X110245500Y-35633000D02*
X113506250Y-38893750D01*
X113506250Y-38893750D02*
X113506250Y-41275000D01*
X107043250Y-35633000D02*
X110245500Y-35633000D01*
X105370000Y-37306250D02*
X107043250Y-35633000D01*
%TO.N,COL4*%
X103558155Y-29241250D02*
X104058750Y-29241250D01*
X99060000Y-33739405D02*
X103558155Y-29241250D01*
%TO.N,+5V*%
X77615500Y-60833000D02*
X77488500Y-60706000D01*
X85598000Y-60833000D02*
X77615500Y-60833000D01*
X106000750Y-62395037D02*
X106000750Y-60501250D01*
X101501787Y-66894000D02*
X106000750Y-62395037D01*
X99901866Y-66894000D02*
X101501787Y-66894000D01*
X93840866Y-60833000D02*
X99901866Y-66894000D01*
X85598000Y-60833000D02*
X93840866Y-60833000D01*
%TO.N,Net-(J1-D--PadA7)*%
X109282513Y-42037000D02*
X105537000Y-42037000D01*
X110617000Y-40702513D02*
X109282513Y-42037000D01*
%TO.N,+5V*%
X93726000Y-43942000D02*
X93853000Y-43815000D01*
X88646000Y-43942000D02*
X93726000Y-43942000D01*
%TO.N,GND*%
X88892948Y-43053000D02*
X92329000Y-43053000D01*
X83827221Y-43942000D02*
X88003948Y-43942000D01*
X88003948Y-43942000D02*
X88892948Y-43053000D01*
X83349317Y-43464096D02*
X83827221Y-43942000D01*
%TO.N,ROW0*%
X95758000Y-45212000D02*
X95250000Y-45720000D01*
X95758000Y-35052000D02*
X95758000Y-45212000D01*
X95296750Y-34590750D02*
X95758000Y-35052000D01*
%TO.N,+5V*%
X71501000Y-105229000D02*
X71501000Y-100225250D01*
X71504250Y-100222000D02*
X71501000Y-100225250D01*
X71504250Y-91817750D02*
X71504250Y-100222000D01*
X73279000Y-90043000D02*
X71504250Y-91817750D01*
X73716000Y-90043000D02*
X73279000Y-90043000D01*
X73751500Y-90078500D02*
X73716000Y-90043000D01*
%TO.N,ROW4*%
X66040750Y-107262655D02*
X64859345Y-106081250D01*
X66040750Y-107549677D02*
X66040750Y-107262655D01*
X64859345Y-106081250D02*
X61912500Y-106081250D01*
X71754719Y-113263646D02*
X66040750Y-107549677D01*
X73998854Y-113263646D02*
X71754719Y-113263646D01*
X80962500Y-106300000D02*
X73998854Y-113263646D01*
%TO.N,TX*%
X96496289Y-94488000D02*
X96587789Y-94396500D01*
X92837000Y-94488000D02*
X96496289Y-94488000D01*
%TO.N,RX*%
X97155000Y-95123000D02*
X97536000Y-94742000D01*
X91948000Y-95123000D02*
X97155000Y-95123000D01*
X72517000Y-95487503D02*
X72881503Y-95123000D01*
X72881503Y-95123000D02*
X91948000Y-95123000D01*
%TO.N,TX*%
X72517000Y-94488000D02*
X92837000Y-94488000D01*
%TO.N,ROW3*%
X65009345Y-90331250D02*
X58606250Y-90331250D01*
X66040750Y-89299845D02*
X65009345Y-90331250D01*
X66040750Y-89256291D02*
X66040750Y-89299845D01*
X74348445Y-86410350D02*
X68886691Y-86410350D01*
X77656250Y-89718155D02*
X74348445Y-86410350D01*
X77656250Y-90331250D02*
X77656250Y-89718155D01*
X68886691Y-86410350D02*
X66040750Y-89256291D01*
X96706250Y-89768155D02*
X96706250Y-90331250D01*
X93044095Y-86106000D02*
X96706250Y-89768155D01*
X88191041Y-86106000D02*
X93044095Y-86106000D01*
X85344000Y-88953041D02*
X88191041Y-86106000D01*
X85344000Y-89027000D02*
X85344000Y-88953041D01*
X85313595Y-89027000D02*
X85344000Y-89027000D01*
X84307345Y-90033250D02*
X85313595Y-89027000D01*
X77954250Y-90033250D02*
X84307345Y-90033250D01*
X77656250Y-90331250D02*
X77954250Y-90033250D01*
%TO.N,ROW4*%
X92583000Y-114046000D02*
X97361375Y-109267625D01*
X90043000Y-114046000D02*
X92583000Y-114046000D01*
X89154000Y-113157000D02*
X90043000Y-114046000D01*
X89154000Y-112141000D02*
X89154000Y-113157000D01*
X85471000Y-108458000D02*
X89154000Y-112141000D01*
X85471000Y-106934000D02*
X85471000Y-108458000D01*
X84837000Y-106300000D02*
X85471000Y-106934000D01*
X80962500Y-106300000D02*
X84837000Y-106300000D01*
X97361375Y-109267625D02*
X97631250Y-109537500D01*
X96837500Y-108743750D02*
X97361375Y-109267625D01*
%TO.N,Net-(U2-XTAL1)*%
X64262000Y-94554000D02*
X64389000Y-94681000D01*
X64262000Y-91948000D02*
X64262000Y-94554000D01*
X64643000Y-91567000D02*
X64262000Y-91948000D01*
X70777750Y-91986750D02*
X70358000Y-91567000D01*
X70777750Y-93762177D02*
X70777750Y-91986750D01*
X70358000Y-91567000D02*
X64643000Y-91567000D01*
%TO.N,ROW0*%
X111252000Y-31242000D02*
X111252000Y-32766000D01*
X105918000Y-25908000D02*
X111252000Y-31242000D01*
X111252000Y-32766000D02*
X111667250Y-33181250D01*
X103979500Y-25908000D02*
X105918000Y-25908000D01*
X96706250Y-33181250D02*
X103979500Y-25908000D01*
X111667250Y-33181250D02*
X115756250Y-33181250D01*
%TO.N,COL4*%
X99060000Y-42164000D02*
X99060000Y-33739405D01*
X99949000Y-43053000D02*
X99060000Y-42164000D01*
X102851250Y-48241250D02*
X99949000Y-45339000D01*
X99949000Y-45339000D02*
X99949000Y-43053000D01*
X104058750Y-48241250D02*
X102851250Y-48241250D01*
D22*
%TO.N,D+*%
X99218750Y-50800000D02*
X99218750Y-43942000D01*
D21*
%TO.N,VCC*%
X111560000Y-41212750D02*
X110617000Y-42155750D01*
X111560000Y-40617379D02*
X111560000Y-41021000D01*
X110645632Y-39703011D02*
X111560000Y-40617379D01*
X111560000Y-41021000D02*
X111560000Y-41212750D01*
X110617006Y-39703011D02*
X110645632Y-39703011D01*
%TO.N,+5V*%
X88138000Y-44450000D02*
X88646000Y-43942000D01*
X83185000Y-44450000D02*
X88138000Y-44450000D01*
%TO.N,Net-(D1-A)*%
X39556250Y-29881250D02*
X36956250Y-27281250D01*
X36956250Y-27281250D02*
X34368750Y-27281250D01*
%TO.N,ROW0*%
X42093750Y-35718750D02*
X56068750Y-35718750D01*
X77656250Y-33118750D02*
X80256250Y-35718750D01*
X58606250Y-33181250D02*
X61143750Y-35718750D01*
X39556250Y-33181250D02*
X42093750Y-35718750D01*
X99920305Y-96371750D02*
X99978500Y-96313555D01*
X94608354Y-96386245D02*
X94622849Y-96371750D01*
X61143750Y-35718750D02*
X75056250Y-35718750D01*
X94622849Y-96371750D02*
X99920305Y-96371750D01*
X80256250Y-35718750D02*
X94168750Y-35718750D01*
X94168750Y-35718750D02*
X95296750Y-34590750D01*
X100203000Y-66167000D02*
X95758000Y-61722000D01*
X75056250Y-35718750D02*
X77656250Y-33118750D01*
X95296750Y-34590750D02*
X96706250Y-33181250D01*
X56068750Y-35718750D02*
X58606250Y-33181250D01*
%TO.N,Net-(D2-A)*%
X58606250Y-29881250D02*
X56006250Y-27281250D01*
X56006250Y-27281250D02*
X53368750Y-27281250D01*
%TO.N,Net-(D3-A)*%
X77656250Y-29818750D02*
X75118750Y-27281250D01*
X75118750Y-27281250D02*
X72368750Y-27281250D01*
%TO.N,ROW1*%
X94168750Y-54768750D02*
X95360250Y-53577250D01*
X101215540Y-66151406D02*
X100402108Y-65337974D01*
X61143750Y-54768750D02*
X75118750Y-54768750D01*
X42093750Y-54768750D02*
X56068750Y-54768750D01*
X96817500Y-61753366D02*
X95377000Y-60312866D01*
X95360250Y-53577250D02*
X96706250Y-52231250D01*
X95377000Y-53594000D02*
X95360250Y-53577250D01*
X95377000Y-60312866D02*
X95377000Y-53594000D01*
X77656250Y-52231250D02*
X80193750Y-54768750D01*
X96817500Y-62139448D02*
X96817500Y-61753366D01*
X115756250Y-52231250D02*
X114012500Y-53975000D01*
X100638745Y-97063000D02*
X100639245Y-97063500D01*
X95309312Y-97098750D02*
X95345062Y-97063000D01*
X100016026Y-65337974D02*
X96817500Y-62139448D01*
X58606250Y-52231250D02*
X61143750Y-54768750D01*
X80193750Y-54768750D02*
X94168750Y-54768750D01*
X101215540Y-66152113D02*
X101215540Y-66151406D01*
X75118750Y-54768750D02*
X77656250Y-52231250D01*
X95345062Y-97063000D02*
X100638745Y-97063000D01*
X56068750Y-54768750D02*
X58606250Y-52231250D01*
X102237500Y-52231250D02*
X96706250Y-52231250D01*
X100402108Y-65337974D02*
X100016026Y-65337974D01*
X103981250Y-53975000D02*
X102237500Y-52231250D01*
X39556250Y-52231250D02*
X42093750Y-54768750D01*
X114012500Y-53975000D02*
X103981250Y-53975000D01*
%TO.N,Net-(D4-A)*%
X96706250Y-29881250D02*
X94106250Y-27281250D01*
X94106250Y-27281250D02*
X91368750Y-27281250D01*
%TO.N,Net-(D5-A)*%
X115756250Y-29881250D02*
X113156250Y-27281250D01*
X113156250Y-27281250D02*
X110368750Y-27281250D01*
%TO.N,Net-(D6-A)*%
X36906250Y-46281250D02*
X34368750Y-46281250D01*
X39556250Y-48931250D02*
X36906250Y-46281250D01*
%TO.N,Net-(D7-A)*%
X55956250Y-46281250D02*
X53368750Y-46281250D01*
X58606250Y-48931250D02*
X55956250Y-46281250D01*
%TO.N,Net-(D8-A)*%
X77656250Y-48931250D02*
X75006250Y-46281250D01*
X75006250Y-46281250D02*
X72368750Y-46281250D01*
%TO.N,Net-(D9-A)*%
X94056250Y-46281250D02*
X91368750Y-46281250D01*
X96706250Y-48931250D02*
X94056250Y-46281250D01*
%TO.N,Net-(D10-A)*%
X113106250Y-46281250D02*
X110368750Y-46281250D01*
X115756250Y-48931250D02*
X113106250Y-46281250D01*
%TO.N,Net-(D11-A)*%
X39556250Y-67981250D02*
X36856250Y-65281250D01*
X36856250Y-65281250D02*
X34368750Y-65281250D01*
%TO.N,ROW2*%
X77656250Y-71218750D02*
X80256250Y-73818750D01*
X94168750Y-73818750D02*
X96706250Y-71281250D01*
X101504750Y-74676000D02*
X102362000Y-73818750D01*
X61143750Y-73818750D02*
X75056250Y-73818750D01*
X75056250Y-73818750D02*
X77656250Y-71218750D01*
X102362000Y-73818750D02*
X113218750Y-73818750D01*
X101432000Y-74676000D02*
X101504750Y-74676000D01*
X58606250Y-71281250D02*
X61143750Y-73818750D01*
X96043750Y-97790000D02*
X101346000Y-97790000D01*
X99243750Y-73818750D02*
X102362000Y-73818750D01*
X96706250Y-71281250D02*
X99243750Y-73818750D01*
X113218750Y-73818750D02*
X115756250Y-71281250D01*
X80256250Y-73818750D02*
X94168750Y-73818750D01*
%TO.N,Net-(D12-A)*%
X55906250Y-65281250D02*
X53368750Y-65281250D01*
X58606250Y-67981250D02*
X55906250Y-65281250D01*
%TO.N,Net-(D13-A)*%
X77656250Y-67918750D02*
X75018750Y-65281250D01*
X75018750Y-65281250D02*
X72368750Y-65281250D01*
%TO.N,Net-(D14-A)*%
X94006250Y-65281250D02*
X91368750Y-65281250D01*
X96706250Y-67981250D02*
X94006250Y-65281250D01*
%TO.N,Net-(D15-A)*%
X113056250Y-65281250D02*
X110368750Y-65281250D01*
X115756250Y-67981250D02*
X113056250Y-65281250D01*
%TO.N,Net-(D16-A)*%
X39556250Y-87031250D02*
X36806250Y-84281250D01*
X36806250Y-84281250D02*
X34368750Y-84281250D01*
%TO.N,ROW3*%
X99243750Y-92868750D02*
X102362000Y-92868750D01*
X113218750Y-92868750D02*
X115756250Y-90331250D01*
X96706250Y-90331250D02*
X99243750Y-92868750D01*
X56068750Y-92868750D02*
X58606250Y-90331250D01*
X39556250Y-90331250D02*
X42093750Y-92868750D01*
X101991955Y-98551750D02*
X102362000Y-98181705D01*
X102362000Y-92868750D02*
X113218750Y-92868750D01*
X102362000Y-98181705D02*
X102362000Y-92868750D01*
X95396424Y-98551750D02*
X101991955Y-98551750D01*
X42093750Y-92868750D02*
X56068750Y-92868750D01*
%TO.N,Net-(D17-A)*%
X58606250Y-87031250D02*
X55856250Y-84281250D01*
X55856250Y-84281250D02*
X53368750Y-84281250D01*
%TO.N,Net-(D18-A)*%
X74906250Y-84281250D02*
X72368750Y-84281250D01*
X77656250Y-87031250D02*
X74906250Y-84281250D01*
%TO.N,Net-(D19-A)*%
X93956250Y-84281250D02*
X91368750Y-84281250D01*
X96706250Y-87031250D02*
X93956250Y-84281250D01*
%TO.N,Net-(D20-A)*%
X115756250Y-87031250D02*
X113006250Y-84281250D01*
X113006250Y-84281250D02*
X110368750Y-84281250D01*
%TO.N,Net-(D21-A)*%
X36756250Y-103281250D02*
X34368750Y-103281250D01*
X39556250Y-106081250D02*
X36756250Y-103281250D01*
%TO.N,ROW4*%
X97631250Y-109537500D02*
X100012500Y-109537500D01*
X94789625Y-105108375D02*
X96837500Y-107156250D01*
X39556250Y-109381250D02*
X41300000Y-111125000D01*
X56862500Y-111125000D02*
X58606250Y-109381250D01*
X94777874Y-99336862D02*
X94789625Y-99348613D01*
X58606250Y-109381250D02*
X59687500Y-109381250D01*
X59687500Y-109381250D02*
X60325000Y-108743750D01*
X41300000Y-111125000D02*
X56862500Y-111125000D01*
X96837500Y-107156250D02*
X96837500Y-108743750D01*
X60325000Y-108743750D02*
X60325000Y-107156250D01*
X60325000Y-107156250D02*
X61400000Y-106081250D01*
X94789625Y-99348613D02*
X94789625Y-105108375D01*
X61400000Y-106081250D02*
X61912500Y-106081250D01*
%TO.N,Net-(D22-A)*%
X58606250Y-106081250D02*
X55806250Y-103281250D01*
X55806250Y-103281250D02*
X53368750Y-103281250D01*
%TO.N,Net-(D23-A)*%
X64812500Y-112281250D02*
X67368750Y-112281250D01*
X61912500Y-109381250D02*
X64812500Y-112281250D01*
%TO.N,Net-(D24-A)*%
X83643750Y-112281250D02*
X86368750Y-112281250D01*
X80962500Y-109600000D02*
X83643750Y-112281250D01*
%TO.N,Net-(D25-A)*%
X100012500Y-106237500D02*
X100012500Y-103981250D01*
X102393750Y-101600000D02*
X108687500Y-101600000D01*
X108687500Y-101600000D02*
X110368750Y-103281250D01*
X100012500Y-103981250D02*
X102393750Y-101600000D01*
%TO.N,VCC*%
X105568750Y-38893750D02*
X100012500Y-38893750D01*
%TO.N,COL0*%
X30956250Y-80962500D02*
X31314250Y-81320500D01*
X31314250Y-81320500D02*
X77351750Y-81320500D01*
%TO.N,COL1*%
X51072500Y-80866500D02*
X76777616Y-80866500D01*
X50800000Y-80594000D02*
X51072500Y-80866500D01*
X76777616Y-80866500D02*
X77111116Y-80533000D01*
X77111116Y-80533000D02*
X78151750Y-80533000D01*
%TO.N,COL2*%
X77637683Y-80018933D02*
X77911116Y-79745500D01*
X77911116Y-79745500D02*
X78951750Y-79745500D01*
X70122500Y-80412500D02*
X76589563Y-80412500D01*
X76589563Y-80412500D02*
X76983130Y-80018933D01*
X69850000Y-80140000D02*
X70122500Y-80412500D01*
X76983130Y-80018933D02*
X77637683Y-80018933D01*
%TO.N,COL3*%
X81125884Y-80919250D02*
X80852884Y-80646250D01*
X79812250Y-80646250D02*
X79751750Y-80585750D01*
X83865000Y-80919250D02*
X81125884Y-80919250D01*
X80852884Y-80646250D02*
X79812250Y-80646250D01*
X99524500Y-82211311D02*
X88938689Y-82211311D01*
X88938689Y-82211311D02*
X86368750Y-84781250D01*
X84137500Y-80646750D02*
X83865000Y-80919250D01*
%TO.N,COL4*%
X80551750Y-81373250D02*
X102776750Y-81373250D01*
X102776750Y-81373250D02*
X103187500Y-80962500D01*
%TO.N,RX*%
X97043253Y-57737997D02*
X100806250Y-53975000D01*
X96837500Y-57737997D02*
X97043253Y-57737997D01*
%TO.N,TX*%
X96837500Y-58737500D02*
X99218750Y-61118750D01*
X99218750Y-61118750D02*
X100806250Y-61118750D01*
%TD*%
M02*
