%TF.GenerationSoftware,KiCad,Pcbnew,(7.0.0)*%
%TF.CreationDate,2023-03-14T21:06:17+08:00*%
%TF.ProjectId,kai_split_left,6b61695f-7370-46c6-9974-5f6c6566742e,rev?*%
%TF.SameCoordinates,Original*%
%TF.FileFunction,Legend,Bot*%
%TF.FilePolarity,Positive*%
%FSLAX46Y46*%
G04 Gerber Fmt 4.6, Leading zero omitted, Abs format (unit mm)*
G04 Created by KiCad (PCBNEW (7.0.0)) date 2023-03-14 21:06:17*
%MOMM*%
%LPD*%
G01*
G04 APERTURE LIST*
G04 Aperture macros list*
%AMRoundRect*
0 Rectangle with rounded corners*
0 $1 Rounding radius*
0 $2 $3 $4 $5 $6 $7 $8 $9 X,Y pos of 4 corners*
0 Add a 4 corners polygon primitive as box body*
4,1,4,$2,$3,$4,$5,$6,$7,$8,$9,$2,$3,0*
0 Add four circle primitives for the rounded corners*
1,1,$1+$1,$2,$3*
1,1,$1+$1,$4,$5*
1,1,$1+$1,$6,$7*
1,1,$1+$1,$8,$9*
0 Add four rect primitives between the rounded corners*
20,1,$1+$1,$2,$3,$4,$5,0*
20,1,$1+$1,$4,$5,$6,$7,0*
20,1,$1+$1,$6,$7,$8,$9,0*
20,1,$1+$1,$8,$9,$2,$3,0*%
%AMHorizOval*
0 Thick line with rounded ends*
0 $1 width*
0 $2 $3 position (X,Y) of the first rounded end (center of the circle)*
0 $4 $5 position (X,Y) of the second rounded end (center of the circle)*
0 Add line between two ends*
20,1,$1,$2,$3,$4,$5,0*
0 Add two circle primitives to create the rounded ends*
1,1,$1,$2,$3*
1,1,$1,$4,$5*%
G04 Aperture macros list end*
%ADD10C,0.150000*%
%ADD11C,0.120000*%
%ADD12C,1.750000*%
%ADD13C,3.987800*%
%ADD14HorizOval,2.250000X0.655001X0.730000X-0.655001X-0.730000X0*%
%ADD15C,2.250000*%
%ADD16HorizOval,2.250000X0.020000X0.290000X-0.020000X-0.290000X0*%
%ADD17C,0.800000*%
%ADD18O,2.000000X1.600000*%
%ADD19HorizOval,2.250000X-0.655001X-0.730000X0.655001X0.730000X0*%
%ADD20HorizOval,2.250000X-0.020000X-0.290000X0.020000X0.290000X0*%
%ADD21HorizOval,2.250000X0.020004X0.290000X-0.020004X-0.290000X0*%
%ADD22R,0.550000X1.500000*%
%ADD23R,1.500000X0.550000*%
%ADD24RoundRect,0.250000X0.450000X-0.262500X0.450000X0.262500X-0.450000X0.262500X-0.450000X-0.262500X0*%
%ADD25RoundRect,0.250000X-0.450000X0.262500X-0.450000X-0.262500X0.450000X-0.262500X0.450000X0.262500X0*%
%ADD26RoundRect,0.250000X0.475000X-0.250000X0.475000X0.250000X-0.475000X0.250000X-0.475000X-0.250000X0*%
%ADD27R,1.100000X1.800000*%
%ADD28RoundRect,0.250000X-0.475000X0.250000X-0.475000X-0.250000X0.475000X-0.250000X0.475000X0.250000X0*%
%ADD29RoundRect,0.250000X0.250000X0.475000X-0.250000X0.475000X-0.250000X-0.475000X0.250000X-0.475000X0*%
%ADD30RoundRect,0.250000X-0.262500X-0.450000X0.262500X-0.450000X0.262500X0.450000X-0.262500X0.450000X0*%
%ADD31R,1.400000X1.200000*%
%ADD32RoundRect,0.250000X0.262500X0.450000X-0.262500X0.450000X-0.262500X-0.450000X0.262500X-0.450000X0*%
%ADD33O,1.400000X0.800000*%
%ADD34R,0.700000X0.300000*%
%ADD35O,0.650000X0.950000*%
%ADD36C,0.650000*%
%ADD37RoundRect,0.250000X0.375000X0.625000X-0.375000X0.625000X-0.375000X-0.625000X0.375000X-0.625000X0*%
%ADD38RoundRect,0.250000X-0.250000X-0.475000X0.250000X-0.475000X0.250000X0.475000X-0.250000X0.475000X0*%
G04 APERTURE END LIST*
D10*
G36*
X46427715Y-114465951D02*
G01*
X46458489Y-114672092D01*
X47205872Y-114672092D01*
X47205872Y-115291492D01*
X46556187Y-115291492D01*
X46556187Y-115497633D01*
X47205872Y-115497633D01*
X47205872Y-116166859D01*
X46405244Y-116166859D01*
X46405244Y-116373000D01*
X47472097Y-116373000D01*
X47472097Y-114465951D01*
X46427715Y-114465951D01*
G37*
G36*
X45322272Y-114872371D02*
G01*
X45297399Y-114872839D01*
X45273217Y-114874241D01*
X45249726Y-114876579D01*
X45226925Y-114879851D01*
X45204816Y-114884059D01*
X45183397Y-114889201D01*
X45162668Y-114895279D01*
X45142631Y-114902291D01*
X45123284Y-114910239D01*
X45104628Y-114919121D01*
X45086663Y-114928938D01*
X45069389Y-114939691D01*
X45052805Y-114951378D01*
X45036912Y-114964001D01*
X45021710Y-114977558D01*
X45007198Y-114992050D01*
X44993475Y-115007360D01*
X44980637Y-115023367D01*
X44968684Y-115040073D01*
X44957617Y-115057477D01*
X44947435Y-115075580D01*
X44938139Y-115094381D01*
X44929728Y-115113880D01*
X44922202Y-115134078D01*
X44915562Y-115154974D01*
X44909807Y-115176568D01*
X44904937Y-115198861D01*
X44900953Y-115221852D01*
X44897854Y-115245542D01*
X44895640Y-115269930D01*
X44894312Y-115295017D01*
X44893870Y-115320801D01*
X44893870Y-116373000D01*
X45151302Y-116373000D01*
X45151302Y-115361346D01*
X45151821Y-115333027D01*
X45153380Y-115306322D01*
X45155977Y-115281232D01*
X45159614Y-115257756D01*
X45164289Y-115235894D01*
X45170003Y-115215647D01*
X45176757Y-115197014D01*
X45187378Y-115174681D01*
X45199845Y-115155218D01*
X45210408Y-115142504D01*
X45225941Y-115127506D01*
X45243229Y-115114508D01*
X45262272Y-115103509D01*
X45283071Y-115094510D01*
X45305625Y-115087511D01*
X45329935Y-115082512D01*
X45356000Y-115079512D01*
X45376701Y-115078575D01*
X45383821Y-115078512D01*
X45405650Y-115079122D01*
X45426989Y-115080951D01*
X45447839Y-115083999D01*
X45468199Y-115088267D01*
X45488070Y-115093754D01*
X45507452Y-115100460D01*
X45526344Y-115108385D01*
X45544746Y-115117530D01*
X45562660Y-115127894D01*
X45580083Y-115139478D01*
X45591427Y-115147877D01*
X45608090Y-115161416D01*
X45624555Y-115176019D01*
X45640822Y-115191687D01*
X45656892Y-115208419D01*
X45672764Y-115226216D01*
X45688439Y-115245078D01*
X45703917Y-115265005D01*
X45719197Y-115285997D01*
X45734279Y-115308053D01*
X45749164Y-115331174D01*
X45758978Y-115347180D01*
X45758978Y-116373000D01*
X46016410Y-116373000D01*
X46016410Y-114903635D01*
X45795614Y-114903635D01*
X45773144Y-115142016D01*
X45758071Y-115118862D01*
X45742346Y-115096661D01*
X45725969Y-115075413D01*
X45708939Y-115055119D01*
X45691256Y-115035777D01*
X45672920Y-115017389D01*
X45653932Y-114999954D01*
X45634292Y-114983471D01*
X45613999Y-114967942D01*
X45593053Y-114953367D01*
X45578727Y-114944179D01*
X45556718Y-114931346D01*
X45534288Y-114919776D01*
X45511437Y-114909467D01*
X45488166Y-114900421D01*
X45464474Y-114892637D01*
X45440361Y-114886116D01*
X45415828Y-114880857D01*
X45390873Y-114876859D01*
X45365498Y-114874125D01*
X45339703Y-114872652D01*
X45322272Y-114872371D01*
G37*
G36*
X43632600Y-116306565D02*
G01*
X43650948Y-116318396D01*
X43669602Y-116329463D01*
X43688562Y-116339767D01*
X43707826Y-116349308D01*
X43727396Y-116358085D01*
X43747272Y-116366100D01*
X43767452Y-116373351D01*
X43787938Y-116379838D01*
X43808729Y-116385563D01*
X43829826Y-116390524D01*
X43851228Y-116394722D01*
X43872935Y-116398157D01*
X43894947Y-116400828D01*
X43917265Y-116402736D01*
X43939888Y-116403881D01*
X43962816Y-116404263D01*
X43985941Y-116403847D01*
X44008421Y-116402599D01*
X44030256Y-116400519D01*
X44051446Y-116397607D01*
X44071991Y-116393863D01*
X44091891Y-116389287D01*
X44111146Y-116383880D01*
X44129756Y-116377640D01*
X44156462Y-116366721D01*
X44181717Y-116353929D01*
X44205520Y-116339266D01*
X44227873Y-116322731D01*
X44248774Y-116304324D01*
X44255419Y-116297773D01*
X44274188Y-116276969D01*
X44291111Y-116254490D01*
X44306188Y-116230337D01*
X44319418Y-116204510D01*
X44327213Y-116186362D01*
X44334187Y-116167469D01*
X44340341Y-116147832D01*
X44345674Y-116127451D01*
X44350187Y-116106326D01*
X44353879Y-116084457D01*
X44356751Y-116061844D01*
X44358802Y-116038486D01*
X44360033Y-116014384D01*
X44360443Y-115989538D01*
X44360443Y-115109775D01*
X44617875Y-115109775D01*
X44617875Y-114903635D01*
X44360443Y-114903635D01*
X44360443Y-114572441D01*
X44103011Y-114541667D01*
X44103011Y-114903635D01*
X43752767Y-114903635D01*
X43781099Y-115109775D01*
X44103011Y-115109775D01*
X44103011Y-115981722D01*
X44102655Y-116002514D01*
X44101586Y-116022206D01*
X44099052Y-116046752D01*
X44095251Y-116069345D01*
X44090183Y-116089983D01*
X44083848Y-116108668D01*
X44074147Y-116129276D01*
X44062467Y-116146831D01*
X44048332Y-116161607D01*
X44031574Y-116173879D01*
X44012192Y-116183646D01*
X43990186Y-116190909D01*
X43970693Y-116194916D01*
X43949520Y-116197320D01*
X43926668Y-116198122D01*
X43904579Y-116197221D01*
X43881788Y-116194519D01*
X43858295Y-116190016D01*
X43834100Y-116183711D01*
X43809202Y-116175605D01*
X43790069Y-116168344D01*
X43770540Y-116160069D01*
X43750616Y-116150781D01*
X43730297Y-116140480D01*
X43632600Y-116306565D01*
G37*
G36*
X42926547Y-114872763D02*
G01*
X42949422Y-114873936D01*
X42971915Y-114875892D01*
X42994027Y-114878630D01*
X43015757Y-114882151D01*
X43037105Y-114886454D01*
X43058072Y-114891539D01*
X43078657Y-114897406D01*
X43098860Y-114904056D01*
X43118682Y-114911488D01*
X43138122Y-114919703D01*
X43157181Y-114928700D01*
X43175858Y-114938479D01*
X43194153Y-114949041D01*
X43212067Y-114960385D01*
X43229599Y-114972511D01*
X43246629Y-114985328D01*
X43263159Y-114998744D01*
X43279190Y-115012760D01*
X43294720Y-115027374D01*
X43309751Y-115042588D01*
X43324281Y-115058401D01*
X43338312Y-115074813D01*
X43351842Y-115091824D01*
X43364873Y-115109434D01*
X43377404Y-115127643D01*
X43389435Y-115146452D01*
X43400966Y-115165860D01*
X43411997Y-115185867D01*
X43422528Y-115206473D01*
X43432559Y-115227678D01*
X43442090Y-115249482D01*
X43451081Y-115271726D01*
X43459493Y-115294370D01*
X43467324Y-115317414D01*
X43474575Y-115340860D01*
X43481245Y-115364706D01*
X43487336Y-115388953D01*
X43492847Y-115413600D01*
X43497778Y-115438648D01*
X43502128Y-115464097D01*
X43505899Y-115489947D01*
X43509089Y-115516198D01*
X43511699Y-115542849D01*
X43513730Y-115569900D01*
X43515180Y-115597353D01*
X43516050Y-115625206D01*
X43516340Y-115653460D01*
X43516172Y-115675204D01*
X43515668Y-115696655D01*
X43514829Y-115717813D01*
X43513653Y-115738678D01*
X43512142Y-115759250D01*
X43510295Y-115779529D01*
X43508112Y-115799516D01*
X43505593Y-115819209D01*
X43499548Y-115857718D01*
X43492160Y-115895054D01*
X43483428Y-115931220D01*
X43473353Y-115966213D01*
X43461935Y-116000035D01*
X43449173Y-116032685D01*
X43435068Y-116064164D01*
X43419620Y-116094471D01*
X43402828Y-116123607D01*
X43384693Y-116151570D01*
X43365215Y-116178363D01*
X43344393Y-116203983D01*
X43322310Y-116228236D01*
X43299170Y-116250924D01*
X43274973Y-116272047D01*
X43249718Y-116291606D01*
X43223407Y-116309599D01*
X43196038Y-116326029D01*
X43167613Y-116340893D01*
X43138130Y-116354193D01*
X43107590Y-116365928D01*
X43075993Y-116376098D01*
X43043339Y-116384704D01*
X43009628Y-116391745D01*
X42974859Y-116397222D01*
X42939034Y-116401133D01*
X42902151Y-116403480D01*
X42864212Y-116404263D01*
X42829397Y-116403555D01*
X42794931Y-116401431D01*
X42760811Y-116397891D01*
X42727039Y-116392936D01*
X42693614Y-116386565D01*
X42660536Y-116378777D01*
X42627806Y-116369574D01*
X42595422Y-116358956D01*
X42563387Y-116346921D01*
X42531698Y-116333470D01*
X42500357Y-116318604D01*
X42469363Y-116302322D01*
X42438716Y-116284624D01*
X42408416Y-116265510D01*
X42378464Y-116244980D01*
X42348859Y-116223034D01*
X42460722Y-116072092D01*
X42466851Y-116076179D01*
X42485139Y-116088022D01*
X42503281Y-116099237D01*
X42521278Y-116109826D01*
X42539128Y-116119788D01*
X42556832Y-116129123D01*
X42580211Y-116140595D01*
X42603330Y-116150952D01*
X42626189Y-116160195D01*
X42648789Y-116168324D01*
X42654393Y-116170157D01*
X42677142Y-116176908D01*
X42700425Y-116182728D01*
X42724243Y-116187617D01*
X42748595Y-116191574D01*
X42773481Y-116194601D01*
X42798901Y-116196696D01*
X42824856Y-116197860D01*
X42844672Y-116198122D01*
X42865437Y-116197683D01*
X42885720Y-116196366D01*
X42905523Y-116194172D01*
X42924845Y-116191100D01*
X42952926Y-116184846D01*
X42979926Y-116176617D01*
X43005843Y-116166413D01*
X43030678Y-116154234D01*
X43054432Y-116140081D01*
X43077104Y-116123952D01*
X43098693Y-116105848D01*
X43119201Y-116085770D01*
X43132104Y-116071234D01*
X43144312Y-116055713D01*
X43155826Y-116039207D01*
X43166645Y-116021717D01*
X43176770Y-116003243D01*
X43186200Y-115983783D01*
X43194936Y-115963339D01*
X43202976Y-115941911D01*
X43210323Y-115919498D01*
X43216975Y-115896100D01*
X43222932Y-115871718D01*
X43228195Y-115846351D01*
X43232763Y-115819999D01*
X43236636Y-115792663D01*
X43239815Y-115764343D01*
X43242300Y-115735037D01*
X42301476Y-115735037D01*
X42300766Y-115726622D01*
X42299192Y-115705685D01*
X42297904Y-115684891D01*
X42296902Y-115664240D01*
X42296187Y-115643732D01*
X42295757Y-115623368D01*
X42295614Y-115603146D01*
X42295767Y-115581859D01*
X42296227Y-115560863D01*
X42296992Y-115540159D01*
X42297583Y-115528896D01*
X42550604Y-115528896D01*
X43242300Y-115528896D01*
X43240248Y-115501187D01*
X43237634Y-115474358D01*
X43234459Y-115448408D01*
X43230721Y-115423338D01*
X43226421Y-115399147D01*
X43221560Y-115375836D01*
X43216136Y-115353405D01*
X43210151Y-115331853D01*
X43203604Y-115311181D01*
X43196494Y-115291389D01*
X43188823Y-115272477D01*
X43180590Y-115254444D01*
X43162438Y-115221017D01*
X43142038Y-115191108D01*
X43119390Y-115164719D01*
X43094494Y-115141848D01*
X43067351Y-115122495D01*
X43037960Y-115106661D01*
X43006321Y-115094346D01*
X42972434Y-115085550D01*
X42936300Y-115080272D01*
X42897917Y-115078512D01*
X42876521Y-115078947D01*
X42855808Y-115080253D01*
X42835778Y-115082428D01*
X42816432Y-115085473D01*
X42788692Y-115091673D01*
X42762490Y-115099830D01*
X42737825Y-115109945D01*
X42714697Y-115122018D01*
X42693106Y-115136049D01*
X42673052Y-115152037D01*
X42654534Y-115169983D01*
X42637554Y-115189887D01*
X42632205Y-115196916D01*
X42617175Y-115219189D01*
X42603674Y-115243238D01*
X42591702Y-115269066D01*
X42584569Y-115287271D01*
X42578115Y-115306267D01*
X42572341Y-115326053D01*
X42567247Y-115346628D01*
X42562831Y-115367994D01*
X42559095Y-115390149D01*
X42556038Y-115413095D01*
X42553661Y-115436830D01*
X42551962Y-115461355D01*
X42550943Y-115486671D01*
X42550604Y-115512776D01*
X42550604Y-115528896D01*
X42297583Y-115528896D01*
X42298064Y-115519745D01*
X42299443Y-115499622D01*
X42301127Y-115479790D01*
X42305415Y-115440999D01*
X42310927Y-115403373D01*
X42317665Y-115366910D01*
X42325628Y-115331611D01*
X42334815Y-115297476D01*
X42345228Y-115264505D01*
X42356866Y-115232698D01*
X42369729Y-115202055D01*
X42383816Y-115172576D01*
X42399129Y-115144261D01*
X42415667Y-115117110D01*
X42433430Y-115091123D01*
X42452418Y-115066300D01*
X42472555Y-115042817D01*
X42493764Y-115020848D01*
X42516045Y-115000395D01*
X42539399Y-114981456D01*
X42563825Y-114964033D01*
X42589324Y-114948125D01*
X42615895Y-114933732D01*
X42643538Y-114920854D01*
X42672254Y-114909491D01*
X42702042Y-114899643D01*
X42732902Y-114891310D01*
X42764835Y-114884492D01*
X42797841Y-114879189D01*
X42831918Y-114875402D01*
X42867068Y-114873129D01*
X42903290Y-114872371D01*
X42926547Y-114872763D01*
G37*
G36*
X41242928Y-114872371D02*
G01*
X41218637Y-114872765D01*
X41194919Y-114873946D01*
X41171773Y-114875913D01*
X41149199Y-114878668D01*
X41127198Y-114882210D01*
X41105770Y-114886539D01*
X41097359Y-114888491D01*
X41144742Y-115139085D01*
X41165665Y-115134300D01*
X41186301Y-115130326D01*
X41206652Y-115127163D01*
X41226716Y-115124812D01*
X41246494Y-115123271D01*
X41269850Y-115122492D01*
X41273702Y-115122476D01*
X41298971Y-115123361D01*
X41323305Y-115126014D01*
X41346702Y-115130436D01*
X41369163Y-115136627D01*
X41390688Y-115144587D01*
X41411278Y-115154315D01*
X41430931Y-115165813D01*
X41449649Y-115179079D01*
X41467430Y-115194115D01*
X41484276Y-115210919D01*
X41494986Y-115223104D01*
X41510418Y-115242859D01*
X41525206Y-115264572D01*
X41539349Y-115288243D01*
X41552849Y-115313871D01*
X41561491Y-115332044D01*
X41569847Y-115351087D01*
X41577916Y-115371001D01*
X41585700Y-115391784D01*
X41593197Y-115413438D01*
X41600408Y-115435962D01*
X41607332Y-115459356D01*
X41613971Y-115483620D01*
X41620323Y-115508754D01*
X41626389Y-115534758D01*
X41626389Y-116373000D01*
X41883821Y-116373000D01*
X41883821Y-114903635D01*
X41663025Y-114903635D01*
X41637624Y-115203565D01*
X41630133Y-115183363D01*
X41622313Y-115163791D01*
X41614165Y-115144849D01*
X41605689Y-115126537D01*
X41596885Y-115108854D01*
X41583063Y-115083510D01*
X41568503Y-115059584D01*
X41553205Y-115037074D01*
X41537168Y-115015981D01*
X41520392Y-114996304D01*
X41502878Y-114978045D01*
X41484626Y-114961202D01*
X41478378Y-114955903D01*
X41459126Y-114940975D01*
X41439291Y-114927515D01*
X41418872Y-114915524D01*
X41397869Y-114905001D01*
X41376282Y-114895946D01*
X41354112Y-114888360D01*
X41331357Y-114882242D01*
X41308018Y-114877592D01*
X41284096Y-114874411D01*
X41259590Y-114872698D01*
X41242928Y-114872371D01*
G37*
G36*
X39318294Y-116306565D02*
G01*
X39336643Y-116318396D01*
X39355297Y-116329463D01*
X39374256Y-116339767D01*
X39393521Y-116349308D01*
X39413091Y-116358085D01*
X39432966Y-116366100D01*
X39453147Y-116373351D01*
X39473632Y-116379838D01*
X39494424Y-116385563D01*
X39515520Y-116390524D01*
X39536922Y-116394722D01*
X39558629Y-116398157D01*
X39580641Y-116400828D01*
X39602959Y-116402736D01*
X39625582Y-116403881D01*
X39648510Y-116404263D01*
X39671635Y-116403847D01*
X39694115Y-116402599D01*
X39715950Y-116400519D01*
X39737140Y-116397607D01*
X39757685Y-116393863D01*
X39777585Y-116389287D01*
X39796840Y-116383880D01*
X39815450Y-116377640D01*
X39842156Y-116366721D01*
X39867411Y-116353929D01*
X39891215Y-116339266D01*
X39913567Y-116322731D01*
X39934469Y-116304324D01*
X39941113Y-116297773D01*
X39959882Y-116276969D01*
X39976805Y-116254490D01*
X39991882Y-116230337D01*
X40005113Y-116204510D01*
X40012907Y-116186362D01*
X40019882Y-116167469D01*
X40026035Y-116147832D01*
X40031369Y-116127451D01*
X40035881Y-116106326D01*
X40039574Y-116084457D01*
X40042445Y-116061844D01*
X40044497Y-116038486D01*
X40045727Y-116014384D01*
X40046138Y-115989538D01*
X40046138Y-115109775D01*
X40303570Y-115109775D01*
X40303570Y-114903635D01*
X40046138Y-114903635D01*
X40046138Y-114572441D01*
X39788706Y-114541667D01*
X39788706Y-114903635D01*
X39438461Y-114903635D01*
X39466794Y-115109775D01*
X39788706Y-115109775D01*
X39788706Y-115981722D01*
X39788349Y-116002514D01*
X39787280Y-116022206D01*
X39784746Y-116046752D01*
X39780945Y-116069345D01*
X39775877Y-116089983D01*
X39769542Y-116108668D01*
X39759842Y-116129276D01*
X39748161Y-116146831D01*
X39734027Y-116161607D01*
X39717268Y-116173879D01*
X39697886Y-116183646D01*
X39675881Y-116190909D01*
X39656387Y-116194916D01*
X39635214Y-116197320D01*
X39612362Y-116198122D01*
X39590274Y-116197221D01*
X39567483Y-116194519D01*
X39543990Y-116190016D01*
X39519794Y-116183711D01*
X39494897Y-116175605D01*
X39475763Y-116168344D01*
X39456234Y-116160069D01*
X39436310Y-116150781D01*
X39415991Y-116140480D01*
X39318294Y-116306565D01*
G37*
G36*
X38358420Y-114872371D02*
G01*
X38333547Y-114872839D01*
X38309365Y-114874241D01*
X38285874Y-114876579D01*
X38263073Y-114879851D01*
X38240964Y-114884059D01*
X38219545Y-114889201D01*
X38198816Y-114895279D01*
X38178779Y-114902291D01*
X38159432Y-114910239D01*
X38140776Y-114919121D01*
X38122811Y-114928938D01*
X38105537Y-114939691D01*
X38088953Y-114951378D01*
X38073060Y-114964001D01*
X38057858Y-114977558D01*
X38043346Y-114992050D01*
X38029623Y-115007360D01*
X38016785Y-115023367D01*
X38004832Y-115040073D01*
X37993765Y-115057477D01*
X37983583Y-115075580D01*
X37974287Y-115094381D01*
X37965876Y-115113880D01*
X37958350Y-115134078D01*
X37951709Y-115154974D01*
X37945954Y-115176568D01*
X37941085Y-115198861D01*
X37937101Y-115221852D01*
X37934002Y-115245542D01*
X37931788Y-115269930D01*
X37930460Y-115295017D01*
X37930018Y-115320801D01*
X37930018Y-116373000D01*
X38187450Y-116373000D01*
X38187450Y-115361346D01*
X38187982Y-115333027D01*
X38189579Y-115306322D01*
X38192241Y-115281232D01*
X38195968Y-115257756D01*
X38200759Y-115235894D01*
X38206615Y-115215647D01*
X38213536Y-115197014D01*
X38224420Y-115174681D01*
X38237197Y-115155218D01*
X38248022Y-115142504D01*
X38263898Y-115127506D01*
X38281483Y-115114508D01*
X38300778Y-115103509D01*
X38321783Y-115094510D01*
X38344498Y-115087511D01*
X38368922Y-115082512D01*
X38388362Y-115080075D01*
X38408764Y-115078762D01*
X38422900Y-115078512D01*
X38444205Y-115079122D01*
X38465072Y-115080951D01*
X38485501Y-115083999D01*
X38505492Y-115088267D01*
X38525045Y-115093754D01*
X38544161Y-115100460D01*
X38562838Y-115108385D01*
X38581077Y-115117530D01*
X38598879Y-115127894D01*
X38616243Y-115139478D01*
X38627575Y-115147877D01*
X38644238Y-115161394D01*
X38660703Y-115175933D01*
X38676970Y-115191493D01*
X38693040Y-115208076D01*
X38708912Y-115225680D01*
X38724587Y-115244306D01*
X38740065Y-115263953D01*
X38755345Y-115284623D01*
X38770427Y-115306314D01*
X38785312Y-115329027D01*
X38795126Y-115344737D01*
X38795126Y-116373000D01*
X39052558Y-116373000D01*
X39052558Y-114318917D01*
X38795126Y-114290585D01*
X38795126Y-115128338D01*
X38773098Y-115097342D01*
X38750368Y-115068346D01*
X38726936Y-115041349D01*
X38702802Y-115016353D01*
X38677966Y-114993356D01*
X38652427Y-114972358D01*
X38626186Y-114953361D01*
X38599243Y-114936363D01*
X38571598Y-114921365D01*
X38543250Y-114908367D01*
X38514201Y-114897368D01*
X38484449Y-114888369D01*
X38453995Y-114881370D01*
X38422839Y-114876371D01*
X38390980Y-114873371D01*
X38358420Y-114872371D01*
G37*
G36*
X36929897Y-114872763D02*
G01*
X36952771Y-114873936D01*
X36975265Y-114875892D01*
X36997376Y-114878630D01*
X37019106Y-114882151D01*
X37040455Y-114886454D01*
X37061421Y-114891539D01*
X37082006Y-114897406D01*
X37102210Y-114904056D01*
X37122032Y-114911488D01*
X37141472Y-114919703D01*
X37160531Y-114928700D01*
X37179207Y-114938479D01*
X37197503Y-114949041D01*
X37215417Y-114960385D01*
X37232949Y-114972511D01*
X37249979Y-114985328D01*
X37266509Y-114998744D01*
X37282539Y-115012760D01*
X37298070Y-115027374D01*
X37313100Y-115042588D01*
X37327631Y-115058401D01*
X37341661Y-115074813D01*
X37355192Y-115091824D01*
X37368223Y-115109434D01*
X37380754Y-115127643D01*
X37392785Y-115146452D01*
X37404315Y-115165860D01*
X37415346Y-115185867D01*
X37425878Y-115206473D01*
X37435909Y-115227678D01*
X37445440Y-115249482D01*
X37454431Y-115271726D01*
X37462842Y-115294370D01*
X37470673Y-115317414D01*
X37477924Y-115340860D01*
X37484595Y-115364706D01*
X37490686Y-115388953D01*
X37496197Y-115413600D01*
X37501127Y-115438648D01*
X37505478Y-115464097D01*
X37509248Y-115489947D01*
X37512439Y-115516198D01*
X37515049Y-115542849D01*
X37517079Y-115569900D01*
X37518530Y-115597353D01*
X37519400Y-115625206D01*
X37519690Y-115653460D01*
X37519522Y-115675204D01*
X37519018Y-115696655D01*
X37518178Y-115717813D01*
X37517003Y-115738678D01*
X37515492Y-115759250D01*
X37513645Y-115779529D01*
X37511462Y-115799516D01*
X37508943Y-115819209D01*
X37502898Y-115857718D01*
X37495510Y-115895054D01*
X37486778Y-115931220D01*
X37476703Y-115966213D01*
X37465285Y-116000035D01*
X37452523Y-116032685D01*
X37438418Y-116064164D01*
X37422969Y-116094471D01*
X37406178Y-116123607D01*
X37388043Y-116151570D01*
X37368564Y-116178363D01*
X37347743Y-116203983D01*
X37325660Y-116228236D01*
X37302520Y-116250924D01*
X37278322Y-116272047D01*
X37253068Y-116291606D01*
X37226757Y-116309599D01*
X37199388Y-116326029D01*
X37170962Y-116340893D01*
X37141480Y-116354193D01*
X37110940Y-116365928D01*
X37079343Y-116376098D01*
X37046689Y-116384704D01*
X37012977Y-116391745D01*
X36978209Y-116397222D01*
X36942384Y-116401133D01*
X36905501Y-116403480D01*
X36867561Y-116404263D01*
X36832747Y-116403555D01*
X36798280Y-116401431D01*
X36764161Y-116397891D01*
X36730388Y-116392936D01*
X36696963Y-116386565D01*
X36663886Y-116378777D01*
X36631155Y-116369574D01*
X36598772Y-116358956D01*
X36566736Y-116346921D01*
X36535048Y-116333470D01*
X36503706Y-116318604D01*
X36472712Y-116302322D01*
X36442065Y-116284624D01*
X36411766Y-116265510D01*
X36381814Y-116244980D01*
X36352209Y-116223034D01*
X36464072Y-116072092D01*
X36470201Y-116076179D01*
X36488489Y-116088022D01*
X36506631Y-116099237D01*
X36524627Y-116109826D01*
X36542477Y-116119788D01*
X36560182Y-116129123D01*
X36583560Y-116140595D01*
X36606679Y-116150952D01*
X36629539Y-116160195D01*
X36652139Y-116168324D01*
X36657743Y-116170157D01*
X36680492Y-116176908D01*
X36703775Y-116182728D01*
X36727592Y-116187617D01*
X36751944Y-116191574D01*
X36776830Y-116194601D01*
X36802251Y-116196696D01*
X36828205Y-116197860D01*
X36848022Y-116198122D01*
X36868786Y-116197683D01*
X36889070Y-116196366D01*
X36908873Y-116194172D01*
X36928195Y-116191100D01*
X36956276Y-116184846D01*
X36983275Y-116176617D01*
X37009193Y-116166413D01*
X37034028Y-116154234D01*
X37057782Y-116140081D01*
X37080453Y-116123952D01*
X37102043Y-116105848D01*
X37122551Y-116085770D01*
X37135454Y-116071234D01*
X37147662Y-116055713D01*
X37159176Y-116039207D01*
X37169995Y-116021717D01*
X37180120Y-116003243D01*
X37189550Y-115983783D01*
X37198285Y-115963339D01*
X37206326Y-115941911D01*
X37213672Y-115919498D01*
X37220324Y-115896100D01*
X37226281Y-115871718D01*
X37231544Y-115846351D01*
X37236112Y-115819999D01*
X37239986Y-115792663D01*
X37243165Y-115764343D01*
X37245649Y-115735037D01*
X36304826Y-115735037D01*
X36304116Y-115726622D01*
X36302542Y-115705685D01*
X36301254Y-115684891D01*
X36300252Y-115664240D01*
X36299536Y-115643732D01*
X36299107Y-115623368D01*
X36298964Y-115603146D01*
X36299117Y-115581859D01*
X36299576Y-115560863D01*
X36300342Y-115540159D01*
X36300933Y-115528896D01*
X36553953Y-115528896D01*
X37245649Y-115528896D01*
X37243597Y-115501187D01*
X37240984Y-115474358D01*
X37237808Y-115448408D01*
X37234071Y-115423338D01*
X37229771Y-115399147D01*
X37224910Y-115375836D01*
X37219486Y-115353405D01*
X37213501Y-115331853D01*
X37206953Y-115311181D01*
X37199844Y-115291389D01*
X37192173Y-115272477D01*
X37183940Y-115254444D01*
X37165787Y-115221017D01*
X37145387Y-115191108D01*
X37122740Y-115164719D01*
X37097844Y-115141848D01*
X37070701Y-115122495D01*
X37041310Y-115106661D01*
X37009671Y-115094346D01*
X36975784Y-115085550D01*
X36939649Y-115080272D01*
X36901267Y-115078512D01*
X36879871Y-115078947D01*
X36859158Y-115080253D01*
X36839128Y-115082428D01*
X36819781Y-115085473D01*
X36792042Y-115091673D01*
X36765840Y-115099830D01*
X36741175Y-115109945D01*
X36718046Y-115122018D01*
X36696455Y-115136049D01*
X36676401Y-115152037D01*
X36657884Y-115169983D01*
X36640904Y-115189887D01*
X36635554Y-115196916D01*
X36620525Y-115219189D01*
X36607024Y-115243238D01*
X36595051Y-115269066D01*
X36587918Y-115287271D01*
X36581465Y-115306267D01*
X36575691Y-115326053D01*
X36570596Y-115346628D01*
X36566181Y-115367994D01*
X36562445Y-115390149D01*
X36559388Y-115413095D01*
X36557010Y-115436830D01*
X36555312Y-115461355D01*
X36554293Y-115486671D01*
X36553953Y-115512776D01*
X36553953Y-115528896D01*
X36300933Y-115528896D01*
X36301414Y-115519745D01*
X36302792Y-115499622D01*
X36304477Y-115479790D01*
X36308764Y-115440999D01*
X36314277Y-115403373D01*
X36321014Y-115366910D01*
X36328977Y-115331611D01*
X36338165Y-115297476D01*
X36348578Y-115264505D01*
X36360215Y-115232698D01*
X36373078Y-115202055D01*
X36387166Y-115172576D01*
X36402479Y-115144261D01*
X36419017Y-115117110D01*
X36436780Y-115091123D01*
X36455768Y-115066300D01*
X36475904Y-115042817D01*
X36497114Y-115020848D01*
X36519395Y-115000395D01*
X36542749Y-114981456D01*
X36567175Y-114964033D01*
X36592674Y-114948125D01*
X36619245Y-114933732D01*
X36646888Y-114920854D01*
X36675604Y-114909491D01*
X36705392Y-114899643D01*
X36736252Y-114891310D01*
X36768185Y-114884492D01*
X36801190Y-114879189D01*
X36835268Y-114875402D01*
X36870418Y-114873129D01*
X36906640Y-114872371D01*
X36929897Y-114872763D01*
G37*
G36*
X34609292Y-114872371D02*
G01*
X34584847Y-114872693D01*
X34560789Y-114873659D01*
X34537117Y-114875269D01*
X34513831Y-114877523D01*
X34490932Y-114880421D01*
X34468419Y-114883963D01*
X34446293Y-114888149D01*
X34424553Y-114892979D01*
X34403199Y-114898453D01*
X34382232Y-114904571D01*
X34368468Y-114909008D01*
X34348029Y-114916272D01*
X34327745Y-114924326D01*
X34307615Y-114933171D01*
X34287639Y-114942805D01*
X34267818Y-114953229D01*
X34248152Y-114964443D01*
X34228640Y-114976448D01*
X34209283Y-114989242D01*
X34190081Y-115002826D01*
X34171032Y-115017200D01*
X34158420Y-115027221D01*
X34281518Y-115201122D01*
X34301111Y-115185888D01*
X34320566Y-115171691D01*
X34339884Y-115158532D01*
X34359065Y-115146412D01*
X34378108Y-115135329D01*
X34397014Y-115125285D01*
X34415783Y-115116278D01*
X34434414Y-115108310D01*
X34453213Y-115101326D01*
X34472485Y-115095274D01*
X34492231Y-115090152D01*
X34512450Y-115085962D01*
X34533142Y-115082703D01*
X34554307Y-115080375D01*
X34575945Y-115078978D01*
X34598057Y-115078512D01*
X34620155Y-115079075D01*
X34641631Y-115080764D01*
X34662485Y-115083579D01*
X34682717Y-115087519D01*
X34702327Y-115092585D01*
X34721315Y-115098777D01*
X34739681Y-115106095D01*
X34757425Y-115114538D01*
X34774547Y-115124108D01*
X34791047Y-115134803D01*
X34806924Y-115146624D01*
X34822180Y-115159571D01*
X34836814Y-115173643D01*
X34850825Y-115188841D01*
X34864215Y-115205166D01*
X34876982Y-115222616D01*
X34888990Y-115241108D01*
X34900223Y-115260679D01*
X34910682Y-115281331D01*
X34920366Y-115303063D01*
X34929275Y-115325875D01*
X34937409Y-115349767D01*
X34944769Y-115374739D01*
X34951354Y-115400791D01*
X34957164Y-115427923D01*
X34962200Y-115456135D01*
X34966461Y-115485427D01*
X34969947Y-115515799D01*
X34972658Y-115547251D01*
X34974595Y-115579783D01*
X34975757Y-115613395D01*
X34976145Y-115648087D01*
X34975763Y-115682800D01*
X34974618Y-115716353D01*
X34972710Y-115748745D01*
X34970039Y-115779978D01*
X34966604Y-115810050D01*
X34962406Y-115838963D01*
X34957445Y-115866715D01*
X34951720Y-115893307D01*
X34945233Y-115918738D01*
X34937982Y-115943010D01*
X34929967Y-115966121D01*
X34921190Y-115988073D01*
X34911649Y-116008864D01*
X34901345Y-116028495D01*
X34890278Y-116046966D01*
X34878448Y-116064277D01*
X34865846Y-116080484D01*
X34852588Y-116095646D01*
X34838674Y-116109763D01*
X34824103Y-116122834D01*
X34801017Y-116140479D01*
X34776453Y-116155772D01*
X34750413Y-116168712D01*
X34732232Y-116176032D01*
X34713395Y-116182306D01*
X34693901Y-116187534D01*
X34673751Y-116191717D01*
X34652945Y-116194854D01*
X34631482Y-116196945D01*
X34609362Y-116197991D01*
X34598057Y-116198122D01*
X34576540Y-116197709D01*
X34555467Y-116196473D01*
X34534836Y-116194412D01*
X34514648Y-116191527D01*
X34494902Y-116187818D01*
X34475599Y-116183284D01*
X34456739Y-116177926D01*
X34438322Y-116171743D01*
X34419866Y-116164531D01*
X34400892Y-116156326D01*
X34381398Y-116147128D01*
X34361385Y-116136939D01*
X34340854Y-116125757D01*
X34319803Y-116113583D01*
X34298233Y-116100417D01*
X34281715Y-116089891D01*
X34276145Y-116086258D01*
X34158420Y-116252832D01*
X34183823Y-116271169D01*
X34209596Y-116288324D01*
X34235740Y-116304295D01*
X34262253Y-116319083D01*
X34289137Y-116332688D01*
X34316391Y-116345110D01*
X34344016Y-116356349D01*
X34372010Y-116366405D01*
X34400375Y-116375278D01*
X34429109Y-116382968D01*
X34458214Y-116389474D01*
X34487689Y-116394798D01*
X34517535Y-116398939D01*
X34547750Y-116401896D01*
X34578336Y-116403671D01*
X34609292Y-116404263D01*
X34646226Y-116403480D01*
X34682168Y-116401133D01*
X34717117Y-116397222D01*
X34751075Y-116391745D01*
X34784040Y-116384704D01*
X34816013Y-116376098D01*
X34846994Y-116365928D01*
X34876982Y-116354193D01*
X34905978Y-116340893D01*
X34933982Y-116326029D01*
X34960994Y-116309599D01*
X34987013Y-116291606D01*
X35012041Y-116272047D01*
X35036076Y-116250924D01*
X35059119Y-116228236D01*
X35081169Y-116203983D01*
X35101991Y-116178353D01*
X35121469Y-116151532D01*
X35139604Y-116123521D01*
X35156396Y-116094318D01*
X35171844Y-116063925D01*
X35185949Y-116032342D01*
X35198711Y-115999567D01*
X35210129Y-115965602D01*
X35220204Y-115930447D01*
X35228936Y-115894100D01*
X35236324Y-115856563D01*
X35242369Y-115817836D01*
X35244888Y-115798025D01*
X35247071Y-115777917D01*
X35248918Y-115757511D01*
X35250429Y-115736808D01*
X35251605Y-115715807D01*
X35252444Y-115694508D01*
X35252948Y-115672912D01*
X35253116Y-115651018D01*
X35252811Y-115622058D01*
X35251895Y-115593552D01*
X35250368Y-115565500D01*
X35248231Y-115537903D01*
X35245483Y-115510759D01*
X35242125Y-115484070D01*
X35238156Y-115457835D01*
X35233577Y-115432054D01*
X35228386Y-115406727D01*
X35222586Y-115381854D01*
X35216174Y-115357436D01*
X35209152Y-115333471D01*
X35201520Y-115309961D01*
X35193277Y-115286905D01*
X35184423Y-115264303D01*
X35174958Y-115242155D01*
X35164872Y-115220540D01*
X35154274Y-115199535D01*
X35143165Y-115179140D01*
X35131544Y-115159357D01*
X35119412Y-115140184D01*
X35106769Y-115121621D01*
X35093614Y-115103669D01*
X35079948Y-115086328D01*
X35065770Y-115069598D01*
X35051081Y-115053478D01*
X35035881Y-115037968D01*
X35020169Y-115023069D01*
X35003946Y-115008781D01*
X34987212Y-114995103D01*
X34969966Y-114982036D01*
X34952209Y-114969580D01*
X34933982Y-114957809D01*
X34915328Y-114946797D01*
X34896247Y-114936544D01*
X34876738Y-114927051D01*
X34856801Y-114918318D01*
X34836438Y-114910344D01*
X34815647Y-114903129D01*
X34794428Y-114896674D01*
X34772782Y-114890978D01*
X34750709Y-114886041D01*
X34728208Y-114881864D01*
X34705279Y-114878447D01*
X34681924Y-114875789D01*
X34658140Y-114873890D01*
X34633930Y-114872751D01*
X34609292Y-114872371D01*
G37*
G36*
X32740346Y-116373000D02*
G01*
X32961141Y-116373000D01*
X32980681Y-116138038D01*
X32991282Y-116155087D01*
X33002082Y-116171553D01*
X33018655Y-116195156D01*
X33035673Y-116217445D01*
X33053139Y-116238421D01*
X33071050Y-116258083D01*
X33089409Y-116276432D01*
X33108214Y-116293466D01*
X33127465Y-116309187D01*
X33147163Y-116323594D01*
X33167307Y-116336687D01*
X33174121Y-116340759D01*
X33195054Y-116352108D01*
X33216820Y-116362341D01*
X33239418Y-116371457D01*
X33262850Y-116379457D01*
X33287114Y-116386340D01*
X33312212Y-116392108D01*
X33338142Y-116396759D01*
X33364905Y-116400294D01*
X33392501Y-116402712D01*
X33420930Y-116404015D01*
X33440346Y-116404263D01*
X33464138Y-116403807D01*
X33487278Y-116402438D01*
X33509766Y-116400158D01*
X33531601Y-116396966D01*
X33552783Y-116392861D01*
X33573313Y-116387845D01*
X33593190Y-116381916D01*
X33612415Y-116375076D01*
X33630987Y-116367323D01*
X33648906Y-116358658D01*
X33666173Y-116349081D01*
X33682787Y-116338592D01*
X33698749Y-116327191D01*
X33714058Y-116314877D01*
X33728714Y-116301652D01*
X33742718Y-116287515D01*
X33755909Y-116272480D01*
X33768249Y-116256686D01*
X33779738Y-116240133D01*
X33790376Y-116222821D01*
X33800163Y-116204749D01*
X33809099Y-116185917D01*
X33817184Y-116166326D01*
X33824418Y-116145976D01*
X33830800Y-116124866D01*
X33836332Y-116102997D01*
X33841013Y-116080368D01*
X33844842Y-116056980D01*
X33847821Y-116032832D01*
X33849949Y-116007925D01*
X33851225Y-115982259D01*
X33851651Y-115955833D01*
X33851651Y-114903635D01*
X33594219Y-114903635D01*
X33594219Y-115923593D01*
X33593751Y-115950943D01*
X33592347Y-115976756D01*
X33590007Y-116001031D01*
X33586731Y-116023770D01*
X33582519Y-116044972D01*
X33577372Y-116064637D01*
X33569052Y-116088466D01*
X33559069Y-116109563D01*
X33547421Y-116127927D01*
X33540974Y-116136084D01*
X33526609Y-116150624D01*
X33510138Y-116163225D01*
X33491560Y-116173888D01*
X33470876Y-116182612D01*
X33448085Y-116189398D01*
X33423188Y-116194244D01*
X33403132Y-116196607D01*
X33381891Y-116197879D01*
X33367073Y-116198122D01*
X33340385Y-116197147D01*
X33314179Y-116194221D01*
X33288453Y-116189346D01*
X33263209Y-116182521D01*
X33238445Y-116173745D01*
X33214161Y-116163019D01*
X33190359Y-116150344D01*
X33167038Y-116135718D01*
X33144197Y-116119141D01*
X33121838Y-116100615D01*
X33099959Y-116080139D01*
X33078561Y-116057713D01*
X33057644Y-116033336D01*
X33037208Y-116007009D01*
X33017252Y-115978732D01*
X32997778Y-115948505D01*
X32997778Y-114903635D01*
X32740346Y-114903635D01*
X32740346Y-116373000D01*
G37*
G36*
X30726808Y-114872371D02*
G01*
X30704377Y-114872845D01*
X30682516Y-114874264D01*
X30661223Y-114876630D01*
X30640498Y-114879943D01*
X30620343Y-114884202D01*
X30600755Y-114889407D01*
X30581737Y-114895559D01*
X30563287Y-114902658D01*
X30545406Y-114910702D01*
X30519650Y-114924544D01*
X30495174Y-114940515D01*
X30479567Y-114952346D01*
X30464529Y-114965123D01*
X30450059Y-114978846D01*
X30436159Y-114993516D01*
X30422908Y-115008991D01*
X30410513Y-115025130D01*
X30398973Y-115041933D01*
X30388287Y-115059400D01*
X30378456Y-115077532D01*
X30369480Y-115096327D01*
X30361359Y-115115786D01*
X30354093Y-115135909D01*
X30347682Y-115156697D01*
X30342125Y-115178148D01*
X30337423Y-115200264D01*
X30333577Y-115223043D01*
X30330585Y-115246487D01*
X30328448Y-115270594D01*
X30327165Y-115295366D01*
X30326738Y-115320801D01*
X30326738Y-116373000D01*
X30584170Y-116373000D01*
X30584170Y-115361346D01*
X30584979Y-115327096D01*
X30587406Y-115295057D01*
X30591451Y-115265227D01*
X30597115Y-115237606D01*
X30604396Y-115212195D01*
X30613296Y-115188994D01*
X30623813Y-115168003D01*
X30635949Y-115149221D01*
X30649703Y-115132648D01*
X30665075Y-115118286D01*
X30682065Y-115106133D01*
X30700674Y-115096189D01*
X30720900Y-115088456D01*
X30742744Y-115082932D01*
X30766207Y-115079617D01*
X30791288Y-115078512D01*
X30811508Y-115079083D01*
X30831136Y-115080796D01*
X30856384Y-115084857D01*
X30880579Y-115090948D01*
X30903721Y-115099069D01*
X30925810Y-115109220D01*
X30946846Y-115121402D01*
X30966828Y-115135614D01*
X30976424Y-115143481D01*
X30995414Y-115160876D01*
X31009897Y-115175434D01*
X31024585Y-115191290D01*
X31039480Y-115208441D01*
X31054581Y-115226890D01*
X31069889Y-115246635D01*
X31085402Y-115267677D01*
X31101121Y-115290015D01*
X31117047Y-115313650D01*
X31127778Y-115330126D01*
X31138601Y-115347180D01*
X31138601Y-116373000D01*
X31396033Y-116373000D01*
X31396033Y-115361346D01*
X31396842Y-115327096D01*
X31399269Y-115295057D01*
X31403314Y-115265227D01*
X31408978Y-115237606D01*
X31416259Y-115212195D01*
X31425159Y-115188994D01*
X31435677Y-115168003D01*
X31447812Y-115149221D01*
X31461566Y-115132648D01*
X31476938Y-115118286D01*
X31493929Y-115106133D01*
X31512537Y-115096189D01*
X31532763Y-115088456D01*
X31554608Y-115082932D01*
X31578070Y-115079617D01*
X31603151Y-115078512D01*
X31623895Y-115079096D01*
X31643995Y-115080848D01*
X31663451Y-115083767D01*
X31688390Y-115089477D01*
X31712185Y-115097262D01*
X31734835Y-115107123D01*
X31756339Y-115119061D01*
X31776699Y-115133074D01*
X31791218Y-115144946D01*
X31810162Y-115162639D01*
X31824550Y-115177331D01*
X31839093Y-115193242D01*
X31853791Y-115210372D01*
X31868643Y-115228722D01*
X31883650Y-115248291D01*
X31898811Y-115269079D01*
X31914126Y-115291087D01*
X31929597Y-115314314D01*
X31945222Y-115338760D01*
X31950464Y-115347180D01*
X31950464Y-116373000D01*
X32207896Y-116373000D01*
X32207896Y-114903635D01*
X31987101Y-114903635D01*
X31964630Y-115139573D01*
X31943620Y-115107217D01*
X31921865Y-115076948D01*
X31899366Y-115048766D01*
X31876123Y-115022672D01*
X31852136Y-114998666D01*
X31827404Y-114976747D01*
X31801928Y-114956916D01*
X31775709Y-114939172D01*
X31748744Y-114923516D01*
X31721036Y-114909947D01*
X31692584Y-114898465D01*
X31663387Y-114889072D01*
X31633447Y-114881765D01*
X31602762Y-114876546D01*
X31571333Y-114873415D01*
X31539159Y-114872371D01*
X31513779Y-114873028D01*
X31489111Y-114874999D01*
X31465155Y-114878283D01*
X31441912Y-114882882D01*
X31419383Y-114888793D01*
X31397565Y-114896019D01*
X31376461Y-114904559D01*
X31356069Y-114914412D01*
X31336390Y-114925579D01*
X31317423Y-114938059D01*
X31305175Y-114947110D01*
X31287520Y-114961560D01*
X31270828Y-114977066D01*
X31255097Y-114993628D01*
X31240328Y-115011246D01*
X31226521Y-115029921D01*
X31213675Y-115049652D01*
X31201791Y-115070439D01*
X31190869Y-115092282D01*
X31180908Y-115115181D01*
X31171910Y-115139136D01*
X31166445Y-115155693D01*
X31155507Y-115138787D01*
X31144432Y-115122385D01*
X31127562Y-115098725D01*
X31110383Y-115076200D01*
X31092895Y-115054807D01*
X31075098Y-115034549D01*
X31056991Y-115015423D01*
X31038576Y-114997431D01*
X31019851Y-114980573D01*
X31000818Y-114964848D01*
X30981475Y-114950256D01*
X30974958Y-114945644D01*
X30954931Y-114932550D01*
X30934235Y-114920743D01*
X30912868Y-114910224D01*
X30890832Y-114900994D01*
X30868126Y-114893051D01*
X30844750Y-114886396D01*
X30820705Y-114881030D01*
X30795989Y-114876951D01*
X30770604Y-114874160D01*
X30744550Y-114872658D01*
X30726808Y-114872371D01*
G37*
G36*
X28202802Y-114903635D02*
G01*
X28202802Y-115088771D01*
X28973144Y-116166859D01*
X28194498Y-116166859D01*
X28225272Y-116373000D01*
X29264281Y-116373000D01*
X29264281Y-116189329D01*
X28496870Y-115109775D01*
X29199801Y-115109775D01*
X29199801Y-114903635D01*
X28202802Y-114903635D01*
G37*
G36*
X27335999Y-114872747D02*
G01*
X27361202Y-114873875D01*
X27385947Y-114875755D01*
X27410234Y-114878386D01*
X27434063Y-114881769D01*
X27457434Y-114885904D01*
X27480347Y-114890791D01*
X27502802Y-114896429D01*
X27524799Y-114902820D01*
X27546338Y-114909962D01*
X27567420Y-114917856D01*
X27588043Y-114926502D01*
X27608208Y-114935899D01*
X27627915Y-114946049D01*
X27647165Y-114956950D01*
X27665956Y-114968603D01*
X27684187Y-114980876D01*
X27701875Y-114993760D01*
X27719022Y-115007255D01*
X27735627Y-115021360D01*
X27751689Y-115036075D01*
X27767210Y-115051401D01*
X27782189Y-115067338D01*
X27796626Y-115083886D01*
X27810521Y-115101044D01*
X27823875Y-115118812D01*
X27836686Y-115137192D01*
X27848955Y-115156182D01*
X27860683Y-115175782D01*
X27871868Y-115195993D01*
X27882512Y-115216815D01*
X27892614Y-115238247D01*
X27902078Y-115260137D01*
X27910932Y-115282455D01*
X27919175Y-115305200D01*
X27926808Y-115328373D01*
X27933830Y-115351973D01*
X27940241Y-115376000D01*
X27946042Y-115400455D01*
X27951232Y-115425337D01*
X27955811Y-115450647D01*
X27959780Y-115476384D01*
X27963139Y-115502549D01*
X27965886Y-115529140D01*
X27968024Y-115556160D01*
X27969550Y-115583607D01*
X27970466Y-115611481D01*
X27970771Y-115639782D01*
X27970602Y-115661712D01*
X27970094Y-115683353D01*
X27969247Y-115704706D01*
X27968062Y-115725771D01*
X27966538Y-115746548D01*
X27964675Y-115767037D01*
X27962473Y-115787237D01*
X27959933Y-115807150D01*
X27957054Y-115826774D01*
X27953837Y-115846110D01*
X27946385Y-115883918D01*
X27937579Y-115920574D01*
X27927418Y-115956077D01*
X27915903Y-115990427D01*
X27903032Y-116023625D01*
X27888807Y-116055671D01*
X27873227Y-116086564D01*
X27856292Y-116116304D01*
X27838002Y-116144892D01*
X27818358Y-116172327D01*
X27797359Y-116198610D01*
X27775144Y-116223513D01*
X27751853Y-116246810D01*
X27727486Y-116268500D01*
X27702043Y-116288583D01*
X27675524Y-116307060D01*
X27647928Y-116323930D01*
X27619256Y-116339193D01*
X27589508Y-116352849D01*
X27558684Y-116364899D01*
X27526784Y-116375343D01*
X27493807Y-116384179D01*
X27459754Y-116391409D01*
X27424625Y-116397033D01*
X27388420Y-116401049D01*
X27351139Y-116403459D01*
X27312781Y-116404263D01*
X27287475Y-116403889D01*
X27262604Y-116402767D01*
X27238169Y-116400897D01*
X27214168Y-116398279D01*
X27190602Y-116394913D01*
X27167472Y-116390799D01*
X27144776Y-116385937D01*
X27122516Y-116380327D01*
X27100691Y-116373969D01*
X27079300Y-116366863D01*
X27058345Y-116359009D01*
X27037825Y-116350407D01*
X27017740Y-116341057D01*
X26998089Y-116330959D01*
X26978874Y-116320113D01*
X26960094Y-116308519D01*
X26941807Y-116296189D01*
X26924069Y-116283256D01*
X26906880Y-116269719D01*
X26890241Y-116255580D01*
X26874151Y-116240837D01*
X26858612Y-116225492D01*
X26843621Y-116209544D01*
X26829180Y-116192993D01*
X26815289Y-116175838D01*
X26801947Y-116158081D01*
X26789155Y-116139721D01*
X26776912Y-116120758D01*
X26765219Y-116101192D01*
X26754076Y-116081022D01*
X26743482Y-116060250D01*
X26733437Y-116038875D01*
X26723913Y-116016926D01*
X26715004Y-115994553D01*
X26706710Y-115971756D01*
X26699029Y-115948536D01*
X26691963Y-115924892D01*
X26685512Y-115900825D01*
X26679675Y-115876334D01*
X26674452Y-115851419D01*
X26669844Y-115826081D01*
X26665850Y-115800319D01*
X26662471Y-115774133D01*
X26659706Y-115747524D01*
X26657556Y-115720491D01*
X26656020Y-115693035D01*
X26655098Y-115665155D01*
X26654791Y-115636852D01*
X26932251Y-115636852D01*
X26932622Y-115671383D01*
X26933737Y-115704818D01*
X26935595Y-115737157D01*
X26938197Y-115768399D01*
X26941541Y-115798546D01*
X26945629Y-115827596D01*
X26950460Y-115855550D01*
X26956034Y-115882407D01*
X26962351Y-115908169D01*
X26969412Y-115932834D01*
X26977216Y-115956403D01*
X26985763Y-115978876D01*
X26995053Y-116000252D01*
X27005087Y-116020532D01*
X27015863Y-116039716D01*
X27027383Y-116057804D01*
X27039646Y-116074796D01*
X27052653Y-116090691D01*
X27066403Y-116105490D01*
X27080895Y-116119193D01*
X27096131Y-116131800D01*
X27112111Y-116143310D01*
X27128833Y-116153724D01*
X27146299Y-116163042D01*
X27164508Y-116171264D01*
X27183460Y-116178389D01*
X27203156Y-116184419D01*
X27223594Y-116189352D01*
X27244776Y-116193189D01*
X27266701Y-116195929D01*
X27289370Y-116197574D01*
X27312781Y-116198122D01*
X27336223Y-116197576D01*
X27358920Y-116195941D01*
X27380873Y-116193214D01*
X27402082Y-116189398D01*
X27422547Y-116184490D01*
X27442268Y-116178493D01*
X27461244Y-116171404D01*
X27479477Y-116163225D01*
X27496965Y-116153956D01*
X27513709Y-116143596D01*
X27529709Y-116132146D01*
X27544964Y-116119605D01*
X27559476Y-116105974D01*
X27573243Y-116091252D01*
X27586266Y-116075440D01*
X27598545Y-116058537D01*
X27610080Y-116040543D01*
X27620871Y-116021460D01*
X27630917Y-116001285D01*
X27640219Y-115980020D01*
X27648777Y-115957665D01*
X27656591Y-115934219D01*
X27663661Y-115909683D01*
X27669986Y-115884056D01*
X27675568Y-115857338D01*
X27680405Y-115829531D01*
X27684498Y-115800632D01*
X27687846Y-115770643D01*
X27690451Y-115739564D01*
X27692312Y-115707394D01*
X27693428Y-115674133D01*
X27693800Y-115639782D01*
X27693425Y-115605251D01*
X27692302Y-115571816D01*
X27690430Y-115539477D01*
X27687808Y-115508235D01*
X27684438Y-115478088D01*
X27680319Y-115449038D01*
X27675451Y-115421084D01*
X27669834Y-115394227D01*
X27663468Y-115368465D01*
X27656353Y-115343800D01*
X27648489Y-115320231D01*
X27639876Y-115297759D01*
X27630514Y-115276382D01*
X27620403Y-115256102D01*
X27609543Y-115236918D01*
X27597935Y-115218830D01*
X27585577Y-115201838D01*
X27572470Y-115185943D01*
X27558615Y-115171144D01*
X27544010Y-115157441D01*
X27528657Y-115144834D01*
X27512555Y-115133324D01*
X27495703Y-115122910D01*
X27478103Y-115113592D01*
X27459754Y-115105370D01*
X27440656Y-115098245D01*
X27420808Y-115092215D01*
X27400212Y-115087282D01*
X27378867Y-115083445D01*
X27356773Y-115080705D01*
X27333931Y-115079061D01*
X27310339Y-115078512D01*
X27287077Y-115079058D01*
X27264555Y-115080693D01*
X27242770Y-115083420D01*
X27221724Y-115087236D01*
X27201417Y-115092144D01*
X27181848Y-115098142D01*
X27163017Y-115105230D01*
X27144925Y-115113409D01*
X27127572Y-115122678D01*
X27110956Y-115133038D01*
X27095080Y-115144488D01*
X27079941Y-115157029D01*
X27065541Y-115170660D01*
X27051880Y-115185382D01*
X27038957Y-115201194D01*
X27026773Y-115218097D01*
X27015327Y-115236091D01*
X27004619Y-115255174D01*
X26994650Y-115275349D01*
X26985419Y-115296614D01*
X26976927Y-115318969D01*
X26969173Y-115342415D01*
X26962158Y-115366951D01*
X26955881Y-115392578D01*
X26950343Y-115419296D01*
X26945543Y-115447103D01*
X26941481Y-115476002D01*
X26938158Y-115505991D01*
X26935574Y-115537070D01*
X26933728Y-115569240D01*
X26932620Y-115602501D01*
X26932251Y-115636852D01*
X26654791Y-115636852D01*
X26654959Y-115614922D01*
X26655464Y-115593281D01*
X26656306Y-115571928D01*
X26657485Y-115550863D01*
X26659001Y-115530086D01*
X26660853Y-115509597D01*
X26663042Y-115489397D01*
X26665568Y-115469484D01*
X26668431Y-115449860D01*
X26671630Y-115430524D01*
X26679040Y-115392716D01*
X26687796Y-115356060D01*
X26697900Y-115320557D01*
X26709351Y-115286207D01*
X26722148Y-115253009D01*
X26736294Y-115220963D01*
X26751786Y-115190070D01*
X26768625Y-115160330D01*
X26786812Y-115131742D01*
X26806345Y-115104307D01*
X26827226Y-115078024D01*
X26849263Y-115053121D01*
X26872388Y-115029824D01*
X26896601Y-115008134D01*
X26921901Y-114988051D01*
X26948289Y-114969574D01*
X26975764Y-114952704D01*
X27004327Y-114937441D01*
X27033978Y-114923785D01*
X27064716Y-114911735D01*
X27096542Y-114901291D01*
X27129456Y-114892455D01*
X27163457Y-114885225D01*
X27198546Y-114879601D01*
X27234723Y-114875585D01*
X27271987Y-114873175D01*
X27310339Y-114872371D01*
X27335999Y-114872747D01*
G37*
G36*
X25536647Y-114872371D02*
G01*
X25511774Y-114872839D01*
X25487592Y-114874241D01*
X25464101Y-114876579D01*
X25441301Y-114879851D01*
X25419191Y-114884059D01*
X25397772Y-114889201D01*
X25377044Y-114895279D01*
X25357006Y-114902291D01*
X25337660Y-114910239D01*
X25319004Y-114919121D01*
X25301039Y-114928938D01*
X25283764Y-114939691D01*
X25267180Y-114951378D01*
X25251287Y-114964001D01*
X25236085Y-114977558D01*
X25221574Y-114992050D01*
X25207850Y-115007360D01*
X25195012Y-115023367D01*
X25183060Y-115040073D01*
X25171993Y-115057477D01*
X25161811Y-115075580D01*
X25152514Y-115094381D01*
X25144103Y-115113880D01*
X25136577Y-115134078D01*
X25129937Y-115154974D01*
X25124182Y-115176568D01*
X25119312Y-115198861D01*
X25115328Y-115221852D01*
X25112229Y-115245542D01*
X25110016Y-115269930D01*
X25108688Y-115295017D01*
X25108245Y-115320801D01*
X25108245Y-116373000D01*
X25365677Y-116373000D01*
X25365677Y-115361346D01*
X25366197Y-115333027D01*
X25367755Y-115306322D01*
X25370353Y-115281232D01*
X25373989Y-115257756D01*
X25378664Y-115235894D01*
X25384379Y-115215647D01*
X25391132Y-115197014D01*
X25401753Y-115174681D01*
X25414221Y-115155218D01*
X25424784Y-115142504D01*
X25440316Y-115127506D01*
X25457604Y-115114508D01*
X25476647Y-115103509D01*
X25497446Y-115094510D01*
X25520000Y-115087511D01*
X25544310Y-115082512D01*
X25570376Y-115079512D01*
X25591077Y-115078575D01*
X25598196Y-115078512D01*
X25620025Y-115079122D01*
X25641364Y-115080951D01*
X25662214Y-115083999D01*
X25682575Y-115088267D01*
X25702446Y-115093754D01*
X25721827Y-115100460D01*
X25740719Y-115108385D01*
X25759122Y-115117530D01*
X25777035Y-115127894D01*
X25794459Y-115139478D01*
X25805803Y-115147877D01*
X25822465Y-115161416D01*
X25838930Y-115176019D01*
X25855197Y-115191687D01*
X25871267Y-115208419D01*
X25887140Y-115226216D01*
X25902815Y-115245078D01*
X25918292Y-115265005D01*
X25933572Y-115285997D01*
X25948655Y-115308053D01*
X25963540Y-115331174D01*
X25973353Y-115347180D01*
X25973353Y-116373000D01*
X26230785Y-116373000D01*
X26230785Y-114903635D01*
X26009990Y-114903635D01*
X25987519Y-115142016D01*
X25972447Y-115118862D01*
X25956722Y-115096661D01*
X25940344Y-115075413D01*
X25923314Y-115055119D01*
X25905631Y-115035777D01*
X25887296Y-115017389D01*
X25868308Y-114999954D01*
X25848667Y-114983471D01*
X25828374Y-114967942D01*
X25807428Y-114953367D01*
X25793102Y-114944179D01*
X25771093Y-114931346D01*
X25748663Y-114919776D01*
X25725813Y-114909467D01*
X25702541Y-114900421D01*
X25678849Y-114892637D01*
X25654737Y-114886116D01*
X25630203Y-114880857D01*
X25605249Y-114876859D01*
X25579874Y-114874125D01*
X25554078Y-114872652D01*
X25536647Y-114872371D01*
G37*
G36*
X24108124Y-114872763D02*
G01*
X24130999Y-114873936D01*
X24153492Y-114875892D01*
X24175604Y-114878630D01*
X24197334Y-114882151D01*
X24218682Y-114886454D01*
X24239649Y-114891539D01*
X24260234Y-114897406D01*
X24280437Y-114904056D01*
X24300259Y-114911488D01*
X24319699Y-114919703D01*
X24338758Y-114928700D01*
X24357435Y-114938479D01*
X24375730Y-114949041D01*
X24393644Y-114960385D01*
X24411176Y-114972511D01*
X24428206Y-114985328D01*
X24444737Y-114998744D01*
X24460767Y-115012760D01*
X24476297Y-115027374D01*
X24491328Y-115042588D01*
X24505858Y-115058401D01*
X24519889Y-115074813D01*
X24533420Y-115091824D01*
X24546450Y-115109434D01*
X24558981Y-115127643D01*
X24571012Y-115146452D01*
X24582543Y-115165860D01*
X24593574Y-115185867D01*
X24604105Y-115206473D01*
X24614136Y-115227678D01*
X24623667Y-115249482D01*
X24632659Y-115271726D01*
X24641070Y-115294370D01*
X24648901Y-115317414D01*
X24656152Y-115340860D01*
X24662823Y-115364706D01*
X24668913Y-115388953D01*
X24674424Y-115413600D01*
X24679355Y-115438648D01*
X24683705Y-115464097D01*
X24687476Y-115489947D01*
X24690666Y-115516198D01*
X24693277Y-115542849D01*
X24695307Y-115569900D01*
X24696757Y-115597353D01*
X24697627Y-115625206D01*
X24697917Y-115653460D01*
X24697749Y-115675204D01*
X24697245Y-115696655D01*
X24696406Y-115717813D01*
X24695230Y-115738678D01*
X24693719Y-115759250D01*
X24691872Y-115779529D01*
X24689689Y-115799516D01*
X24687170Y-115819209D01*
X24681125Y-115857718D01*
X24673737Y-115895054D01*
X24665005Y-115931220D01*
X24654930Y-115966213D01*
X24643512Y-116000035D01*
X24630750Y-116032685D01*
X24616645Y-116064164D01*
X24601197Y-116094471D01*
X24584405Y-116123607D01*
X24566270Y-116151570D01*
X24546792Y-116178363D01*
X24525970Y-116203983D01*
X24503887Y-116228236D01*
X24480747Y-116250924D01*
X24456550Y-116272047D01*
X24431296Y-116291606D01*
X24404984Y-116309599D01*
X24377616Y-116326029D01*
X24349190Y-116340893D01*
X24319707Y-116354193D01*
X24289167Y-116365928D01*
X24257570Y-116376098D01*
X24224916Y-116384704D01*
X24191205Y-116391745D01*
X24156436Y-116397222D01*
X24120611Y-116401133D01*
X24083728Y-116403480D01*
X24045789Y-116404263D01*
X24010975Y-116403555D01*
X23976508Y-116401431D01*
X23942388Y-116397891D01*
X23908616Y-116392936D01*
X23875191Y-116386565D01*
X23842113Y-116378777D01*
X23809383Y-116369574D01*
X23777000Y-116358956D01*
X23744964Y-116346921D01*
X23713275Y-116333470D01*
X23681934Y-116318604D01*
X23650940Y-116302322D01*
X23620293Y-116284624D01*
X23589993Y-116265510D01*
X23560041Y-116244980D01*
X23530436Y-116223034D01*
X23642300Y-116072092D01*
X23648428Y-116076179D01*
X23666716Y-116088022D01*
X23684858Y-116099237D01*
X23702855Y-116109826D01*
X23720705Y-116119788D01*
X23738409Y-116129123D01*
X23761788Y-116140595D01*
X23784907Y-116150952D01*
X23807766Y-116160195D01*
X23830367Y-116168324D01*
X23835970Y-116170157D01*
X23858719Y-116176908D01*
X23882002Y-116182728D01*
X23905820Y-116187617D01*
X23930172Y-116191574D01*
X23955058Y-116194601D01*
X23980478Y-116196696D01*
X24006433Y-116197860D01*
X24026249Y-116198122D01*
X24047014Y-116197683D01*
X24067297Y-116196366D01*
X24087100Y-116194172D01*
X24106422Y-116191100D01*
X24134503Y-116184846D01*
X24161503Y-116176617D01*
X24187420Y-116166413D01*
X24212256Y-116154234D01*
X24236009Y-116140081D01*
X24258681Y-116123952D01*
X24280270Y-116105848D01*
X24300778Y-116085770D01*
X24313681Y-116071234D01*
X24325890Y-116055713D01*
X24337403Y-116039207D01*
X24348222Y-116021717D01*
X24358347Y-116003243D01*
X24367777Y-115983783D01*
X24376513Y-115963339D01*
X24384554Y-115941911D01*
X24391900Y-115919498D01*
X24398552Y-115896100D01*
X24404509Y-115871718D01*
X24409772Y-115846351D01*
X24414340Y-115819999D01*
X24418213Y-115792663D01*
X24421392Y-115764343D01*
X24423877Y-115735037D01*
X23483053Y-115735037D01*
X23482343Y-115726622D01*
X23480769Y-115705685D01*
X23479481Y-115684891D01*
X23478479Y-115664240D01*
X23477764Y-115643732D01*
X23477335Y-115623368D01*
X23477191Y-115603146D01*
X23477345Y-115581859D01*
X23477804Y-115560863D01*
X23478570Y-115540159D01*
X23479161Y-115528896D01*
X23732181Y-115528896D01*
X24423877Y-115528896D01*
X24421825Y-115501187D01*
X24419211Y-115474358D01*
X24416036Y-115448408D01*
X24412298Y-115423338D01*
X24407999Y-115399147D01*
X24403137Y-115375836D01*
X24397714Y-115353405D01*
X24391728Y-115331853D01*
X24385181Y-115311181D01*
X24378072Y-115291389D01*
X24370400Y-115272477D01*
X24362167Y-115254444D01*
X24344015Y-115221017D01*
X24323615Y-115191108D01*
X24300967Y-115164719D01*
X24276072Y-115141848D01*
X24248928Y-115122495D01*
X24219537Y-115106661D01*
X24187898Y-115094346D01*
X24154011Y-115085550D01*
X24117877Y-115080272D01*
X24079494Y-115078512D01*
X24058098Y-115078947D01*
X24037385Y-115080253D01*
X24017355Y-115082428D01*
X23998009Y-115085473D01*
X23970270Y-115091673D01*
X23944067Y-115099830D01*
X23919402Y-115109945D01*
X23896274Y-115122018D01*
X23874683Y-115136049D01*
X23854629Y-115152037D01*
X23836112Y-115169983D01*
X23819131Y-115189887D01*
X23813782Y-115196916D01*
X23798752Y-115219189D01*
X23785251Y-115243238D01*
X23773279Y-115269066D01*
X23766146Y-115287271D01*
X23759693Y-115306267D01*
X23753919Y-115326053D01*
X23748824Y-115346628D01*
X23744408Y-115367994D01*
X23740672Y-115390149D01*
X23737615Y-115413095D01*
X23735238Y-115436830D01*
X23733540Y-115461355D01*
X23732521Y-115486671D01*
X23732181Y-115512776D01*
X23732181Y-115528896D01*
X23479161Y-115528896D01*
X23479641Y-115519745D01*
X23481020Y-115499622D01*
X23482704Y-115479790D01*
X23486992Y-115440999D01*
X23492504Y-115403373D01*
X23499242Y-115366910D01*
X23507205Y-115331611D01*
X23516392Y-115297476D01*
X23526805Y-115264505D01*
X23538443Y-115232698D01*
X23551306Y-115202055D01*
X23565394Y-115172576D01*
X23580706Y-115144261D01*
X23597244Y-115117110D01*
X23615007Y-115091123D01*
X23633995Y-115066300D01*
X23654132Y-115042817D01*
X23675341Y-115020848D01*
X23697622Y-115000395D01*
X23720976Y-114981456D01*
X23745402Y-114964033D01*
X23770901Y-114948125D01*
X23797472Y-114933732D01*
X23825115Y-114920854D01*
X23853831Y-114909491D01*
X23883619Y-114899643D01*
X23914480Y-114891310D01*
X23946412Y-114884492D01*
X23979418Y-114879189D01*
X24013495Y-114875402D01*
X24048645Y-114873129D01*
X24084868Y-114872371D01*
X24108124Y-114872763D01*
G37*
%TO.C,U2*%
X86569130Y-97063345D02*
X87378654Y-97063345D01*
X87378654Y-97063345D02*
X87473892Y-97110964D01*
X87473892Y-97110964D02*
X87521511Y-97158583D01*
X87521511Y-97158583D02*
X87569130Y-97253821D01*
X87569130Y-97253821D02*
X87569130Y-97444297D01*
X87569130Y-97444297D02*
X87521511Y-97539535D01*
X87521511Y-97539535D02*
X87473892Y-97587154D01*
X87473892Y-97587154D02*
X87378654Y-97634773D01*
X87378654Y-97634773D02*
X86569130Y-97634773D01*
X86664369Y-98063345D02*
X86616750Y-98110964D01*
X86616750Y-98110964D02*
X86569130Y-98206202D01*
X86569130Y-98206202D02*
X86569130Y-98444297D01*
X86569130Y-98444297D02*
X86616750Y-98539535D01*
X86616750Y-98539535D02*
X86664369Y-98587154D01*
X86664369Y-98587154D02*
X86759607Y-98634773D01*
X86759607Y-98634773D02*
X86854845Y-98634773D01*
X86854845Y-98634773D02*
X86997702Y-98587154D01*
X86997702Y-98587154D02*
X87569130Y-98015726D01*
X87569130Y-98015726D02*
X87569130Y-98634773D01*
%TO.C,R5*%
X103617380Y-37814583D02*
X103141190Y-37481250D01*
X103617380Y-37243155D02*
X102617380Y-37243155D01*
X102617380Y-37243155D02*
X102617380Y-37624107D01*
X102617380Y-37624107D02*
X102665000Y-37719345D01*
X102665000Y-37719345D02*
X102712619Y-37766964D01*
X102712619Y-37766964D02*
X102807857Y-37814583D01*
X102807857Y-37814583D02*
X102950714Y-37814583D01*
X102950714Y-37814583D02*
X103045952Y-37766964D01*
X103045952Y-37766964D02*
X103093571Y-37719345D01*
X103093571Y-37719345D02*
X103141190Y-37624107D01*
X103141190Y-37624107D02*
X103141190Y-37243155D01*
X102617380Y-38719345D02*
X102617380Y-38243155D01*
X102617380Y-38243155D02*
X103093571Y-38195536D01*
X103093571Y-38195536D02*
X103045952Y-38243155D01*
X103045952Y-38243155D02*
X102998333Y-38338393D01*
X102998333Y-38338393D02*
X102998333Y-38576488D01*
X102998333Y-38576488D02*
X103045952Y-38671726D01*
X103045952Y-38671726D02*
X103093571Y-38719345D01*
X103093571Y-38719345D02*
X103188809Y-38766964D01*
X103188809Y-38766964D02*
X103426904Y-38766964D01*
X103426904Y-38766964D02*
X103522142Y-38719345D01*
X103522142Y-38719345D02*
X103569761Y-38671726D01*
X103569761Y-38671726D02*
X103617380Y-38576488D01*
X103617380Y-38576488D02*
X103617380Y-38338393D01*
X103617380Y-38338393D02*
X103569761Y-38243155D01*
X103569761Y-38243155D02*
X103522142Y-38195536D01*
%TO.C,R8*%
X100317380Y-42814583D02*
X99841190Y-42481250D01*
X100317380Y-42243155D02*
X99317380Y-42243155D01*
X99317380Y-42243155D02*
X99317380Y-42624107D01*
X99317380Y-42624107D02*
X99365000Y-42719345D01*
X99365000Y-42719345D02*
X99412619Y-42766964D01*
X99412619Y-42766964D02*
X99507857Y-42814583D01*
X99507857Y-42814583D02*
X99650714Y-42814583D01*
X99650714Y-42814583D02*
X99745952Y-42766964D01*
X99745952Y-42766964D02*
X99793571Y-42719345D01*
X99793571Y-42719345D02*
X99841190Y-42624107D01*
X99841190Y-42624107D02*
X99841190Y-42243155D01*
X99745952Y-43386012D02*
X99698333Y-43290774D01*
X99698333Y-43290774D02*
X99650714Y-43243155D01*
X99650714Y-43243155D02*
X99555476Y-43195536D01*
X99555476Y-43195536D02*
X99507857Y-43195536D01*
X99507857Y-43195536D02*
X99412619Y-43243155D01*
X99412619Y-43243155D02*
X99365000Y-43290774D01*
X99365000Y-43290774D02*
X99317380Y-43386012D01*
X99317380Y-43386012D02*
X99317380Y-43576488D01*
X99317380Y-43576488D02*
X99365000Y-43671726D01*
X99365000Y-43671726D02*
X99412619Y-43719345D01*
X99412619Y-43719345D02*
X99507857Y-43766964D01*
X99507857Y-43766964D02*
X99555476Y-43766964D01*
X99555476Y-43766964D02*
X99650714Y-43719345D01*
X99650714Y-43719345D02*
X99698333Y-43671726D01*
X99698333Y-43671726D02*
X99745952Y-43576488D01*
X99745952Y-43576488D02*
X99745952Y-43386012D01*
X99745952Y-43386012D02*
X99793571Y-43290774D01*
X99793571Y-43290774D02*
X99841190Y-43243155D01*
X99841190Y-43243155D02*
X99936428Y-43195536D01*
X99936428Y-43195536D02*
X100126904Y-43195536D01*
X100126904Y-43195536D02*
X100222142Y-43243155D01*
X100222142Y-43243155D02*
X100269761Y-43290774D01*
X100269761Y-43290774D02*
X100317380Y-43386012D01*
X100317380Y-43386012D02*
X100317380Y-43576488D01*
X100317380Y-43576488D02*
X100269761Y-43671726D01*
X100269761Y-43671726D02*
X100222142Y-43719345D01*
X100222142Y-43719345D02*
X100126904Y-43766964D01*
X100126904Y-43766964D02*
X99936428Y-43766964D01*
X99936428Y-43766964D02*
X99841190Y-43719345D01*
X99841190Y-43719345D02*
X99793571Y-43671726D01*
X99793571Y-43671726D02*
X99745952Y-43576488D01*
%TO.C,C2*%
X96186142Y-101589583D02*
X96233761Y-101541964D01*
X96233761Y-101541964D02*
X96281380Y-101399107D01*
X96281380Y-101399107D02*
X96281380Y-101303869D01*
X96281380Y-101303869D02*
X96233761Y-101161012D01*
X96233761Y-101161012D02*
X96138523Y-101065774D01*
X96138523Y-101065774D02*
X96043285Y-101018155D01*
X96043285Y-101018155D02*
X95852809Y-100970536D01*
X95852809Y-100970536D02*
X95709952Y-100970536D01*
X95709952Y-100970536D02*
X95519476Y-101018155D01*
X95519476Y-101018155D02*
X95424238Y-101065774D01*
X95424238Y-101065774D02*
X95329000Y-101161012D01*
X95329000Y-101161012D02*
X95281380Y-101303869D01*
X95281380Y-101303869D02*
X95281380Y-101399107D01*
X95281380Y-101399107D02*
X95329000Y-101541964D01*
X95329000Y-101541964D02*
X95376619Y-101589583D01*
X95376619Y-101970536D02*
X95329000Y-102018155D01*
X95329000Y-102018155D02*
X95281380Y-102113393D01*
X95281380Y-102113393D02*
X95281380Y-102351488D01*
X95281380Y-102351488D02*
X95329000Y-102446726D01*
X95329000Y-102446726D02*
X95376619Y-102494345D01*
X95376619Y-102494345D02*
X95471857Y-102541964D01*
X95471857Y-102541964D02*
X95567095Y-102541964D01*
X95567095Y-102541964D02*
X95709952Y-102494345D01*
X95709952Y-102494345D02*
X96281380Y-101922917D01*
X96281380Y-101922917D02*
X96281380Y-102541964D01*
%TO.C,C4*%
X98726142Y-101589583D02*
X98773761Y-101541964D01*
X98773761Y-101541964D02*
X98821380Y-101399107D01*
X98821380Y-101399107D02*
X98821380Y-101303869D01*
X98821380Y-101303869D02*
X98773761Y-101161012D01*
X98773761Y-101161012D02*
X98678523Y-101065774D01*
X98678523Y-101065774D02*
X98583285Y-101018155D01*
X98583285Y-101018155D02*
X98392809Y-100970536D01*
X98392809Y-100970536D02*
X98249952Y-100970536D01*
X98249952Y-100970536D02*
X98059476Y-101018155D01*
X98059476Y-101018155D02*
X97964238Y-101065774D01*
X97964238Y-101065774D02*
X97869000Y-101161012D01*
X97869000Y-101161012D02*
X97821380Y-101303869D01*
X97821380Y-101303869D02*
X97821380Y-101399107D01*
X97821380Y-101399107D02*
X97869000Y-101541964D01*
X97869000Y-101541964D02*
X97916619Y-101589583D01*
X98154714Y-102446726D02*
X98821380Y-102446726D01*
X97773761Y-102208631D02*
X98488047Y-101970536D01*
X98488047Y-101970536D02*
X98488047Y-102589583D01*
%TO.C,R6*%
X105776380Y-37838083D02*
X105300190Y-37504750D01*
X105776380Y-37266655D02*
X104776380Y-37266655D01*
X104776380Y-37266655D02*
X104776380Y-37647607D01*
X104776380Y-37647607D02*
X104824000Y-37742845D01*
X104824000Y-37742845D02*
X104871619Y-37790464D01*
X104871619Y-37790464D02*
X104966857Y-37838083D01*
X104966857Y-37838083D02*
X105109714Y-37838083D01*
X105109714Y-37838083D02*
X105204952Y-37790464D01*
X105204952Y-37790464D02*
X105252571Y-37742845D01*
X105252571Y-37742845D02*
X105300190Y-37647607D01*
X105300190Y-37647607D02*
X105300190Y-37266655D01*
X104776380Y-38695226D02*
X104776380Y-38504750D01*
X104776380Y-38504750D02*
X104824000Y-38409512D01*
X104824000Y-38409512D02*
X104871619Y-38361893D01*
X104871619Y-38361893D02*
X105014476Y-38266655D01*
X105014476Y-38266655D02*
X105204952Y-38219036D01*
X105204952Y-38219036D02*
X105585904Y-38219036D01*
X105585904Y-38219036D02*
X105681142Y-38266655D01*
X105681142Y-38266655D02*
X105728761Y-38314274D01*
X105728761Y-38314274D02*
X105776380Y-38409512D01*
X105776380Y-38409512D02*
X105776380Y-38599988D01*
X105776380Y-38599988D02*
X105728761Y-38695226D01*
X105728761Y-38695226D02*
X105681142Y-38742845D01*
X105681142Y-38742845D02*
X105585904Y-38790464D01*
X105585904Y-38790464D02*
X105347809Y-38790464D01*
X105347809Y-38790464D02*
X105252571Y-38742845D01*
X105252571Y-38742845D02*
X105204952Y-38695226D01*
X105204952Y-38695226D02*
X105157333Y-38599988D01*
X105157333Y-38599988D02*
X105157333Y-38409512D01*
X105157333Y-38409512D02*
X105204952Y-38314274D01*
X105204952Y-38314274D02*
X105252571Y-38266655D01*
X105252571Y-38266655D02*
X105347809Y-38219036D01*
%TO.C,SW1*%
X53020511Y-95348917D02*
X53068130Y-95491774D01*
X53068130Y-95491774D02*
X53068130Y-95729869D01*
X53068130Y-95729869D02*
X53020511Y-95825107D01*
X53020511Y-95825107D02*
X52972892Y-95872726D01*
X52972892Y-95872726D02*
X52877654Y-95920345D01*
X52877654Y-95920345D02*
X52782416Y-95920345D01*
X52782416Y-95920345D02*
X52687178Y-95872726D01*
X52687178Y-95872726D02*
X52639559Y-95825107D01*
X52639559Y-95825107D02*
X52591940Y-95729869D01*
X52591940Y-95729869D02*
X52544321Y-95539393D01*
X52544321Y-95539393D02*
X52496702Y-95444155D01*
X52496702Y-95444155D02*
X52449083Y-95396536D01*
X52449083Y-95396536D02*
X52353845Y-95348917D01*
X52353845Y-95348917D02*
X52258607Y-95348917D01*
X52258607Y-95348917D02*
X52163369Y-95396536D01*
X52163369Y-95396536D02*
X52115750Y-95444155D01*
X52115750Y-95444155D02*
X52068130Y-95539393D01*
X52068130Y-95539393D02*
X52068130Y-95777488D01*
X52068130Y-95777488D02*
X52115750Y-95920345D01*
X52068130Y-96253679D02*
X53068130Y-96491774D01*
X53068130Y-96491774D02*
X52353845Y-96682250D01*
X52353845Y-96682250D02*
X53068130Y-96872726D01*
X53068130Y-96872726D02*
X52068130Y-97110822D01*
X53068130Y-98015583D02*
X53068130Y-97444155D01*
X53068130Y-97729869D02*
X52068130Y-97729869D01*
X52068130Y-97729869D02*
X52210988Y-97634631D01*
X52210988Y-97634631D02*
X52306226Y-97539393D01*
X52306226Y-97539393D02*
X52353845Y-97444155D01*
%TO.C,C5*%
X87746142Y-101589583D02*
X87793761Y-101541964D01*
X87793761Y-101541964D02*
X87841380Y-101399107D01*
X87841380Y-101399107D02*
X87841380Y-101303869D01*
X87841380Y-101303869D02*
X87793761Y-101161012D01*
X87793761Y-101161012D02*
X87698523Y-101065774D01*
X87698523Y-101065774D02*
X87603285Y-101018155D01*
X87603285Y-101018155D02*
X87412809Y-100970536D01*
X87412809Y-100970536D02*
X87269952Y-100970536D01*
X87269952Y-100970536D02*
X87079476Y-101018155D01*
X87079476Y-101018155D02*
X86984238Y-101065774D01*
X86984238Y-101065774D02*
X86889000Y-101161012D01*
X86889000Y-101161012D02*
X86841380Y-101303869D01*
X86841380Y-101303869D02*
X86841380Y-101399107D01*
X86841380Y-101399107D02*
X86889000Y-101541964D01*
X86889000Y-101541964D02*
X86936619Y-101589583D01*
X86841380Y-102494345D02*
X86841380Y-102018155D01*
X86841380Y-102018155D02*
X87317571Y-101970536D01*
X87317571Y-101970536D02*
X87269952Y-102018155D01*
X87269952Y-102018155D02*
X87222333Y-102113393D01*
X87222333Y-102113393D02*
X87222333Y-102351488D01*
X87222333Y-102351488D02*
X87269952Y-102446726D01*
X87269952Y-102446726D02*
X87317571Y-102494345D01*
X87317571Y-102494345D02*
X87412809Y-102541964D01*
X87412809Y-102541964D02*
X87650904Y-102541964D01*
X87650904Y-102541964D02*
X87746142Y-102494345D01*
X87746142Y-102494345D02*
X87793761Y-102446726D01*
X87793761Y-102446726D02*
X87841380Y-102351488D01*
X87841380Y-102351488D02*
X87841380Y-102113393D01*
X87841380Y-102113393D02*
X87793761Y-102018155D01*
X87793761Y-102018155D02*
X87746142Y-101970536D01*
%TO.C,C6*%
X67538416Y-101243392D02*
X67586035Y-101291011D01*
X67586035Y-101291011D02*
X67728892Y-101338630D01*
X67728892Y-101338630D02*
X67824130Y-101338630D01*
X67824130Y-101338630D02*
X67966987Y-101291011D01*
X67966987Y-101291011D02*
X68062225Y-101195773D01*
X68062225Y-101195773D02*
X68109844Y-101100535D01*
X68109844Y-101100535D02*
X68157463Y-100910059D01*
X68157463Y-100910059D02*
X68157463Y-100767202D01*
X68157463Y-100767202D02*
X68109844Y-100576726D01*
X68109844Y-100576726D02*
X68062225Y-100481488D01*
X68062225Y-100481488D02*
X67966987Y-100386250D01*
X67966987Y-100386250D02*
X67824130Y-100338630D01*
X67824130Y-100338630D02*
X67728892Y-100338630D01*
X67728892Y-100338630D02*
X67586035Y-100386250D01*
X67586035Y-100386250D02*
X67538416Y-100433869D01*
X66681273Y-100338630D02*
X66871749Y-100338630D01*
X66871749Y-100338630D02*
X66966987Y-100386250D01*
X66966987Y-100386250D02*
X67014606Y-100433869D01*
X67014606Y-100433869D02*
X67109844Y-100576726D01*
X67109844Y-100576726D02*
X67157463Y-100767202D01*
X67157463Y-100767202D02*
X67157463Y-101148154D01*
X67157463Y-101148154D02*
X67109844Y-101243392D01*
X67109844Y-101243392D02*
X67062225Y-101291011D01*
X67062225Y-101291011D02*
X66966987Y-101338630D01*
X66966987Y-101338630D02*
X66776511Y-101338630D01*
X66776511Y-101338630D02*
X66681273Y-101291011D01*
X66681273Y-101291011D02*
X66633654Y-101243392D01*
X66633654Y-101243392D02*
X66586035Y-101148154D01*
X66586035Y-101148154D02*
X66586035Y-100910059D01*
X66586035Y-100910059D02*
X66633654Y-100814821D01*
X66633654Y-100814821D02*
X66681273Y-100767202D01*
X66681273Y-100767202D02*
X66776511Y-100719583D01*
X66776511Y-100719583D02*
X66966987Y-100719583D01*
X66966987Y-100719583D02*
X67062225Y-100767202D01*
X67062225Y-100767202D02*
X67109844Y-100814821D01*
X67109844Y-100814821D02*
X67157463Y-100910059D01*
%TO.C,R4*%
X62079166Y-103236380D02*
X62412499Y-102760190D01*
X62650594Y-103236380D02*
X62650594Y-102236380D01*
X62650594Y-102236380D02*
X62269642Y-102236380D01*
X62269642Y-102236380D02*
X62174404Y-102284000D01*
X62174404Y-102284000D02*
X62126785Y-102331619D01*
X62126785Y-102331619D02*
X62079166Y-102426857D01*
X62079166Y-102426857D02*
X62079166Y-102569714D01*
X62079166Y-102569714D02*
X62126785Y-102664952D01*
X62126785Y-102664952D02*
X62174404Y-102712571D01*
X62174404Y-102712571D02*
X62269642Y-102760190D01*
X62269642Y-102760190D02*
X62650594Y-102760190D01*
X61222023Y-102569714D02*
X61222023Y-103236380D01*
X61460118Y-102188761D02*
X61698213Y-102903047D01*
X61698213Y-102903047D02*
X61079166Y-102903047D01*
%TO.C,Y1*%
X67824940Y-95862440D02*
X67824940Y-96338630D01*
X68158273Y-95338630D02*
X67824940Y-95862440D01*
X67824940Y-95862440D02*
X67491607Y-95338630D01*
X66634464Y-96338630D02*
X67205892Y-96338630D01*
X66920178Y-96338630D02*
X66920178Y-95338630D01*
X66920178Y-95338630D02*
X67015416Y-95481488D01*
X67015416Y-95481488D02*
X67110654Y-95576726D01*
X67110654Y-95576726D02*
X67205892Y-95624345D01*
%TO.C,R10*%
X102242857Y-57454880D02*
X102576190Y-56978690D01*
X102814285Y-57454880D02*
X102814285Y-56454880D01*
X102814285Y-56454880D02*
X102433333Y-56454880D01*
X102433333Y-56454880D02*
X102338095Y-56502500D01*
X102338095Y-56502500D02*
X102290476Y-56550119D01*
X102290476Y-56550119D02*
X102242857Y-56645357D01*
X102242857Y-56645357D02*
X102242857Y-56788214D01*
X102242857Y-56788214D02*
X102290476Y-56883452D01*
X102290476Y-56883452D02*
X102338095Y-56931071D01*
X102338095Y-56931071D02*
X102433333Y-56978690D01*
X102433333Y-56978690D02*
X102814285Y-56978690D01*
X101290476Y-57454880D02*
X101861904Y-57454880D01*
X101576190Y-57454880D02*
X101576190Y-56454880D01*
X101576190Y-56454880D02*
X101671428Y-56597738D01*
X101671428Y-56597738D02*
X101766666Y-56692976D01*
X101766666Y-56692976D02*
X101861904Y-56740595D01*
X100671428Y-56454880D02*
X100576190Y-56454880D01*
X100576190Y-56454880D02*
X100480952Y-56502500D01*
X100480952Y-56502500D02*
X100433333Y-56550119D01*
X100433333Y-56550119D02*
X100385714Y-56645357D01*
X100385714Y-56645357D02*
X100338095Y-56835833D01*
X100338095Y-56835833D02*
X100338095Y-57073928D01*
X100338095Y-57073928D02*
X100385714Y-57264404D01*
X100385714Y-57264404D02*
X100433333Y-57359642D01*
X100433333Y-57359642D02*
X100480952Y-57407261D01*
X100480952Y-57407261D02*
X100576190Y-57454880D01*
X100576190Y-57454880D02*
X100671428Y-57454880D01*
X100671428Y-57454880D02*
X100766666Y-57407261D01*
X100766666Y-57407261D02*
X100814285Y-57359642D01*
X100814285Y-57359642D02*
X100861904Y-57264404D01*
X100861904Y-57264404D02*
X100909523Y-57073928D01*
X100909523Y-57073928D02*
X100909523Y-56835833D01*
X100909523Y-56835833D02*
X100861904Y-56645357D01*
X100861904Y-56645357D02*
X100814285Y-56550119D01*
X100814285Y-56550119D02*
X100766666Y-56502500D01*
X100766666Y-56502500D02*
X100671428Y-56454880D01*
%TO.C,C7*%
X67992142Y-93813333D02*
X68039761Y-93765714D01*
X68039761Y-93765714D02*
X68087380Y-93622857D01*
X68087380Y-93622857D02*
X68087380Y-93527619D01*
X68087380Y-93527619D02*
X68039761Y-93384762D01*
X68039761Y-93384762D02*
X67944523Y-93289524D01*
X67944523Y-93289524D02*
X67849285Y-93241905D01*
X67849285Y-93241905D02*
X67658809Y-93194286D01*
X67658809Y-93194286D02*
X67515952Y-93194286D01*
X67515952Y-93194286D02*
X67325476Y-93241905D01*
X67325476Y-93241905D02*
X67230238Y-93289524D01*
X67230238Y-93289524D02*
X67135000Y-93384762D01*
X67135000Y-93384762D02*
X67087380Y-93527619D01*
X67087380Y-93527619D02*
X67087380Y-93622857D01*
X67087380Y-93622857D02*
X67135000Y-93765714D01*
X67135000Y-93765714D02*
X67182619Y-93813333D01*
X67087380Y-94146667D02*
X67087380Y-94813333D01*
X67087380Y-94813333D02*
X68087380Y-94384762D01*
%TO.C,J1*%
X105906130Y-40595916D02*
X106620416Y-40595916D01*
X106620416Y-40595916D02*
X106763273Y-40548297D01*
X106763273Y-40548297D02*
X106858511Y-40453059D01*
X106858511Y-40453059D02*
X106906130Y-40310202D01*
X106906130Y-40310202D02*
X106906130Y-40214964D01*
X106906130Y-41595916D02*
X106906130Y-41024488D01*
X106906130Y-41310202D02*
X105906130Y-41310202D01*
X105906130Y-41310202D02*
X106048988Y-41214964D01*
X106048988Y-41214964D02*
X106144226Y-41119726D01*
X106144226Y-41119726D02*
X106191845Y-41024488D01*
%TO.C,R7*%
X102476380Y-42814583D02*
X102000190Y-42481250D01*
X102476380Y-42243155D02*
X101476380Y-42243155D01*
X101476380Y-42243155D02*
X101476380Y-42624107D01*
X101476380Y-42624107D02*
X101524000Y-42719345D01*
X101524000Y-42719345D02*
X101571619Y-42766964D01*
X101571619Y-42766964D02*
X101666857Y-42814583D01*
X101666857Y-42814583D02*
X101809714Y-42814583D01*
X101809714Y-42814583D02*
X101904952Y-42766964D01*
X101904952Y-42766964D02*
X101952571Y-42719345D01*
X101952571Y-42719345D02*
X102000190Y-42624107D01*
X102000190Y-42624107D02*
X102000190Y-42243155D01*
X101476380Y-43147917D02*
X101476380Y-43814583D01*
X101476380Y-43814583D02*
X102476380Y-43386012D01*
%TO.C,R9*%
X101766666Y-55295880D02*
X102099999Y-54819690D01*
X102338094Y-55295880D02*
X102338094Y-54295880D01*
X102338094Y-54295880D02*
X101957142Y-54295880D01*
X101957142Y-54295880D02*
X101861904Y-54343500D01*
X101861904Y-54343500D02*
X101814285Y-54391119D01*
X101814285Y-54391119D02*
X101766666Y-54486357D01*
X101766666Y-54486357D02*
X101766666Y-54629214D01*
X101766666Y-54629214D02*
X101814285Y-54724452D01*
X101814285Y-54724452D02*
X101861904Y-54772071D01*
X101861904Y-54772071D02*
X101957142Y-54819690D01*
X101957142Y-54819690D02*
X102338094Y-54819690D01*
X101290475Y-55295880D02*
X101099999Y-55295880D01*
X101099999Y-55295880D02*
X101004761Y-55248261D01*
X101004761Y-55248261D02*
X100957142Y-55200642D01*
X100957142Y-55200642D02*
X100861904Y-55057785D01*
X100861904Y-55057785D02*
X100814285Y-54867309D01*
X100814285Y-54867309D02*
X100814285Y-54486357D01*
X100814285Y-54486357D02*
X100861904Y-54391119D01*
X100861904Y-54391119D02*
X100909523Y-54343500D01*
X100909523Y-54343500D02*
X101004761Y-54295880D01*
X101004761Y-54295880D02*
X101195237Y-54295880D01*
X101195237Y-54295880D02*
X101290475Y-54343500D01*
X101290475Y-54343500D02*
X101338094Y-54391119D01*
X101338094Y-54391119D02*
X101385713Y-54486357D01*
X101385713Y-54486357D02*
X101385713Y-54724452D01*
X101385713Y-54724452D02*
X101338094Y-54819690D01*
X101338094Y-54819690D02*
X101290475Y-54867309D01*
X101290475Y-54867309D02*
X101195237Y-54914928D01*
X101195237Y-54914928D02*
X101004761Y-54914928D01*
X101004761Y-54914928D02*
X100909523Y-54867309D01*
X100909523Y-54867309D02*
X100861904Y-54819690D01*
X100861904Y-54819690D02*
X100814285Y-54724452D01*
%TO.C,F1*%
X95586333Y-36885571D02*
X95919666Y-36885571D01*
X95919666Y-37409380D02*
X95919666Y-36409380D01*
X95919666Y-36409380D02*
X95443476Y-36409380D01*
X94538714Y-37409380D02*
X95110142Y-37409380D01*
X94824428Y-37409380D02*
X94824428Y-36409380D01*
X94824428Y-36409380D02*
X94919666Y-36552238D01*
X94919666Y-36552238D02*
X95014904Y-36647476D01*
X95014904Y-36647476D02*
X95110142Y-36695095D01*
%TO.C,C3*%
X90413142Y-101589583D02*
X90460761Y-101541964D01*
X90460761Y-101541964D02*
X90508380Y-101399107D01*
X90508380Y-101399107D02*
X90508380Y-101303869D01*
X90508380Y-101303869D02*
X90460761Y-101161012D01*
X90460761Y-101161012D02*
X90365523Y-101065774D01*
X90365523Y-101065774D02*
X90270285Y-101018155D01*
X90270285Y-101018155D02*
X90079809Y-100970536D01*
X90079809Y-100970536D02*
X89936952Y-100970536D01*
X89936952Y-100970536D02*
X89746476Y-101018155D01*
X89746476Y-101018155D02*
X89651238Y-101065774D01*
X89651238Y-101065774D02*
X89556000Y-101161012D01*
X89556000Y-101161012D02*
X89508380Y-101303869D01*
X89508380Y-101303869D02*
X89508380Y-101399107D01*
X89508380Y-101399107D02*
X89556000Y-101541964D01*
X89556000Y-101541964D02*
X89603619Y-101589583D01*
X89508380Y-101922917D02*
X89508380Y-102541964D01*
X89508380Y-102541964D02*
X89889333Y-102208631D01*
X89889333Y-102208631D02*
X89889333Y-102351488D01*
X89889333Y-102351488D02*
X89936952Y-102446726D01*
X89936952Y-102446726D02*
X89984571Y-102494345D01*
X89984571Y-102494345D02*
X90079809Y-102541964D01*
X90079809Y-102541964D02*
X90317904Y-102541964D01*
X90317904Y-102541964D02*
X90413142Y-102494345D01*
X90413142Y-102494345D02*
X90460761Y-102446726D01*
X90460761Y-102446726D02*
X90508380Y-102351488D01*
X90508380Y-102351488D02*
X90508380Y-102065774D01*
X90508380Y-102065774D02*
X90460761Y-101970536D01*
X90460761Y-101970536D02*
X90413142Y-101922917D01*
%TO.C,C1*%
X80335416Y-109108392D02*
X80383035Y-109156011D01*
X80383035Y-109156011D02*
X80525892Y-109203630D01*
X80525892Y-109203630D02*
X80621130Y-109203630D01*
X80621130Y-109203630D02*
X80763987Y-109156011D01*
X80763987Y-109156011D02*
X80859225Y-109060773D01*
X80859225Y-109060773D02*
X80906844Y-108965535D01*
X80906844Y-108965535D02*
X80954463Y-108775059D01*
X80954463Y-108775059D02*
X80954463Y-108632202D01*
X80954463Y-108632202D02*
X80906844Y-108441726D01*
X80906844Y-108441726D02*
X80859225Y-108346488D01*
X80859225Y-108346488D02*
X80763987Y-108251250D01*
X80763987Y-108251250D02*
X80621130Y-108203630D01*
X80621130Y-108203630D02*
X80525892Y-108203630D01*
X80525892Y-108203630D02*
X80383035Y-108251250D01*
X80383035Y-108251250D02*
X80335416Y-108298869D01*
X79383035Y-109203630D02*
X79954463Y-109203630D01*
X79668749Y-109203630D02*
X79668749Y-108203630D01*
X79668749Y-108203630D02*
X79763987Y-108346488D01*
X79763987Y-108346488D02*
X79859225Y-108441726D01*
X79859225Y-108441726D02*
X79954463Y-108489345D01*
%TO.C,R1*%
X87740130Y-93594583D02*
X87263940Y-93261250D01*
X87740130Y-93023155D02*
X86740130Y-93023155D01*
X86740130Y-93023155D02*
X86740130Y-93404107D01*
X86740130Y-93404107D02*
X86787750Y-93499345D01*
X86787750Y-93499345D02*
X86835369Y-93546964D01*
X86835369Y-93546964D02*
X86930607Y-93594583D01*
X86930607Y-93594583D02*
X87073464Y-93594583D01*
X87073464Y-93594583D02*
X87168702Y-93546964D01*
X87168702Y-93546964D02*
X87216321Y-93499345D01*
X87216321Y-93499345D02*
X87263940Y-93404107D01*
X87263940Y-93404107D02*
X87263940Y-93023155D01*
X87740130Y-94546964D02*
X87740130Y-93975536D01*
X87740130Y-94261250D02*
X86740130Y-94261250D01*
X86740130Y-94261250D02*
X86882988Y-94166012D01*
X86882988Y-94166012D02*
X86978226Y-94070774D01*
X86978226Y-94070774D02*
X87025845Y-93975536D01*
%TO.C,U2*%
X74576750Y-103000250D02*
X75251750Y-103000250D01*
X74576750Y-103000250D02*
X74576750Y-102325250D01*
X84351750Y-103000250D02*
X84351750Y-104275250D01*
X84926750Y-103000250D02*
X84351750Y-103000250D01*
X84926750Y-103000250D02*
X84926750Y-102325250D01*
X74576750Y-92650250D02*
X74576750Y-93325250D01*
X74576750Y-92650250D02*
X75251750Y-92650250D01*
X84926750Y-92650250D02*
X84926750Y-93325250D01*
X84926750Y-92650250D02*
X84251750Y-92650250D01*
D11*
%TO.C,R5*%
X100865000Y-38208314D02*
X100865000Y-37754186D01*
X102335000Y-38208314D02*
X102335000Y-37754186D01*
%TO.C,R8*%
X102335000Y-42754186D02*
X102335000Y-43208314D01*
X100865000Y-42754186D02*
X100865000Y-43208314D01*
%TO.C,C2*%
X93499000Y-102017502D02*
X93499000Y-101494998D01*
X94969000Y-102017502D02*
X94969000Y-101494998D01*
%TO.C,C4*%
X96039000Y-102017502D02*
X96039000Y-101494998D01*
X97509000Y-102017502D02*
X97509000Y-101494998D01*
%TO.C,R6*%
X103024000Y-38231814D02*
X103024000Y-37777686D01*
X104494000Y-38231814D02*
X104494000Y-37777686D01*
D10*
%TO.C,SW1*%
X54164750Y-99282250D02*
X59364750Y-99282250D01*
X59364750Y-99282250D02*
X59364750Y-94082250D01*
X54164750Y-94082250D02*
X54164750Y-99282250D01*
X59364750Y-94082250D02*
X54164750Y-94082250D01*
X57764750Y-96682250D02*
G75*
G03*
X57764750Y-96682250I-1000000J0D01*
G01*
D11*
%TO.C,C5*%
X89889000Y-101494998D02*
X89889000Y-102017502D01*
X88419000Y-101494998D02*
X88419000Y-102017502D01*
%TO.C,C6*%
X67633002Y-103386250D02*
X67110498Y-103386250D01*
X67633002Y-101916250D02*
X67110498Y-101916250D01*
%TO.C,R4*%
X61685436Y-100484000D02*
X62139564Y-100484000D01*
X61685436Y-101954000D02*
X62139564Y-101954000D01*
%TO.C,Y1*%
X69348750Y-100071250D02*
X65348750Y-100071250D01*
X69348750Y-96771250D02*
X69348750Y-100071250D01*
%TO.C,R10*%
X101827064Y-59472500D02*
X101372936Y-59472500D01*
X101827064Y-58002500D02*
X101372936Y-58002500D01*
%TO.C,C7*%
X65305000Y-94241252D02*
X65305000Y-93718748D01*
X66775000Y-94241252D02*
X66775000Y-93718748D01*
%TO.C,J1*%
X107528750Y-45679250D02*
X114788750Y-45679250D01*
X107528750Y-44179250D02*
X107528750Y-45679250D01*
X107528750Y-36179250D02*
X107528750Y-37679250D01*
X107528750Y-36179250D02*
X114788750Y-36179250D01*
%TO.C,R7*%
X104494000Y-42754186D02*
X104494000Y-43208314D01*
X103024000Y-42754186D02*
X103024000Y-43208314D01*
%TO.C,R9*%
X101827064Y-57313500D02*
X101372936Y-57313500D01*
X101827064Y-55843500D02*
X101372936Y-55843500D01*
%TO.C,F1*%
X95855064Y-39772000D02*
X94650936Y-39772000D01*
X95855064Y-37952000D02*
X94650936Y-37952000D01*
%TO.C,C3*%
X92556000Y-101494998D02*
X92556000Y-102017502D01*
X91086000Y-101494998D02*
X91086000Y-102017502D01*
%TO.C,C1*%
X79907498Y-106421250D02*
X80430002Y-106421250D01*
X79907498Y-107891250D02*
X80430002Y-107891250D01*
%TO.C,R1*%
X89757750Y-93534186D02*
X89757750Y-93988314D01*
X88287750Y-93534186D02*
X88287750Y-93988314D01*
%TD*%
%LPC*%
D10*
G36*
X35913857Y-114065475D02*
G01*
X35929244Y-114168546D01*
X36302936Y-114168546D01*
X36302936Y-114478246D01*
X35978093Y-114478246D01*
X35978093Y-114581316D01*
X36302936Y-114581316D01*
X36302936Y-114915929D01*
X35902622Y-114915929D01*
X35902622Y-115019000D01*
X36436048Y-115019000D01*
X36436048Y-114065475D01*
X35913857Y-114065475D01*
G37*
G36*
X35361136Y-114268685D02*
G01*
X35348699Y-114268919D01*
X35336608Y-114269620D01*
X35324863Y-114270789D01*
X35313462Y-114272425D01*
X35302408Y-114274529D01*
X35291698Y-114277100D01*
X35281334Y-114280139D01*
X35271315Y-114283645D01*
X35261642Y-114287619D01*
X35252314Y-114292060D01*
X35243331Y-114296969D01*
X35234694Y-114302345D01*
X35226402Y-114308189D01*
X35218456Y-114314500D01*
X35210855Y-114321279D01*
X35203599Y-114328525D01*
X35196737Y-114336180D01*
X35190318Y-114344183D01*
X35184342Y-114352536D01*
X35178808Y-114361238D01*
X35173717Y-114370290D01*
X35169069Y-114379690D01*
X35164864Y-114389440D01*
X35161101Y-114399539D01*
X35157781Y-114409987D01*
X35154903Y-114420784D01*
X35152468Y-114431930D01*
X35150476Y-114443426D01*
X35148927Y-114455271D01*
X35147820Y-114467465D01*
X35147156Y-114480008D01*
X35146935Y-114492900D01*
X35146935Y-115019000D01*
X35275651Y-115019000D01*
X35275651Y-114513173D01*
X35275910Y-114499013D01*
X35276690Y-114485661D01*
X35277988Y-114473116D01*
X35279807Y-114461378D01*
X35282144Y-114450447D01*
X35285001Y-114440323D01*
X35288378Y-114431007D01*
X35293689Y-114419840D01*
X35299922Y-114410109D01*
X35305204Y-114403752D01*
X35312970Y-114396253D01*
X35321614Y-114389754D01*
X35331136Y-114384254D01*
X35341535Y-114379755D01*
X35352812Y-114376255D01*
X35364967Y-114373756D01*
X35378000Y-114372256D01*
X35388350Y-114371787D01*
X35391910Y-114371756D01*
X35402825Y-114372061D01*
X35413494Y-114372975D01*
X35423919Y-114374499D01*
X35434099Y-114376633D01*
X35444035Y-114379377D01*
X35453726Y-114382730D01*
X35463172Y-114386692D01*
X35472373Y-114391265D01*
X35481330Y-114396447D01*
X35490041Y-114402239D01*
X35495713Y-114406438D01*
X35504045Y-114413208D01*
X35512277Y-114420509D01*
X35520411Y-114428343D01*
X35528446Y-114436709D01*
X35536382Y-114445608D01*
X35544219Y-114455039D01*
X35551958Y-114465002D01*
X35559598Y-114475498D01*
X35567139Y-114486526D01*
X35574582Y-114498087D01*
X35579489Y-114506090D01*
X35579489Y-115019000D01*
X35708205Y-115019000D01*
X35708205Y-114284317D01*
X35597807Y-114284317D01*
X35586572Y-114403508D01*
X35579035Y-114391931D01*
X35571173Y-114380830D01*
X35562984Y-114370206D01*
X35554469Y-114360059D01*
X35545628Y-114350388D01*
X35536460Y-114341194D01*
X35526966Y-114332477D01*
X35517146Y-114324235D01*
X35506999Y-114316471D01*
X35496526Y-114309183D01*
X35489363Y-114304589D01*
X35478359Y-114298173D01*
X35467144Y-114292388D01*
X35455718Y-114287233D01*
X35444083Y-114282710D01*
X35432237Y-114278818D01*
X35420180Y-114275558D01*
X35407914Y-114272928D01*
X35395436Y-114270929D01*
X35382749Y-114269562D01*
X35369851Y-114268826D01*
X35361136Y-114268685D01*
G37*
G36*
X34516300Y-114985782D02*
G01*
X34525474Y-114991698D01*
X34534801Y-114997231D01*
X34544281Y-115002383D01*
X34553913Y-115007154D01*
X34563698Y-115011542D01*
X34573636Y-115015550D01*
X34583726Y-115019175D01*
X34593969Y-115022419D01*
X34604364Y-115025281D01*
X34614913Y-115027762D01*
X34625614Y-115029861D01*
X34636467Y-115031578D01*
X34647473Y-115032914D01*
X34658632Y-115033868D01*
X34669944Y-115034440D01*
X34681408Y-115034631D01*
X34692970Y-115034423D01*
X34704210Y-115033799D01*
X34715128Y-115032759D01*
X34725723Y-115031303D01*
X34735995Y-115029431D01*
X34745945Y-115027143D01*
X34755573Y-115024440D01*
X34764878Y-115021320D01*
X34778231Y-115015860D01*
X34790858Y-115009464D01*
X34802760Y-115002133D01*
X34813936Y-114993865D01*
X34824387Y-114984662D01*
X34827709Y-114981386D01*
X34837094Y-114970984D01*
X34845555Y-114959745D01*
X34853094Y-114947668D01*
X34859709Y-114934755D01*
X34863606Y-114925681D01*
X34867093Y-114916234D01*
X34870170Y-114906416D01*
X34872837Y-114896225D01*
X34875093Y-114885663D01*
X34876939Y-114874728D01*
X34878375Y-114863422D01*
X34879401Y-114851743D01*
X34880016Y-114839692D01*
X34880221Y-114827269D01*
X34880221Y-114387387D01*
X35008937Y-114387387D01*
X35008937Y-114284317D01*
X34880221Y-114284317D01*
X34880221Y-114118720D01*
X34751505Y-114103333D01*
X34751505Y-114284317D01*
X34576383Y-114284317D01*
X34590549Y-114387387D01*
X34751505Y-114387387D01*
X34751505Y-114823361D01*
X34751327Y-114833757D01*
X34750793Y-114843603D01*
X34749526Y-114855876D01*
X34747625Y-114867172D01*
X34745091Y-114877491D01*
X34741924Y-114886834D01*
X34737073Y-114897138D01*
X34731233Y-114905915D01*
X34724166Y-114913303D01*
X34715787Y-114919439D01*
X34706096Y-114924323D01*
X34695093Y-114927954D01*
X34685346Y-114929958D01*
X34674760Y-114931160D01*
X34663334Y-114931561D01*
X34652289Y-114931110D01*
X34640894Y-114929759D01*
X34629147Y-114927508D01*
X34617050Y-114924355D01*
X34604601Y-114920302D01*
X34595034Y-114916672D01*
X34585270Y-114912534D01*
X34575308Y-114907890D01*
X34565148Y-114902740D01*
X34516300Y-114985782D01*
G37*
G36*
X34163273Y-114268881D02*
G01*
X34174711Y-114269468D01*
X34185957Y-114270446D01*
X34197013Y-114271815D01*
X34207878Y-114273575D01*
X34218552Y-114275727D01*
X34229036Y-114278269D01*
X34239328Y-114281203D01*
X34249430Y-114284528D01*
X34259341Y-114288244D01*
X34269061Y-114292351D01*
X34278590Y-114296850D01*
X34287929Y-114301739D01*
X34297076Y-114307020D01*
X34306033Y-114312692D01*
X34314799Y-114318755D01*
X34323314Y-114325164D01*
X34331579Y-114331872D01*
X34339595Y-114338880D01*
X34347360Y-114346187D01*
X34354875Y-114353794D01*
X34362140Y-114361700D01*
X34369156Y-114369906D01*
X34375921Y-114378412D01*
X34382436Y-114387217D01*
X34388702Y-114396321D01*
X34394717Y-114405726D01*
X34400483Y-114415430D01*
X34405998Y-114425433D01*
X34411264Y-114435736D01*
X34416279Y-114446339D01*
X34421045Y-114457241D01*
X34425540Y-114468363D01*
X34429746Y-114479685D01*
X34433662Y-114491207D01*
X34437287Y-114502930D01*
X34440622Y-114514853D01*
X34443668Y-114526976D01*
X34446423Y-114539300D01*
X34448889Y-114551824D01*
X34451064Y-114564548D01*
X34452949Y-114577473D01*
X34454544Y-114590599D01*
X34455849Y-114603924D01*
X34456865Y-114617450D01*
X34457590Y-114631176D01*
X34458025Y-114645103D01*
X34458170Y-114659230D01*
X34458086Y-114670102D01*
X34457834Y-114680827D01*
X34457414Y-114691406D01*
X34456826Y-114701839D01*
X34456071Y-114712125D01*
X34455147Y-114722264D01*
X34454056Y-114732258D01*
X34452796Y-114742104D01*
X34449774Y-114761359D01*
X34446080Y-114780027D01*
X34441714Y-114798110D01*
X34436676Y-114815606D01*
X34430967Y-114832517D01*
X34424586Y-114848842D01*
X34417534Y-114864582D01*
X34409810Y-114879735D01*
X34401414Y-114894303D01*
X34392346Y-114908285D01*
X34382607Y-114921681D01*
X34372196Y-114934491D01*
X34361155Y-114946618D01*
X34349585Y-114957962D01*
X34337486Y-114968523D01*
X34324859Y-114978303D01*
X34311703Y-114987299D01*
X34298019Y-114995514D01*
X34283806Y-115002946D01*
X34269065Y-115009596D01*
X34253795Y-115015464D01*
X34237996Y-115020549D01*
X34221669Y-115024852D01*
X34204814Y-115028372D01*
X34187429Y-115031111D01*
X34169517Y-115033066D01*
X34151075Y-115034240D01*
X34132106Y-115034631D01*
X34114698Y-115034277D01*
X34097465Y-115033215D01*
X34080405Y-115031445D01*
X34063519Y-115028968D01*
X34046807Y-115025782D01*
X34030268Y-115021888D01*
X34013903Y-115017287D01*
X33997711Y-115011978D01*
X33981693Y-115005960D01*
X33965849Y-114999235D01*
X33950178Y-114991802D01*
X33934681Y-114983661D01*
X33919358Y-114974812D01*
X33904208Y-114965255D01*
X33889232Y-114954990D01*
X33874429Y-114944017D01*
X33930361Y-114868546D01*
X33933425Y-114870589D01*
X33942569Y-114876511D01*
X33951640Y-114882118D01*
X33960639Y-114887413D01*
X33969564Y-114892394D01*
X33978416Y-114897061D01*
X33990105Y-114902797D01*
X34001665Y-114907976D01*
X34013094Y-114912597D01*
X34024394Y-114916662D01*
X34027196Y-114917578D01*
X34038571Y-114920954D01*
X34050212Y-114923864D01*
X34062121Y-114926308D01*
X34074297Y-114928287D01*
X34086740Y-114929800D01*
X34099450Y-114930848D01*
X34112428Y-114931430D01*
X34122336Y-114931561D01*
X34132718Y-114931341D01*
X34142860Y-114930683D01*
X34152761Y-114929586D01*
X34162422Y-114928050D01*
X34176463Y-114924923D01*
X34189963Y-114920808D01*
X34202921Y-114915706D01*
X34215339Y-114909617D01*
X34227216Y-114902540D01*
X34238552Y-114894476D01*
X34249346Y-114885424D01*
X34259600Y-114875385D01*
X34266052Y-114868117D01*
X34272156Y-114860356D01*
X34277913Y-114852103D01*
X34283322Y-114843358D01*
X34288385Y-114834121D01*
X34293100Y-114824391D01*
X34297468Y-114814169D01*
X34301488Y-114803455D01*
X34305161Y-114792249D01*
X34308487Y-114780550D01*
X34311466Y-114768359D01*
X34314097Y-114755675D01*
X34316381Y-114742499D01*
X34318318Y-114728831D01*
X34319907Y-114714671D01*
X34321150Y-114700018D01*
X33850738Y-114700018D01*
X33850383Y-114695811D01*
X33849596Y-114685342D01*
X33848952Y-114674945D01*
X33848451Y-114664620D01*
X33848093Y-114654366D01*
X33847878Y-114644184D01*
X33847807Y-114634073D01*
X33847883Y-114623429D01*
X33848113Y-114612931D01*
X33848496Y-114602579D01*
X33848792Y-114596948D01*
X33975302Y-114596948D01*
X34321150Y-114596948D01*
X34320124Y-114583093D01*
X34318817Y-114569679D01*
X34317229Y-114556704D01*
X34315360Y-114544169D01*
X34313210Y-114532073D01*
X34310780Y-114520418D01*
X34308068Y-114509202D01*
X34305075Y-114498426D01*
X34301802Y-114488090D01*
X34298247Y-114478194D01*
X34294411Y-114468738D01*
X34290295Y-114459722D01*
X34281219Y-114443008D01*
X34271019Y-114428054D01*
X34259695Y-114414859D01*
X34247247Y-114403424D01*
X34233675Y-114393747D01*
X34218980Y-114385830D01*
X34203160Y-114379673D01*
X34186217Y-114375275D01*
X34168150Y-114372636D01*
X34148958Y-114371756D01*
X34138260Y-114371973D01*
X34127904Y-114372626D01*
X34117889Y-114373714D01*
X34108216Y-114375236D01*
X34094346Y-114378336D01*
X34081245Y-114382415D01*
X34068912Y-114387472D01*
X34057348Y-114393509D01*
X34046553Y-114400524D01*
X34036526Y-114408518D01*
X34027267Y-114417491D01*
X34018777Y-114427443D01*
X34016102Y-114430958D01*
X34008587Y-114442094D01*
X34001837Y-114454119D01*
X33995851Y-114467033D01*
X33992284Y-114476135D01*
X33989057Y-114485633D01*
X33986170Y-114495526D01*
X33983623Y-114505814D01*
X33981415Y-114516497D01*
X33979547Y-114527574D01*
X33978019Y-114539047D01*
X33976830Y-114550915D01*
X33975981Y-114563177D01*
X33975471Y-114575835D01*
X33975302Y-114588888D01*
X33975302Y-114596948D01*
X33848792Y-114596948D01*
X33849032Y-114592372D01*
X33849721Y-114582311D01*
X33850563Y-114572395D01*
X33852707Y-114552999D01*
X33855463Y-114534186D01*
X33858832Y-114515955D01*
X33862814Y-114498305D01*
X33867407Y-114481238D01*
X33872614Y-114464752D01*
X33878433Y-114448849D01*
X33884864Y-114433527D01*
X33891908Y-114418788D01*
X33899564Y-114404630D01*
X33907833Y-114391055D01*
X33916715Y-114378061D01*
X33926209Y-114365650D01*
X33936277Y-114353908D01*
X33946882Y-114342924D01*
X33958022Y-114332697D01*
X33969699Y-114323228D01*
X33981912Y-114314516D01*
X33994662Y-114306562D01*
X34007947Y-114299366D01*
X34021769Y-114292927D01*
X34036127Y-114287245D01*
X34051021Y-114282321D01*
X34066451Y-114278155D01*
X34082417Y-114274746D01*
X34098920Y-114272094D01*
X34115959Y-114270201D01*
X34133534Y-114269064D01*
X34151645Y-114268685D01*
X34163273Y-114268881D01*
G37*
G36*
X33321464Y-114268685D02*
G01*
X33309318Y-114268882D01*
X33297459Y-114269473D01*
X33285886Y-114270456D01*
X33274599Y-114271834D01*
X33263599Y-114273605D01*
X33252885Y-114275769D01*
X33248679Y-114276745D01*
X33272371Y-114402042D01*
X33282832Y-114399650D01*
X33293150Y-114397663D01*
X33303326Y-114396081D01*
X33313358Y-114394906D01*
X33323247Y-114394135D01*
X33334925Y-114393746D01*
X33336851Y-114393738D01*
X33349485Y-114394180D01*
X33361652Y-114395507D01*
X33373351Y-114397718D01*
X33384581Y-114400813D01*
X33395344Y-114404793D01*
X33405639Y-114409657D01*
X33415465Y-114415406D01*
X33424824Y-114422039D01*
X33433715Y-114429557D01*
X33442138Y-114437959D01*
X33447493Y-114444052D01*
X33455209Y-114453929D01*
X33462603Y-114464786D01*
X33469674Y-114476621D01*
X33476424Y-114489435D01*
X33480745Y-114498522D01*
X33484923Y-114508043D01*
X33488958Y-114518000D01*
X33492850Y-114528392D01*
X33496598Y-114539219D01*
X33500204Y-114550481D01*
X33503666Y-114562178D01*
X33506985Y-114574310D01*
X33510161Y-114586877D01*
X33513194Y-114599879D01*
X33513194Y-115019000D01*
X33641910Y-115019000D01*
X33641910Y-114284317D01*
X33531512Y-114284317D01*
X33518812Y-114434282D01*
X33515066Y-114424181D01*
X33511156Y-114414395D01*
X33507082Y-114404924D01*
X33502844Y-114395768D01*
X33498442Y-114386927D01*
X33491531Y-114374255D01*
X33484251Y-114362292D01*
X33476602Y-114351037D01*
X33468584Y-114340490D01*
X33460196Y-114330652D01*
X33451439Y-114321522D01*
X33442313Y-114313101D01*
X33439189Y-114310451D01*
X33429563Y-114302987D01*
X33419645Y-114296257D01*
X33409436Y-114290262D01*
X33398934Y-114285000D01*
X33388141Y-114280473D01*
X33377056Y-114276680D01*
X33365678Y-114273621D01*
X33354009Y-114271296D01*
X33342048Y-114269705D01*
X33329795Y-114268849D01*
X33321464Y-114268685D01*
G37*
G36*
X32359147Y-114985782D02*
G01*
X32368321Y-114991698D01*
X32377648Y-114997231D01*
X32387128Y-115002383D01*
X32396760Y-115007154D01*
X32406545Y-115011542D01*
X32416483Y-115015550D01*
X32426573Y-115019175D01*
X32436816Y-115022419D01*
X32447212Y-115025281D01*
X32457760Y-115027762D01*
X32468461Y-115029861D01*
X32479314Y-115031578D01*
X32490320Y-115032914D01*
X32501479Y-115033868D01*
X32512791Y-115034440D01*
X32524255Y-115034631D01*
X32535817Y-115034423D01*
X32547057Y-115033799D01*
X32557975Y-115032759D01*
X32568570Y-115031303D01*
X32578842Y-115029431D01*
X32588792Y-115027143D01*
X32598420Y-115024440D01*
X32607725Y-115021320D01*
X32621078Y-115015860D01*
X32633705Y-115009464D01*
X32645607Y-115002133D01*
X32656783Y-114993865D01*
X32667234Y-114984662D01*
X32670556Y-114981386D01*
X32679941Y-114970984D01*
X32688402Y-114959745D01*
X32695941Y-114947668D01*
X32702556Y-114934755D01*
X32706453Y-114925681D01*
X32709941Y-114916234D01*
X32713017Y-114906416D01*
X32715684Y-114896225D01*
X32717940Y-114885663D01*
X32719787Y-114874728D01*
X32721222Y-114863422D01*
X32722248Y-114851743D01*
X32722863Y-114839692D01*
X32723069Y-114827269D01*
X32723069Y-114387387D01*
X32851785Y-114387387D01*
X32851785Y-114284317D01*
X32723069Y-114284317D01*
X32723069Y-114118720D01*
X32594353Y-114103333D01*
X32594353Y-114284317D01*
X32419230Y-114284317D01*
X32433397Y-114387387D01*
X32594353Y-114387387D01*
X32594353Y-114823361D01*
X32594174Y-114833757D01*
X32593640Y-114843603D01*
X32592373Y-114855876D01*
X32590472Y-114867172D01*
X32587938Y-114877491D01*
X32584771Y-114886834D01*
X32579921Y-114897138D01*
X32574080Y-114905915D01*
X32567013Y-114913303D01*
X32558634Y-114919439D01*
X32548943Y-114924323D01*
X32537940Y-114927954D01*
X32528193Y-114929958D01*
X32517607Y-114931160D01*
X32506181Y-114931561D01*
X32495137Y-114931110D01*
X32483741Y-114929759D01*
X32471995Y-114927508D01*
X32459897Y-114924355D01*
X32447448Y-114920302D01*
X32437881Y-114916672D01*
X32428117Y-114912534D01*
X32418155Y-114907890D01*
X32407995Y-114902740D01*
X32359147Y-114985782D01*
G37*
G36*
X31879210Y-114268685D02*
G01*
X31866773Y-114268919D01*
X31854682Y-114269620D01*
X31842937Y-114270789D01*
X31831536Y-114272425D01*
X31820482Y-114274529D01*
X31809772Y-114277100D01*
X31799408Y-114280139D01*
X31789389Y-114283645D01*
X31779716Y-114287619D01*
X31770388Y-114292060D01*
X31761405Y-114296969D01*
X31752768Y-114302345D01*
X31744476Y-114308189D01*
X31736530Y-114314500D01*
X31728929Y-114321279D01*
X31721673Y-114328525D01*
X31714811Y-114336180D01*
X31708392Y-114344183D01*
X31702416Y-114352536D01*
X31696882Y-114361238D01*
X31691791Y-114370290D01*
X31687143Y-114379690D01*
X31682938Y-114389440D01*
X31679175Y-114399539D01*
X31675854Y-114409987D01*
X31672977Y-114420784D01*
X31670542Y-114431930D01*
X31668550Y-114443426D01*
X31667001Y-114455271D01*
X31665894Y-114467465D01*
X31665230Y-114480008D01*
X31665009Y-114492900D01*
X31665009Y-115019000D01*
X31793725Y-115019000D01*
X31793725Y-114513173D01*
X31793991Y-114499013D01*
X31794789Y-114485661D01*
X31796120Y-114473116D01*
X31797984Y-114461378D01*
X31800379Y-114450447D01*
X31803307Y-114440323D01*
X31806768Y-114431007D01*
X31812210Y-114419840D01*
X31818598Y-114410109D01*
X31824011Y-114403752D01*
X31831949Y-114396253D01*
X31840741Y-114389754D01*
X31850389Y-114384254D01*
X31860891Y-114379755D01*
X31872249Y-114376255D01*
X31884461Y-114373756D01*
X31894181Y-114372537D01*
X31904382Y-114371881D01*
X31911450Y-114371756D01*
X31922102Y-114372061D01*
X31932536Y-114372975D01*
X31942750Y-114374499D01*
X31952746Y-114376633D01*
X31962522Y-114379377D01*
X31972080Y-114382730D01*
X31981419Y-114386692D01*
X31990538Y-114391265D01*
X31999439Y-114396447D01*
X32008121Y-114402239D01*
X32013787Y-114406438D01*
X32022119Y-114413197D01*
X32030351Y-114420466D01*
X32038485Y-114428246D01*
X32046520Y-114436538D01*
X32054456Y-114445340D01*
X32062293Y-114454653D01*
X32070032Y-114464476D01*
X32077672Y-114474811D01*
X32085213Y-114485657D01*
X32092656Y-114497013D01*
X32097563Y-114504868D01*
X32097563Y-115019000D01*
X32226279Y-115019000D01*
X32226279Y-113991958D01*
X32097563Y-113977792D01*
X32097563Y-114396669D01*
X32086549Y-114381171D01*
X32075184Y-114366673D01*
X32063468Y-114353174D01*
X32051401Y-114340676D01*
X32038983Y-114329178D01*
X32026213Y-114318679D01*
X32013093Y-114309180D01*
X31999621Y-114300681D01*
X31985799Y-114293182D01*
X31971625Y-114286683D01*
X31957100Y-114281184D01*
X31942224Y-114276684D01*
X31926997Y-114273185D01*
X31911419Y-114270685D01*
X31895490Y-114269185D01*
X31879210Y-114268685D01*
G37*
G36*
X31164948Y-114268881D02*
G01*
X31176385Y-114269468D01*
X31187632Y-114270446D01*
X31198688Y-114271815D01*
X31209553Y-114273575D01*
X31220227Y-114275727D01*
X31230710Y-114278269D01*
X31241003Y-114281203D01*
X31251105Y-114284528D01*
X31261016Y-114288244D01*
X31270736Y-114292351D01*
X31280265Y-114296850D01*
X31289603Y-114301739D01*
X31298751Y-114307020D01*
X31307708Y-114312692D01*
X31316474Y-114318755D01*
X31324989Y-114325164D01*
X31333254Y-114331872D01*
X31341269Y-114338880D01*
X31349035Y-114346187D01*
X31356550Y-114353794D01*
X31363815Y-114361700D01*
X31370830Y-114369906D01*
X31377596Y-114378412D01*
X31384111Y-114387217D01*
X31390377Y-114396321D01*
X31396392Y-114405726D01*
X31402157Y-114415430D01*
X31407673Y-114425433D01*
X31412939Y-114435736D01*
X31417954Y-114446339D01*
X31422720Y-114457241D01*
X31427215Y-114468363D01*
X31431421Y-114479685D01*
X31435336Y-114491207D01*
X31438962Y-114502930D01*
X31442297Y-114514853D01*
X31445343Y-114526976D01*
X31448098Y-114539300D01*
X31450563Y-114551824D01*
X31452739Y-114564548D01*
X31454624Y-114577473D01*
X31456219Y-114590599D01*
X31457524Y-114603924D01*
X31458539Y-114617450D01*
X31459265Y-114631176D01*
X31459700Y-114645103D01*
X31459845Y-114659230D01*
X31459761Y-114670102D01*
X31459509Y-114680827D01*
X31459089Y-114691406D01*
X31458501Y-114701839D01*
X31457746Y-114712125D01*
X31456822Y-114722264D01*
X31455731Y-114732258D01*
X31454471Y-114742104D01*
X31451449Y-114761359D01*
X31447755Y-114780027D01*
X31443389Y-114798110D01*
X31438351Y-114815606D01*
X31432642Y-114832517D01*
X31426261Y-114848842D01*
X31419209Y-114864582D01*
X31411484Y-114879735D01*
X31403089Y-114894303D01*
X31394021Y-114908285D01*
X31384282Y-114921681D01*
X31373871Y-114934491D01*
X31362830Y-114946618D01*
X31351260Y-114957962D01*
X31339161Y-114968523D01*
X31326534Y-114978303D01*
X31313378Y-114987299D01*
X31299694Y-114995514D01*
X31285481Y-115002946D01*
X31270740Y-115009596D01*
X31255470Y-115015464D01*
X31239671Y-115020549D01*
X31223344Y-115024852D01*
X31206488Y-115028372D01*
X31189104Y-115031111D01*
X31171192Y-115033066D01*
X31152750Y-115034240D01*
X31133780Y-115034631D01*
X31116373Y-115034277D01*
X31099140Y-115033215D01*
X31082080Y-115031445D01*
X31065194Y-115028968D01*
X31048481Y-115025782D01*
X31031943Y-115021888D01*
X31015577Y-115017287D01*
X30999386Y-115011978D01*
X30983368Y-115005960D01*
X30967524Y-114999235D01*
X30951853Y-114991802D01*
X30936356Y-114983661D01*
X30921032Y-114974812D01*
X30905883Y-114965255D01*
X30890907Y-114954990D01*
X30876104Y-114944017D01*
X30932036Y-114868546D01*
X30935100Y-114870589D01*
X30944244Y-114876511D01*
X30953315Y-114882118D01*
X30962313Y-114887413D01*
X30971238Y-114892394D01*
X30980091Y-114897061D01*
X30991780Y-114902797D01*
X31003339Y-114907976D01*
X31014769Y-114912597D01*
X31026069Y-114916662D01*
X31028871Y-114917578D01*
X31040246Y-114920954D01*
X31051887Y-114923864D01*
X31063796Y-114926308D01*
X31075972Y-114928287D01*
X31088415Y-114929800D01*
X31101125Y-114930848D01*
X31114102Y-114931430D01*
X31124011Y-114931561D01*
X31134393Y-114931341D01*
X31144535Y-114930683D01*
X31154436Y-114929586D01*
X31164097Y-114928050D01*
X31178138Y-114924923D01*
X31191637Y-114920808D01*
X31204596Y-114915706D01*
X31217014Y-114909617D01*
X31228891Y-114902540D01*
X31240226Y-114894476D01*
X31251021Y-114885424D01*
X31261275Y-114875385D01*
X31267727Y-114868117D01*
X31273831Y-114860356D01*
X31279588Y-114852103D01*
X31284997Y-114843358D01*
X31290060Y-114834121D01*
X31294775Y-114824391D01*
X31299142Y-114814169D01*
X31303163Y-114803455D01*
X31306836Y-114792249D01*
X31310162Y-114780550D01*
X31313140Y-114768359D01*
X31315772Y-114755675D01*
X31318056Y-114742499D01*
X31319993Y-114728831D01*
X31321582Y-114714671D01*
X31322824Y-114700018D01*
X30852413Y-114700018D01*
X30852058Y-114695811D01*
X30851271Y-114685342D01*
X30850627Y-114674945D01*
X30850126Y-114664620D01*
X30849768Y-114654366D01*
X30849553Y-114644184D01*
X30849482Y-114634073D01*
X30849558Y-114623429D01*
X30849788Y-114612931D01*
X30850171Y-114602579D01*
X30850467Y-114596948D01*
X30976976Y-114596948D01*
X31322824Y-114596948D01*
X31321798Y-114583093D01*
X31320492Y-114569679D01*
X31318904Y-114556704D01*
X31317035Y-114544169D01*
X31314885Y-114532073D01*
X31312455Y-114520418D01*
X31309743Y-114509202D01*
X31306750Y-114498426D01*
X31303476Y-114488090D01*
X31299922Y-114478194D01*
X31296086Y-114468738D01*
X31291970Y-114459722D01*
X31282893Y-114443008D01*
X31272693Y-114428054D01*
X31261370Y-114414859D01*
X31248922Y-114403424D01*
X31235350Y-114393747D01*
X31220655Y-114385830D01*
X31204835Y-114379673D01*
X31187892Y-114375275D01*
X31169824Y-114372636D01*
X31150633Y-114371756D01*
X31139935Y-114371973D01*
X31129579Y-114372626D01*
X31119564Y-114373714D01*
X31109890Y-114375236D01*
X31096021Y-114378336D01*
X31082920Y-114382415D01*
X31070587Y-114387472D01*
X31059023Y-114393509D01*
X31048227Y-114400524D01*
X31038200Y-114408518D01*
X31028942Y-114417491D01*
X31020452Y-114427443D01*
X31017777Y-114430958D01*
X31010262Y-114442094D01*
X31003512Y-114454119D01*
X30997525Y-114467033D01*
X30993959Y-114476135D01*
X30990732Y-114485633D01*
X30987845Y-114495526D01*
X30985298Y-114505814D01*
X30983090Y-114516497D01*
X30981222Y-114527574D01*
X30979694Y-114539047D01*
X30978505Y-114550915D01*
X30977656Y-114563177D01*
X30977146Y-114575835D01*
X30976976Y-114588888D01*
X30976976Y-114596948D01*
X30850467Y-114596948D01*
X30850707Y-114592372D01*
X30851396Y-114582311D01*
X30852238Y-114572395D01*
X30854382Y-114552999D01*
X30857138Y-114534186D01*
X30860507Y-114515955D01*
X30864488Y-114498305D01*
X30869082Y-114481238D01*
X30874289Y-114464752D01*
X30880107Y-114448849D01*
X30886539Y-114433527D01*
X30893583Y-114418788D01*
X30901239Y-114404630D01*
X30909508Y-114391055D01*
X30918390Y-114378061D01*
X30927884Y-114365650D01*
X30937952Y-114353908D01*
X30948557Y-114342924D01*
X30959697Y-114332697D01*
X30971374Y-114323228D01*
X30983587Y-114314516D01*
X30996337Y-114306562D01*
X31009622Y-114299366D01*
X31023444Y-114292927D01*
X31037802Y-114287245D01*
X31052696Y-114282321D01*
X31068126Y-114278155D01*
X31084092Y-114274746D01*
X31100595Y-114272094D01*
X31117634Y-114270201D01*
X31135209Y-114269064D01*
X31153320Y-114268685D01*
X31164948Y-114268881D01*
G37*
G36*
X30004646Y-114268685D02*
G01*
X29992423Y-114268846D01*
X29980394Y-114269329D01*
X29968558Y-114270134D01*
X29956915Y-114271261D01*
X29945466Y-114272710D01*
X29934209Y-114274481D01*
X29923146Y-114276574D01*
X29912276Y-114278989D01*
X29901599Y-114281726D01*
X29891116Y-114284785D01*
X29884234Y-114287004D01*
X29874014Y-114290636D01*
X29863872Y-114294663D01*
X29853807Y-114299085D01*
X29843819Y-114303902D01*
X29833909Y-114309114D01*
X29824076Y-114314721D01*
X29814320Y-114320724D01*
X29804641Y-114327121D01*
X29795040Y-114333913D01*
X29785516Y-114341100D01*
X29779210Y-114346110D01*
X29840759Y-114433061D01*
X29850555Y-114425444D01*
X29860283Y-114418345D01*
X29869942Y-114411766D01*
X29879532Y-114405706D01*
X29889054Y-114400164D01*
X29898507Y-114395142D01*
X29907891Y-114390639D01*
X29917207Y-114386655D01*
X29926606Y-114383163D01*
X29936242Y-114380137D01*
X29946115Y-114377576D01*
X29956225Y-114375481D01*
X29966571Y-114373851D01*
X29977153Y-114372687D01*
X29987972Y-114371989D01*
X29999028Y-114371756D01*
X30010077Y-114372037D01*
X30020815Y-114372882D01*
X30031242Y-114374289D01*
X30041358Y-114376259D01*
X30051163Y-114378792D01*
X30060657Y-114381888D01*
X30069840Y-114385547D01*
X30078712Y-114389769D01*
X30087273Y-114394554D01*
X30095523Y-114399901D01*
X30103462Y-114405812D01*
X30111090Y-114412285D01*
X30118407Y-114419321D01*
X30125412Y-114426920D01*
X30132107Y-114435083D01*
X30138491Y-114443808D01*
X30144495Y-114453054D01*
X30150111Y-114462839D01*
X30155341Y-114473165D01*
X30160183Y-114484031D01*
X30164637Y-114495437D01*
X30168704Y-114507383D01*
X30172384Y-114519869D01*
X30175677Y-114532895D01*
X30178582Y-114546461D01*
X30181100Y-114560567D01*
X30183230Y-114575213D01*
X30184973Y-114590399D01*
X30186329Y-114606125D01*
X30187297Y-114622391D01*
X30187878Y-114639197D01*
X30188072Y-114656543D01*
X30187881Y-114673900D01*
X30187309Y-114690676D01*
X30186355Y-114706872D01*
X30185019Y-114722489D01*
X30183302Y-114737525D01*
X30181203Y-114751981D01*
X30178722Y-114765857D01*
X30175860Y-114779153D01*
X30172616Y-114791869D01*
X30168991Y-114804005D01*
X30164983Y-114815560D01*
X30160595Y-114826536D01*
X30155824Y-114836932D01*
X30150672Y-114846747D01*
X30145139Y-114855983D01*
X30139224Y-114864638D01*
X30132923Y-114872742D01*
X30126294Y-114880323D01*
X30119337Y-114887381D01*
X30112051Y-114893917D01*
X30100508Y-114902739D01*
X30088226Y-114910386D01*
X30075206Y-114916856D01*
X30066116Y-114920516D01*
X30056697Y-114923653D01*
X30046950Y-114926267D01*
X30036875Y-114928358D01*
X30026472Y-114929927D01*
X30015741Y-114930972D01*
X30004681Y-114931495D01*
X29999028Y-114931561D01*
X29988270Y-114931354D01*
X29977733Y-114930736D01*
X29967418Y-114929706D01*
X29957324Y-114928263D01*
X29947451Y-114926409D01*
X29937799Y-114924142D01*
X29928369Y-114921463D01*
X29919161Y-114918371D01*
X29909933Y-114914765D01*
X29900446Y-114910663D01*
X29890699Y-114906064D01*
X29880692Y-114900969D01*
X29870427Y-114895378D01*
X29859901Y-114889291D01*
X29849116Y-114882708D01*
X29840857Y-114877445D01*
X29838072Y-114875629D01*
X29779210Y-114958916D01*
X29791911Y-114968084D01*
X29804798Y-114976662D01*
X29817870Y-114984647D01*
X29831126Y-114992041D01*
X29844568Y-114998844D01*
X29858195Y-115005055D01*
X29872008Y-115010674D01*
X29886005Y-115015702D01*
X29900187Y-115020139D01*
X29914554Y-115023984D01*
X29929107Y-115027237D01*
X29943844Y-115029899D01*
X29958767Y-115031969D01*
X29973875Y-115033448D01*
X29989168Y-115034335D01*
X30004646Y-115034631D01*
X30023113Y-115034240D01*
X30041084Y-115033066D01*
X30058558Y-115031111D01*
X30075537Y-115028372D01*
X30092020Y-115024852D01*
X30108006Y-115020549D01*
X30123497Y-115015464D01*
X30138491Y-115009596D01*
X30152989Y-115002946D01*
X30166991Y-114995514D01*
X30180497Y-114987299D01*
X30193506Y-114978303D01*
X30206020Y-114968523D01*
X30218038Y-114957962D01*
X30229559Y-114946618D01*
X30240584Y-114934491D01*
X30250995Y-114921676D01*
X30260734Y-114908266D01*
X30269802Y-114894260D01*
X30278198Y-114879659D01*
X30285922Y-114864462D01*
X30292974Y-114848671D01*
X30299355Y-114832283D01*
X30305064Y-114815301D01*
X30310102Y-114797723D01*
X30314468Y-114779550D01*
X30318162Y-114760781D01*
X30321184Y-114741418D01*
X30322444Y-114731512D01*
X30323535Y-114721458D01*
X30324459Y-114711255D01*
X30325214Y-114700904D01*
X30325802Y-114690403D01*
X30326222Y-114679754D01*
X30326474Y-114668956D01*
X30326558Y-114658009D01*
X30326405Y-114643529D01*
X30325947Y-114629276D01*
X30325184Y-114615250D01*
X30324115Y-114601451D01*
X30322741Y-114587879D01*
X30321062Y-114574535D01*
X30319078Y-114561417D01*
X30316788Y-114548527D01*
X30314193Y-114535863D01*
X30311293Y-114523427D01*
X30308087Y-114511218D01*
X30304576Y-114499235D01*
X30300760Y-114487480D01*
X30296638Y-114475952D01*
X30292211Y-114464651D01*
X30287479Y-114453577D01*
X30282436Y-114442770D01*
X30277137Y-114432267D01*
X30271582Y-114422070D01*
X30265772Y-114412178D01*
X30259706Y-114402592D01*
X30253384Y-114393310D01*
X30246807Y-114384334D01*
X30239974Y-114375664D01*
X30232885Y-114367299D01*
X30225540Y-114359239D01*
X30217940Y-114351484D01*
X30210084Y-114344034D01*
X30201973Y-114336890D01*
X30193606Y-114330051D01*
X30184983Y-114323518D01*
X30176104Y-114317290D01*
X30166991Y-114311404D01*
X30157664Y-114305898D01*
X30148123Y-114300772D01*
X30138369Y-114296025D01*
X30128400Y-114291659D01*
X30118219Y-114287672D01*
X30107823Y-114284064D01*
X30097214Y-114280837D01*
X30086391Y-114277989D01*
X30075354Y-114275520D01*
X30064104Y-114273432D01*
X30052639Y-114271723D01*
X30040962Y-114270394D01*
X30029070Y-114269445D01*
X30016965Y-114268875D01*
X30004646Y-114268685D01*
G37*
G36*
X29070173Y-115019000D02*
G01*
X29180570Y-115019000D01*
X29190340Y-114901519D01*
X29195641Y-114910043D01*
X29201041Y-114918276D01*
X29209327Y-114930078D01*
X29217836Y-114941222D01*
X29226569Y-114951710D01*
X29235525Y-114961541D01*
X29244704Y-114970716D01*
X29254107Y-114979233D01*
X29263732Y-114987093D01*
X29273581Y-114994297D01*
X29283653Y-115000843D01*
X29287060Y-115002879D01*
X29297527Y-115008554D01*
X29308410Y-115013670D01*
X29319709Y-115018228D01*
X29331425Y-115022228D01*
X29343557Y-115025670D01*
X29356106Y-115028554D01*
X29369071Y-115030879D01*
X29382452Y-115032647D01*
X29396250Y-115033856D01*
X29410465Y-115034507D01*
X29420173Y-115034631D01*
X29432069Y-115034403D01*
X29443639Y-115033719D01*
X29454883Y-115032579D01*
X29465800Y-115030983D01*
X29476391Y-115028930D01*
X29486656Y-115026422D01*
X29496595Y-115023458D01*
X29506207Y-115020038D01*
X29515493Y-115016161D01*
X29524453Y-115011829D01*
X29533086Y-115007040D01*
X29541393Y-115001796D01*
X29549374Y-114996095D01*
X29557029Y-114989938D01*
X29564357Y-114983326D01*
X29571359Y-114976257D01*
X29577954Y-114968740D01*
X29584124Y-114960843D01*
X29589869Y-114952566D01*
X29595188Y-114943910D01*
X29600081Y-114934874D01*
X29604549Y-114925458D01*
X29608592Y-114915663D01*
X29612209Y-114905488D01*
X29615400Y-114894933D01*
X29618166Y-114883998D01*
X29620506Y-114872684D01*
X29622421Y-114860990D01*
X29623910Y-114848916D01*
X29624974Y-114836462D01*
X29625612Y-114823629D01*
X29625825Y-114810416D01*
X29625825Y-114284317D01*
X29497109Y-114284317D01*
X29497109Y-114794296D01*
X29496875Y-114807971D01*
X29496173Y-114820878D01*
X29495003Y-114833015D01*
X29493365Y-114844385D01*
X29491259Y-114854986D01*
X29488686Y-114864818D01*
X29484526Y-114876733D01*
X29479534Y-114887281D01*
X29473710Y-114896463D01*
X29470487Y-114900542D01*
X29463304Y-114907812D01*
X29455069Y-114914112D01*
X29445780Y-114919444D01*
X29435438Y-114923806D01*
X29424042Y-114927199D01*
X29411594Y-114929622D01*
X29401566Y-114930803D01*
X29390945Y-114931439D01*
X29383536Y-114931561D01*
X29370192Y-114931073D01*
X29357089Y-114929610D01*
X29344226Y-114927173D01*
X29331604Y-114923760D01*
X29319222Y-114919372D01*
X29307080Y-114914009D01*
X29295179Y-114907672D01*
X29283519Y-114900359D01*
X29272098Y-114892070D01*
X29260919Y-114882807D01*
X29249979Y-114872569D01*
X29239280Y-114861356D01*
X29228822Y-114849168D01*
X29218604Y-114836004D01*
X29208626Y-114821866D01*
X29198889Y-114806752D01*
X29198889Y-114284317D01*
X29070173Y-114284317D01*
X29070173Y-115019000D01*
G37*
G36*
X28063404Y-114268685D02*
G01*
X28052188Y-114268922D01*
X28041258Y-114269632D01*
X28030611Y-114270815D01*
X28020249Y-114272471D01*
X28010171Y-114274601D01*
X28000377Y-114277203D01*
X27990868Y-114280279D01*
X27981643Y-114283829D01*
X27972703Y-114287851D01*
X27959825Y-114294772D01*
X27947587Y-114302757D01*
X27939783Y-114308673D01*
X27932264Y-114315061D01*
X27925029Y-114321923D01*
X27918079Y-114329258D01*
X27911454Y-114336995D01*
X27905256Y-114345065D01*
X27899486Y-114353466D01*
X27894143Y-114362200D01*
X27889228Y-114371266D01*
X27884740Y-114380663D01*
X27880679Y-114390393D01*
X27877046Y-114400454D01*
X27873841Y-114410848D01*
X27871062Y-114421574D01*
X27868711Y-114432632D01*
X27866788Y-114444021D01*
X27865292Y-114455743D01*
X27864224Y-114467797D01*
X27863582Y-114480183D01*
X27863369Y-114492900D01*
X27863369Y-115019000D01*
X27992085Y-115019000D01*
X27992085Y-114513173D01*
X27992489Y-114496048D01*
X27993703Y-114480028D01*
X27995725Y-114465113D01*
X27998557Y-114451303D01*
X28002198Y-114438597D01*
X28006648Y-114426997D01*
X28011906Y-114416501D01*
X28017974Y-114407110D01*
X28024851Y-114398824D01*
X28032537Y-114391643D01*
X28041032Y-114385566D01*
X28050337Y-114380594D01*
X28060450Y-114376728D01*
X28071372Y-114373966D01*
X28083103Y-114372308D01*
X28095644Y-114371756D01*
X28105754Y-114372041D01*
X28115568Y-114372898D01*
X28128192Y-114374928D01*
X28140289Y-114377974D01*
X28151860Y-114382034D01*
X28162905Y-114387110D01*
X28173423Y-114393201D01*
X28183414Y-114400307D01*
X28188212Y-114404240D01*
X28197707Y-114412938D01*
X28204948Y-114420217D01*
X28212292Y-114428145D01*
X28219740Y-114436720D01*
X28227290Y-114445945D01*
X28234944Y-114455817D01*
X28242701Y-114466338D01*
X28250560Y-114477507D01*
X28258523Y-114489325D01*
X28263889Y-114497563D01*
X28269300Y-114506090D01*
X28269300Y-115019000D01*
X28398016Y-115019000D01*
X28398016Y-114513173D01*
X28398421Y-114496048D01*
X28399634Y-114480028D01*
X28401657Y-114465113D01*
X28404489Y-114451303D01*
X28408129Y-114438597D01*
X28412579Y-114426997D01*
X28417838Y-114416501D01*
X28423906Y-114407110D01*
X28430783Y-114398824D01*
X28438469Y-114391643D01*
X28446964Y-114385566D01*
X28456268Y-114380594D01*
X28466381Y-114376728D01*
X28477304Y-114373966D01*
X28489035Y-114372308D01*
X28501575Y-114371756D01*
X28511947Y-114372048D01*
X28521997Y-114372924D01*
X28531725Y-114374383D01*
X28544195Y-114377238D01*
X28556092Y-114381131D01*
X28567417Y-114386061D01*
X28578169Y-114392030D01*
X28588349Y-114399037D01*
X28595609Y-114404973D01*
X28605081Y-114413819D01*
X28612275Y-114421165D01*
X28619546Y-114429121D01*
X28626895Y-114437686D01*
X28634321Y-114446861D01*
X28641825Y-114456645D01*
X28649405Y-114467039D01*
X28657063Y-114478043D01*
X28664798Y-114489657D01*
X28672611Y-114501880D01*
X28675232Y-114506090D01*
X28675232Y-115019000D01*
X28803948Y-115019000D01*
X28803948Y-114284317D01*
X28693550Y-114284317D01*
X28682315Y-114402286D01*
X28671810Y-114386108D01*
X28660932Y-114370974D01*
X28649683Y-114356883D01*
X28638061Y-114343836D01*
X28626068Y-114331833D01*
X28613702Y-114320873D01*
X28600964Y-114310958D01*
X28587854Y-114302086D01*
X28574372Y-114294258D01*
X28560518Y-114287473D01*
X28546292Y-114281732D01*
X28531693Y-114277036D01*
X28516723Y-114273382D01*
X28501381Y-114270773D01*
X28485666Y-114269207D01*
X28469579Y-114268685D01*
X28456889Y-114269014D01*
X28444555Y-114269999D01*
X28432577Y-114271641D01*
X28420956Y-114273941D01*
X28409691Y-114276896D01*
X28398782Y-114280509D01*
X28388230Y-114284779D01*
X28378034Y-114289706D01*
X28368195Y-114295289D01*
X28358711Y-114301529D01*
X28352587Y-114306055D01*
X28343760Y-114313280D01*
X28335414Y-114321033D01*
X28327548Y-114329314D01*
X28320164Y-114338123D01*
X28313260Y-114347460D01*
X28306837Y-114357326D01*
X28300895Y-114367719D01*
X28295434Y-114378641D01*
X28290454Y-114390090D01*
X28285955Y-114402068D01*
X28283222Y-114410346D01*
X28277753Y-114401893D01*
X28272216Y-114393692D01*
X28263781Y-114381862D01*
X28255191Y-114370600D01*
X28246447Y-114359903D01*
X28237549Y-114349774D01*
X28228495Y-114340211D01*
X28219288Y-114331215D01*
X28209925Y-114322786D01*
X28200409Y-114314924D01*
X28190737Y-114307628D01*
X28187479Y-114305322D01*
X28177465Y-114298775D01*
X28167117Y-114292871D01*
X28156434Y-114287612D01*
X28145416Y-114282997D01*
X28134063Y-114279025D01*
X28122375Y-114275698D01*
X28110352Y-114273015D01*
X28097994Y-114270975D01*
X28085302Y-114269580D01*
X28072275Y-114268829D01*
X28063404Y-114268685D01*
G37*
G36*
X26801401Y-114284317D02*
G01*
X26801401Y-114376885D01*
X27186572Y-114915929D01*
X26797249Y-114915929D01*
X26812636Y-115019000D01*
X27332140Y-115019000D01*
X27332140Y-114927164D01*
X26948435Y-114387387D01*
X27299900Y-114387387D01*
X27299900Y-114284317D01*
X26801401Y-114284317D01*
G37*
G36*
X26367999Y-114268873D02*
G01*
X26380601Y-114269437D01*
X26392973Y-114270377D01*
X26405117Y-114271693D01*
X26417031Y-114273384D01*
X26428717Y-114275452D01*
X26440173Y-114277895D01*
X26451401Y-114280714D01*
X26462399Y-114283910D01*
X26473169Y-114287481D01*
X26483710Y-114291428D01*
X26494021Y-114295751D01*
X26504104Y-114300449D01*
X26513957Y-114305524D01*
X26523582Y-114310975D01*
X26532978Y-114316801D01*
X26542093Y-114322938D01*
X26550937Y-114329380D01*
X26559511Y-114336127D01*
X26567813Y-114343180D01*
X26575844Y-114350537D01*
X26583605Y-114358200D01*
X26591094Y-114366169D01*
X26598313Y-114374443D01*
X26605260Y-114383022D01*
X26611937Y-114391906D01*
X26618343Y-114401096D01*
X26624477Y-114410591D01*
X26630341Y-114420391D01*
X26635934Y-114430496D01*
X26641256Y-114440907D01*
X26646307Y-114451623D01*
X26651039Y-114462568D01*
X26655466Y-114473727D01*
X26659587Y-114485100D01*
X26663404Y-114496686D01*
X26666915Y-114508486D01*
X26670120Y-114520500D01*
X26673021Y-114532727D01*
X26675616Y-114545168D01*
X26677905Y-114557823D01*
X26679890Y-114570692D01*
X26681569Y-114583774D01*
X26682943Y-114597070D01*
X26684012Y-114610580D01*
X26684775Y-114624303D01*
X26685233Y-114638240D01*
X26685385Y-114652391D01*
X26685301Y-114663356D01*
X26685047Y-114674176D01*
X26684623Y-114684853D01*
X26684031Y-114695385D01*
X26683269Y-114705774D01*
X26682337Y-114716018D01*
X26681236Y-114726118D01*
X26679966Y-114736075D01*
X26678527Y-114745887D01*
X26676918Y-114755555D01*
X26673192Y-114774459D01*
X26668789Y-114792787D01*
X26663709Y-114810538D01*
X26657951Y-114827713D01*
X26651516Y-114844312D01*
X26644403Y-114860335D01*
X26636613Y-114875782D01*
X26628146Y-114890652D01*
X26619001Y-114904946D01*
X26609179Y-114918663D01*
X26598679Y-114931805D01*
X26587572Y-114944256D01*
X26575926Y-114955905D01*
X26563743Y-114966750D01*
X26551021Y-114976791D01*
X26537762Y-114986030D01*
X26523964Y-114994465D01*
X26509628Y-115002096D01*
X26494754Y-115008924D01*
X26479342Y-115014949D01*
X26463392Y-115020171D01*
X26446903Y-115024589D01*
X26429877Y-115028204D01*
X26412312Y-115031016D01*
X26394210Y-115033024D01*
X26375569Y-115034229D01*
X26356390Y-115034631D01*
X26343737Y-115034444D01*
X26331302Y-115033883D01*
X26319084Y-115032948D01*
X26307084Y-115031639D01*
X26295301Y-115029956D01*
X26283736Y-115027899D01*
X26272388Y-115025468D01*
X26261258Y-115022663D01*
X26250345Y-115019484D01*
X26239650Y-115015931D01*
X26229172Y-115012004D01*
X26218912Y-115007703D01*
X26208870Y-115003028D01*
X26199044Y-114997979D01*
X26189437Y-114992556D01*
X26180047Y-114986759D01*
X26170903Y-114980594D01*
X26162034Y-114974128D01*
X26153440Y-114967359D01*
X26145120Y-114960290D01*
X26137075Y-114952918D01*
X26129306Y-114945246D01*
X26121810Y-114937272D01*
X26114590Y-114928996D01*
X26107644Y-114920419D01*
X26100973Y-114911540D01*
X26094577Y-114902360D01*
X26088456Y-114892879D01*
X26082609Y-114883096D01*
X26077038Y-114873011D01*
X26071741Y-114862625D01*
X26066718Y-114851937D01*
X26061956Y-114840963D01*
X26057502Y-114829776D01*
X26053355Y-114818378D01*
X26049514Y-114806768D01*
X26045981Y-114794946D01*
X26042756Y-114782912D01*
X26039837Y-114770667D01*
X26037226Y-114758209D01*
X26034922Y-114745540D01*
X26032925Y-114732659D01*
X26031235Y-114719566D01*
X26029853Y-114706262D01*
X26028778Y-114692745D01*
X26028010Y-114679017D01*
X26027549Y-114665077D01*
X26027395Y-114650926D01*
X26166125Y-114650926D01*
X26166311Y-114668191D01*
X26166868Y-114684909D01*
X26167797Y-114701078D01*
X26169098Y-114716699D01*
X26170770Y-114731773D01*
X26172814Y-114746298D01*
X26175230Y-114760275D01*
X26178017Y-114773703D01*
X26181175Y-114786584D01*
X26184706Y-114798917D01*
X26188608Y-114810701D01*
X26192881Y-114821938D01*
X26197526Y-114832626D01*
X26202543Y-114842766D01*
X26207931Y-114852358D01*
X26213691Y-114861402D01*
X26219823Y-114869898D01*
X26226326Y-114877845D01*
X26233201Y-114885245D01*
X26240447Y-114892096D01*
X26248065Y-114898400D01*
X26256055Y-114904155D01*
X26264416Y-114909362D01*
X26273149Y-114914021D01*
X26282254Y-114918132D01*
X26291730Y-114921694D01*
X26301578Y-114924709D01*
X26311797Y-114927176D01*
X26322388Y-114929094D01*
X26333350Y-114930464D01*
X26344685Y-114931287D01*
X26356390Y-114931561D01*
X26368111Y-114931288D01*
X26379460Y-114930470D01*
X26390436Y-114929107D01*
X26401041Y-114927199D01*
X26411273Y-114924745D01*
X26421134Y-114921746D01*
X26430622Y-114918202D01*
X26439738Y-114914112D01*
X26448482Y-114909478D01*
X26456854Y-114904298D01*
X26464854Y-114898573D01*
X26472482Y-114892302D01*
X26479738Y-114885487D01*
X26486621Y-114878126D01*
X26493133Y-114870220D01*
X26499272Y-114861768D01*
X26505040Y-114852771D01*
X26510435Y-114843230D01*
X26515458Y-114833142D01*
X26520109Y-114822510D01*
X26524388Y-114811332D01*
X26528295Y-114799609D01*
X26531830Y-114787341D01*
X26534993Y-114774528D01*
X26537784Y-114761169D01*
X26540202Y-114747265D01*
X26542249Y-114732816D01*
X26543923Y-114717821D01*
X26545225Y-114702282D01*
X26546156Y-114686197D01*
X26546714Y-114669566D01*
X26546900Y-114652391D01*
X26546712Y-114635125D01*
X26546151Y-114618408D01*
X26545215Y-114602238D01*
X26543904Y-114586617D01*
X26542219Y-114571544D01*
X26540159Y-114557019D01*
X26537725Y-114543042D01*
X26534917Y-114529613D01*
X26531734Y-114516732D01*
X26528176Y-114504400D01*
X26524244Y-114492615D01*
X26519938Y-114481379D01*
X26515257Y-114470691D01*
X26510201Y-114460551D01*
X26504771Y-114450959D01*
X26498967Y-114441915D01*
X26492788Y-114433419D01*
X26486235Y-114425471D01*
X26479307Y-114418072D01*
X26472005Y-114411220D01*
X26464328Y-114404917D01*
X26456277Y-114399162D01*
X26447851Y-114393955D01*
X26439051Y-114389296D01*
X26429877Y-114385185D01*
X26420328Y-114381622D01*
X26410404Y-114378607D01*
X26400106Y-114376141D01*
X26389433Y-114374222D01*
X26378386Y-114372852D01*
X26366965Y-114372030D01*
X26355169Y-114371756D01*
X26343538Y-114372029D01*
X26332277Y-114372846D01*
X26321385Y-114374210D01*
X26310862Y-114376118D01*
X26300708Y-114378572D01*
X26290924Y-114381571D01*
X26281508Y-114385115D01*
X26272462Y-114389204D01*
X26263786Y-114393839D01*
X26255478Y-114399019D01*
X26247540Y-114404744D01*
X26239970Y-114411014D01*
X26232770Y-114417830D01*
X26225940Y-114425191D01*
X26219478Y-114433097D01*
X26213386Y-114441548D01*
X26207663Y-114450545D01*
X26202309Y-114460087D01*
X26197325Y-114470174D01*
X26192709Y-114480807D01*
X26188463Y-114491984D01*
X26184586Y-114503707D01*
X26181079Y-114515975D01*
X26177940Y-114528789D01*
X26175171Y-114542148D01*
X26172771Y-114556051D01*
X26170740Y-114570501D01*
X26169079Y-114585495D01*
X26167787Y-114601035D01*
X26166864Y-114617120D01*
X26166310Y-114633750D01*
X26166125Y-114650926D01*
X26027395Y-114650926D01*
X26027479Y-114639961D01*
X26027732Y-114629140D01*
X26028153Y-114618464D01*
X26028742Y-114607931D01*
X26029500Y-114597543D01*
X26030426Y-114587298D01*
X26031521Y-114577198D01*
X26032784Y-114567242D01*
X26034215Y-114557430D01*
X26035815Y-114547762D01*
X26039520Y-114528858D01*
X26043898Y-114510530D01*
X26048950Y-114492778D01*
X26054675Y-114475603D01*
X26061074Y-114459004D01*
X26068147Y-114442981D01*
X26075893Y-114427535D01*
X26084312Y-114412665D01*
X26093406Y-114398371D01*
X26103172Y-114384653D01*
X26113613Y-114371512D01*
X26124631Y-114359060D01*
X26136194Y-114347412D01*
X26148300Y-114336567D01*
X26160950Y-114326525D01*
X26174144Y-114317287D01*
X26187882Y-114308852D01*
X26202163Y-114301220D01*
X26216989Y-114294392D01*
X26232358Y-114288367D01*
X26248271Y-114283145D01*
X26264728Y-114278727D01*
X26281728Y-114275112D01*
X26299273Y-114272300D01*
X26317361Y-114270292D01*
X26335993Y-114269087D01*
X26355169Y-114268685D01*
X26367999Y-114268873D01*
G37*
G36*
X25468323Y-114268685D02*
G01*
X25455887Y-114268919D01*
X25443796Y-114269620D01*
X25432050Y-114270789D01*
X25420650Y-114272425D01*
X25409595Y-114274529D01*
X25398886Y-114277100D01*
X25388522Y-114280139D01*
X25378503Y-114283645D01*
X25368830Y-114287619D01*
X25359502Y-114292060D01*
X25350519Y-114296969D01*
X25341882Y-114302345D01*
X25333590Y-114308189D01*
X25325643Y-114314500D01*
X25318042Y-114321279D01*
X25310787Y-114328525D01*
X25303925Y-114336180D01*
X25297506Y-114344183D01*
X25291530Y-114352536D01*
X25285996Y-114361238D01*
X25280905Y-114370290D01*
X25276257Y-114379690D01*
X25272051Y-114389440D01*
X25268288Y-114399539D01*
X25264968Y-114409987D01*
X25262091Y-114420784D01*
X25259656Y-114431930D01*
X25257664Y-114443426D01*
X25256114Y-114455271D01*
X25255008Y-114467465D01*
X25254344Y-114480008D01*
X25254122Y-114492900D01*
X25254122Y-115019000D01*
X25382838Y-115019000D01*
X25382838Y-114513173D01*
X25383098Y-114499013D01*
X25383877Y-114485661D01*
X25385176Y-114473116D01*
X25386994Y-114461378D01*
X25389332Y-114450447D01*
X25392189Y-114440323D01*
X25395566Y-114431007D01*
X25400876Y-114419840D01*
X25407110Y-114410109D01*
X25412392Y-114403752D01*
X25420158Y-114396253D01*
X25428802Y-114389754D01*
X25438323Y-114384254D01*
X25448723Y-114379755D01*
X25460000Y-114376255D01*
X25472155Y-114373756D01*
X25485188Y-114372256D01*
X25495538Y-114371787D01*
X25499098Y-114371756D01*
X25510012Y-114372061D01*
X25520682Y-114372975D01*
X25531107Y-114374499D01*
X25541287Y-114376633D01*
X25551223Y-114379377D01*
X25560913Y-114382730D01*
X25570359Y-114386692D01*
X25579561Y-114391265D01*
X25588517Y-114396447D01*
X25597229Y-114402239D01*
X25602901Y-114406438D01*
X25611232Y-114413208D01*
X25619465Y-114420509D01*
X25627598Y-114428343D01*
X25635633Y-114436709D01*
X25643570Y-114445608D01*
X25651407Y-114455039D01*
X25659146Y-114465002D01*
X25666786Y-114475498D01*
X25674327Y-114486526D01*
X25681770Y-114498087D01*
X25686676Y-114506090D01*
X25686676Y-115019000D01*
X25815392Y-115019000D01*
X25815392Y-114284317D01*
X25704995Y-114284317D01*
X25693759Y-114403508D01*
X25686223Y-114391931D01*
X25678361Y-114380830D01*
X25670172Y-114370206D01*
X25661657Y-114360059D01*
X25652815Y-114350388D01*
X25643648Y-114341194D01*
X25634154Y-114332477D01*
X25624333Y-114324235D01*
X25614187Y-114316471D01*
X25603714Y-114309183D01*
X25596551Y-114304589D01*
X25585546Y-114298173D01*
X25574331Y-114292388D01*
X25562906Y-114287233D01*
X25551270Y-114282710D01*
X25539424Y-114278818D01*
X25527368Y-114275558D01*
X25515101Y-114272928D01*
X25502624Y-114270929D01*
X25489937Y-114269562D01*
X25477039Y-114268826D01*
X25468323Y-114268685D01*
G37*
G36*
X24754062Y-114268881D02*
G01*
X24765499Y-114269468D01*
X24776746Y-114270446D01*
X24787802Y-114271815D01*
X24798667Y-114273575D01*
X24809341Y-114275727D01*
X24819824Y-114278269D01*
X24830117Y-114281203D01*
X24840218Y-114284528D01*
X24850129Y-114288244D01*
X24859849Y-114292351D01*
X24869379Y-114296850D01*
X24878717Y-114301739D01*
X24887865Y-114307020D01*
X24896822Y-114312692D01*
X24905588Y-114318755D01*
X24914103Y-114325164D01*
X24922368Y-114331872D01*
X24930383Y-114338880D01*
X24938148Y-114346187D01*
X24945664Y-114353794D01*
X24952929Y-114361700D01*
X24959944Y-114369906D01*
X24966710Y-114378412D01*
X24973225Y-114387217D01*
X24979490Y-114396321D01*
X24985506Y-114405726D01*
X24991271Y-114415430D01*
X24996787Y-114425433D01*
X25002052Y-114435736D01*
X25007068Y-114446339D01*
X25011833Y-114457241D01*
X25016329Y-114468363D01*
X25020535Y-114479685D01*
X25024450Y-114491207D01*
X25028076Y-114502930D01*
X25031411Y-114514853D01*
X25034456Y-114526976D01*
X25037212Y-114539300D01*
X25039677Y-114551824D01*
X25041852Y-114564548D01*
X25043738Y-114577473D01*
X25045333Y-114590599D01*
X25046638Y-114603924D01*
X25047653Y-114617450D01*
X25048378Y-114631176D01*
X25048813Y-114645103D01*
X25048958Y-114659230D01*
X25048874Y-114670102D01*
X25048622Y-114680827D01*
X25048203Y-114691406D01*
X25047615Y-114701839D01*
X25046859Y-114712125D01*
X25045936Y-114722264D01*
X25044844Y-114732258D01*
X25043585Y-114742104D01*
X25040562Y-114761359D01*
X25036868Y-114780027D01*
X25032502Y-114798110D01*
X25027465Y-114815606D01*
X25021756Y-114832517D01*
X25015375Y-114848842D01*
X25008322Y-114864582D01*
X25000598Y-114879735D01*
X24992202Y-114894303D01*
X24983135Y-114908285D01*
X24973396Y-114921681D01*
X24962985Y-114934491D01*
X24951943Y-114946618D01*
X24940373Y-114957962D01*
X24928275Y-114968523D01*
X24915648Y-114978303D01*
X24902492Y-114987299D01*
X24888808Y-114995514D01*
X24874595Y-115002946D01*
X24859853Y-115009596D01*
X24844583Y-115015464D01*
X24828785Y-115020549D01*
X24812458Y-115024852D01*
X24795602Y-115028372D01*
X24778218Y-115031111D01*
X24760305Y-115033066D01*
X24741864Y-115034240D01*
X24722894Y-115034631D01*
X24705487Y-115034277D01*
X24688254Y-115033215D01*
X24671194Y-115031445D01*
X24654308Y-115028968D01*
X24637595Y-115025782D01*
X24621056Y-115021888D01*
X24604691Y-115017287D01*
X24588500Y-115011978D01*
X24572482Y-115005960D01*
X24556637Y-114999235D01*
X24540967Y-114991802D01*
X24525470Y-114983661D01*
X24510146Y-114974812D01*
X24494996Y-114965255D01*
X24480020Y-114954990D01*
X24465218Y-114944017D01*
X24521150Y-114868546D01*
X24524214Y-114870589D01*
X24533358Y-114876511D01*
X24542429Y-114882118D01*
X24551427Y-114887413D01*
X24560352Y-114892394D01*
X24569204Y-114897061D01*
X24580894Y-114902797D01*
X24592453Y-114907976D01*
X24603883Y-114912597D01*
X24615183Y-114916662D01*
X24617985Y-114917578D01*
X24629359Y-114920954D01*
X24641001Y-114923864D01*
X24652910Y-114926308D01*
X24665086Y-114928287D01*
X24677529Y-114929800D01*
X24690239Y-114930848D01*
X24703216Y-114931430D01*
X24713124Y-114931561D01*
X24723507Y-114931341D01*
X24733648Y-114930683D01*
X24743550Y-114929586D01*
X24753211Y-114928050D01*
X24767251Y-114924923D01*
X24780751Y-114920808D01*
X24793710Y-114915706D01*
X24806128Y-114909617D01*
X24818004Y-114902540D01*
X24829340Y-114894476D01*
X24840135Y-114885424D01*
X24850389Y-114875385D01*
X24856840Y-114868117D01*
X24862945Y-114860356D01*
X24868701Y-114852103D01*
X24874111Y-114843358D01*
X24879173Y-114834121D01*
X24883888Y-114824391D01*
X24888256Y-114814169D01*
X24892277Y-114803455D01*
X24895950Y-114792249D01*
X24899276Y-114780550D01*
X24902254Y-114768359D01*
X24904886Y-114755675D01*
X24907170Y-114742499D01*
X24909106Y-114728831D01*
X24910696Y-114714671D01*
X24911938Y-114700018D01*
X24441526Y-114700018D01*
X24441171Y-114695811D01*
X24440384Y-114685342D01*
X24439740Y-114674945D01*
X24439239Y-114664620D01*
X24438882Y-114654366D01*
X24438667Y-114644184D01*
X24438595Y-114634073D01*
X24438672Y-114623429D01*
X24438902Y-114612931D01*
X24439285Y-114602579D01*
X24439580Y-114596948D01*
X24566090Y-114596948D01*
X24911938Y-114596948D01*
X24910912Y-114583093D01*
X24909605Y-114569679D01*
X24908018Y-114556704D01*
X24906149Y-114544169D01*
X24903999Y-114532073D01*
X24901568Y-114520418D01*
X24898857Y-114509202D01*
X24895864Y-114498426D01*
X24892590Y-114488090D01*
X24889036Y-114478194D01*
X24885200Y-114468738D01*
X24881083Y-114459722D01*
X24872007Y-114443008D01*
X24861807Y-114428054D01*
X24850483Y-114414859D01*
X24838036Y-114403424D01*
X24824464Y-114393747D01*
X24809768Y-114385830D01*
X24793949Y-114379673D01*
X24777005Y-114375275D01*
X24758938Y-114372636D01*
X24739747Y-114371756D01*
X24729049Y-114371973D01*
X24718692Y-114372626D01*
X24708677Y-114373714D01*
X24699004Y-114375236D01*
X24685135Y-114378336D01*
X24672033Y-114382415D01*
X24659701Y-114387472D01*
X24648137Y-114393509D01*
X24637341Y-114400524D01*
X24627314Y-114408518D01*
X24618056Y-114417491D01*
X24609565Y-114427443D01*
X24606891Y-114430958D01*
X24599376Y-114442094D01*
X24592625Y-114454119D01*
X24586639Y-114467033D01*
X24583073Y-114476135D01*
X24579846Y-114485633D01*
X24576959Y-114495526D01*
X24574412Y-114505814D01*
X24572204Y-114516497D01*
X24570336Y-114527574D01*
X24568807Y-114539047D01*
X24567619Y-114550915D01*
X24566770Y-114563177D01*
X24566260Y-114575835D01*
X24566090Y-114588888D01*
X24566090Y-114596948D01*
X24439580Y-114596948D01*
X24439820Y-114592372D01*
X24440510Y-114582311D01*
X24441352Y-114572395D01*
X24443496Y-114552999D01*
X24446252Y-114534186D01*
X24449621Y-114515955D01*
X24453602Y-114498305D01*
X24458196Y-114481238D01*
X24463402Y-114464752D01*
X24469221Y-114448849D01*
X24475653Y-114433527D01*
X24482697Y-114418788D01*
X24490353Y-114404630D01*
X24498622Y-114391055D01*
X24507503Y-114378061D01*
X24516997Y-114365650D01*
X24527066Y-114353908D01*
X24537670Y-114342924D01*
X24548811Y-114332697D01*
X24560488Y-114323228D01*
X24572701Y-114314516D01*
X24585450Y-114306562D01*
X24598736Y-114299366D01*
X24612557Y-114292927D01*
X24626915Y-114287245D01*
X24641809Y-114282321D01*
X24657240Y-114278155D01*
X24673206Y-114274746D01*
X24689709Y-114272094D01*
X24706747Y-114270201D01*
X24724322Y-114269064D01*
X24742434Y-114268685D01*
X24754062Y-114268881D01*
G37*
D12*
%TO.C,MX19*%
X83788750Y-88781250D03*
D13*
X88868750Y-88781250D03*
D12*
X93948750Y-88781250D03*
D14*
X85713750Y-85511249D03*
D15*
X86368750Y-84781250D03*
D16*
X91388749Y-83991249D03*
D15*
X91408750Y-83701250D03*
%TD*%
D12*
%TO.C,MX20*%
X102788750Y-88781250D03*
D13*
X107868750Y-88781250D03*
D12*
X112948750Y-88781250D03*
D14*
X104713750Y-85511249D03*
D15*
X105368750Y-84781250D03*
D16*
X110388749Y-83991249D03*
D15*
X110408750Y-83701250D03*
%TD*%
D12*
%TO.C,MX25*%
X102788750Y-107781250D03*
D13*
X107868750Y-107781250D03*
D12*
X112948750Y-107781250D03*
D14*
X104713750Y-104511249D03*
D15*
X105368750Y-103781250D03*
D16*
X110388749Y-102991249D03*
D15*
X110408750Y-102701250D03*
%TD*%
D12*
%TO.C,MX5*%
X102788750Y-31781250D03*
D13*
X107868750Y-31781250D03*
D12*
X112948750Y-31781250D03*
D14*
X104713750Y-28511249D03*
D15*
X105368750Y-27781250D03*
D16*
X110388749Y-26991249D03*
D15*
X110408750Y-26701250D03*
%TD*%
D12*
%TO.C,MX13*%
X64788750Y-69781250D03*
D13*
X69868750Y-69781250D03*
D12*
X74948750Y-69781250D03*
D14*
X66713750Y-66511249D03*
D15*
X67368750Y-65781250D03*
D16*
X72388749Y-64991249D03*
D15*
X72408750Y-64701250D03*
%TD*%
D12*
%TO.C,MX15*%
X102788750Y-69781250D03*
D13*
X107868750Y-69781250D03*
D12*
X112948750Y-69781250D03*
D14*
X104713750Y-66511249D03*
D15*
X105368750Y-65781250D03*
D16*
X110388749Y-64991249D03*
D15*
X110408750Y-64701250D03*
%TD*%
D17*
%TO.C,J2*%
X114600750Y-58201250D03*
X107600750Y-58201250D03*
D18*
X104900749Y-55901249D03*
X106000749Y-60501249D03*
X110000749Y-60501249D03*
X113000749Y-60501249D03*
%TD*%
D12*
%TO.C,MX6*%
X26788750Y-50781250D03*
D13*
X31868750Y-50781250D03*
D12*
X36948750Y-50781250D03*
D14*
X28713750Y-47511249D03*
D15*
X29368750Y-46781250D03*
D16*
X34388749Y-45991249D03*
D15*
X34408750Y-45701250D03*
%TD*%
D12*
%TO.C,MX17*%
X45788750Y-88781250D03*
D13*
X50868750Y-88781250D03*
D12*
X55948750Y-88781250D03*
D14*
X47713750Y-85511249D03*
D15*
X48368750Y-84781250D03*
D16*
X53388749Y-83991249D03*
D15*
X53408750Y-83701250D03*
%TD*%
D12*
%TO.C,MX9*%
X83788750Y-50781250D03*
D13*
X88868750Y-50781250D03*
D12*
X93948750Y-50781250D03*
D14*
X85713750Y-47511249D03*
D15*
X86368750Y-46781250D03*
D16*
X91388749Y-45991249D03*
D15*
X91408750Y-45701250D03*
%TD*%
D12*
%TO.C,MX2*%
X45788750Y-31781250D03*
D13*
X50868750Y-31781250D03*
D12*
X55948750Y-31781250D03*
D14*
X47713750Y-28511249D03*
D15*
X48368750Y-27781250D03*
D16*
X53388749Y-26991249D03*
D15*
X53408750Y-26701250D03*
%TD*%
D12*
%TO.C,MX24*%
X93948750Y-107781250D03*
D13*
X88868750Y-107781250D03*
D12*
X83788750Y-107781250D03*
D19*
X92023748Y-111051249D03*
D15*
X91368750Y-111781250D03*
D20*
X86348749Y-112571249D03*
D15*
X86328750Y-112861250D03*
%TD*%
D12*
%TO.C,MX12*%
X45788750Y-69781250D03*
D13*
X50868750Y-69781250D03*
D12*
X55948750Y-69781250D03*
D14*
X47713750Y-66511249D03*
D15*
X48368750Y-65781250D03*
D16*
X53388749Y-64991249D03*
D15*
X53408750Y-64701250D03*
%TD*%
D12*
%TO.C,MX3*%
X64788750Y-31781250D03*
D13*
X69868750Y-31781250D03*
D12*
X74948750Y-31781250D03*
D14*
X66713750Y-28511249D03*
D15*
X67368750Y-27781250D03*
D16*
X72388749Y-26991249D03*
D15*
X72408750Y-26701250D03*
%TD*%
D12*
%TO.C,MX7*%
X45788750Y-50781250D03*
D13*
X50868750Y-50781250D03*
D12*
X55948750Y-50781250D03*
D14*
X47713750Y-47511249D03*
D15*
X48368750Y-46781250D03*
D16*
X53388749Y-45991249D03*
D15*
X53408750Y-45701250D03*
%TD*%
D12*
%TO.C,MX11*%
X26788750Y-69781250D03*
D13*
X31868750Y-69781250D03*
D12*
X36948750Y-69781250D03*
D14*
X28713750Y-66511249D03*
D15*
X29368750Y-65781250D03*
D16*
X34388749Y-64991249D03*
D15*
X34408750Y-64701250D03*
%TD*%
D12*
%TO.C,MX23*%
X74948750Y-107781250D03*
D13*
X69868750Y-107781250D03*
D12*
X64788750Y-107781250D03*
D19*
X73023748Y-111051249D03*
D15*
X72368750Y-111781250D03*
D20*
X67348749Y-112571249D03*
D15*
X67328750Y-112861250D03*
%TD*%
D12*
%TO.C,MX21*%
X26788750Y-107781250D03*
D13*
X31868750Y-107781250D03*
D12*
X36948750Y-107781250D03*
D14*
X28713750Y-104511249D03*
D15*
X29368750Y-103781250D03*
D16*
X34388749Y-102991249D03*
D15*
X34408750Y-102701250D03*
%TD*%
D12*
%TO.C,MX1*%
X26788750Y-31781250D03*
D13*
X31868750Y-31781250D03*
D12*
X36948750Y-31781250D03*
D14*
X28713750Y-28511249D03*
D15*
X29368750Y-27781250D03*
D16*
X34388749Y-26991249D03*
D15*
X34408750Y-26701250D03*
%TD*%
D12*
%TO.C,MX14*%
X83788750Y-69781250D03*
D13*
X88868750Y-69781250D03*
D12*
X93948750Y-69781250D03*
D14*
X85713750Y-66511249D03*
D15*
X86368750Y-65781250D03*
D16*
X91388749Y-64991249D03*
D15*
X91408750Y-64701250D03*
%TD*%
D12*
%TO.C,MX10*%
X102788750Y-50781250D03*
D13*
X107868750Y-50781250D03*
D12*
X112948750Y-50781250D03*
D14*
X104713750Y-47511249D03*
D15*
X105368750Y-46781250D03*
D21*
X110388753Y-45991249D03*
D15*
X110408750Y-45701250D03*
%TD*%
D12*
%TO.C,MX4*%
X83788750Y-31781250D03*
D13*
X88868750Y-31781250D03*
D12*
X93948750Y-31781250D03*
D14*
X85713750Y-28511249D03*
D15*
X86368750Y-27781250D03*
D16*
X91388749Y-26991249D03*
D15*
X91408750Y-26701250D03*
%TD*%
D12*
%TO.C,MX8*%
X64788750Y-50781250D03*
D13*
X69868750Y-50781250D03*
D12*
X74948750Y-50781250D03*
D14*
X66713750Y-47511249D03*
D15*
X67368750Y-46781250D03*
D16*
X72388749Y-45991249D03*
D15*
X72408750Y-45701250D03*
%TD*%
D12*
%TO.C,MX18*%
X64788750Y-88781250D03*
D13*
X69868750Y-88781250D03*
D12*
X74948750Y-88781250D03*
D14*
X66713750Y-85511249D03*
D15*
X67368750Y-84781250D03*
D16*
X72388749Y-83991249D03*
D15*
X72408750Y-83701250D03*
%TD*%
D12*
%TO.C,MX16*%
X26788750Y-88781250D03*
D13*
X31868750Y-88781250D03*
D12*
X36948750Y-88781250D03*
D14*
X28713750Y-85511249D03*
D15*
X29368750Y-84781250D03*
D16*
X34388749Y-83991249D03*
D15*
X34408750Y-83701250D03*
%TD*%
D12*
%TO.C,MX22*%
X45788750Y-107781250D03*
D13*
X50868750Y-107781250D03*
D12*
X55948750Y-107781250D03*
D14*
X47713750Y-104511249D03*
D15*
X48368750Y-103781250D03*
D16*
X53388749Y-102991249D03*
D15*
X53408750Y-102701250D03*
%TD*%
D22*
%TO.C,U2*%
X83751749Y-103525249D03*
X82951749Y-103525249D03*
X82151749Y-103525249D03*
X81351749Y-103525249D03*
X80551749Y-103525249D03*
X79751749Y-103525249D03*
X78951749Y-103525249D03*
X78151749Y-103525249D03*
X77351749Y-103525249D03*
X76551749Y-103525249D03*
X75751749Y-103525249D03*
D23*
X74051749Y-101825249D03*
X74051749Y-101025249D03*
X74051749Y-100225249D03*
X74051749Y-99425249D03*
X74051749Y-98625249D03*
X74051749Y-97825249D03*
X74051749Y-97025249D03*
X74051749Y-96225249D03*
X74051749Y-95425249D03*
X74051749Y-94625249D03*
X74051749Y-93825249D03*
D22*
X75751749Y-92125249D03*
X76551749Y-92125249D03*
X77351749Y-92125249D03*
X78151749Y-92125249D03*
X78951749Y-92125249D03*
X79751749Y-92125249D03*
X80551749Y-92125249D03*
X81351749Y-92125249D03*
X82151749Y-92125249D03*
X82951749Y-92125249D03*
X83751749Y-92125249D03*
D23*
X85451749Y-93825249D03*
X85451749Y-94625249D03*
X85451749Y-95425249D03*
X85451749Y-96225249D03*
X85451749Y-97025249D03*
X85451749Y-97825249D03*
X85451749Y-98625249D03*
X85451749Y-99425249D03*
X85451749Y-100225249D03*
X85451749Y-101025249D03*
X85451749Y-101825249D03*
%TD*%
D24*
%TO.C,R5*%
X101600000Y-38893750D03*
X101600000Y-37068750D03*
%TD*%
D25*
%TO.C,R8*%
X101600000Y-42068750D03*
X101600000Y-43893750D03*
%TD*%
D26*
%TO.C,C2*%
X94234000Y-102706250D03*
X94234000Y-100806250D03*
%TD*%
%TO.C,C4*%
X96774000Y-102706250D03*
X96774000Y-100806250D03*
%TD*%
D24*
%TO.C,R6*%
X103759000Y-38917250D03*
X103759000Y-37092250D03*
%TD*%
D27*
%TO.C,SW1*%
X54914749Y-93582249D03*
X58614749Y-99782249D03*
X58614749Y-93582249D03*
X54914749Y-99782249D03*
%TD*%
D28*
%TO.C,C5*%
X89154000Y-100806250D03*
X89154000Y-102706250D03*
%TD*%
D29*
%TO.C,C6*%
X68321750Y-102651250D03*
X66421750Y-102651250D03*
%TD*%
D30*
%TO.C,R4*%
X61000000Y-101219000D03*
X62825000Y-101219000D03*
%TD*%
D31*
%TO.C,Y1*%
X68448749Y-99271249D03*
X66248749Y-99271249D03*
X66248749Y-97571249D03*
X68448749Y-97571249D03*
%TD*%
D32*
%TO.C,R10*%
X102512500Y-58737500D03*
X100687500Y-58737500D03*
%TD*%
D26*
%TO.C,C7*%
X66040000Y-94930000D03*
X66040000Y-93030000D03*
%TD*%
D33*
%TO.C,J1*%
X115738749Y-45419249D03*
X109788749Y-45059249D03*
X109788749Y-36799249D03*
X115738749Y-36439249D03*
D34*
X109578749Y-37929249D03*
X109578749Y-38429249D03*
X109578749Y-38929249D03*
X109578749Y-39429249D03*
X109578749Y-39929249D03*
X109578749Y-40429249D03*
X109578749Y-40929249D03*
X109578749Y-41429249D03*
X109578749Y-41929249D03*
X109578749Y-42429249D03*
X109578749Y-42929249D03*
X109578749Y-43429249D03*
X107878749Y-43679249D03*
X107878749Y-43179249D03*
X107878749Y-42679249D03*
X107878749Y-42179249D03*
X107878749Y-41679249D03*
X107878749Y-41179249D03*
X107878749Y-40679249D03*
X107878749Y-40179249D03*
X107878749Y-39679249D03*
X107878749Y-39179249D03*
X107878749Y-38679249D03*
X107878749Y-38179249D03*
D35*
X108538749Y-44529249D03*
D36*
X108538750Y-37329250D03*
%TD*%
D25*
%TO.C,R7*%
X103759000Y-42068750D03*
X103759000Y-43893750D03*
%TD*%
D32*
%TO.C,R9*%
X102512500Y-56578500D03*
X100687500Y-56578500D03*
%TD*%
D37*
%TO.C,F1*%
X96653000Y-38862000D03*
X93853000Y-38862000D03*
%TD*%
D28*
%TO.C,C3*%
X91821000Y-100806250D03*
X91821000Y-102706250D03*
%TD*%
D38*
%TO.C,C1*%
X79218750Y-107156250D03*
X81118750Y-107156250D03*
%TD*%
D25*
%TO.C,R1*%
X89022750Y-92848750D03*
X89022750Y-94673750D03*
%TD*%
M02*
